<svg width="811" height="671" viewBox="0 0 811 671" fill="none" xmlns="http://www.w3.org/2000/svg">
<g clip-path="url(#clip0)">
<path d="M123.175 539.78C123.175 580.35 99.0426 594.517 69.276 594.517C68.583 594.517 67.8937 594.51 67.2082 594.491C65.8296 594.461 64.4623 594.401 63.1137 594.304C36.2466 592.406 15.3733 577.508 15.3733 539.78C15.3733 500.737 65.2864 451.47 69.0512 447.812L69.0587 447.808C69.2011 447.666 69.276 447.594 69.276 447.594C69.276 447.594 123.175 499.206 123.175 539.78Z" fill="#3F3D56"/>
<path d="M67.3094 588.31L87.0251 560.78L67.2606 591.331L67.2082 594.491C65.8297 594.461 64.4623 594.401 63.1137 594.304L65.2378 553.715L65.2228 553.4L65.2602 553.341L65.4588 549.507L45.6456 518.877L65.5187 546.631L65.5674 547.444L67.1745 516.776L50.2121 485.128L67.3805 511.389L69.0513 447.812L69.0588 447.594V447.808L68.7815 497.944L85.6652 478.067L68.7103 502.261L68.2646 529.72L84.0319 503.369L68.1972 533.763L67.95 549.027L90.8387 512.347L67.8638 554.355L67.3094 588.31Z" fill="#F2F2F2"/>
<g opacity="0.7">
<path opacity="0.7" d="M748.335 255.413V245.643H699.454V290.832C699.454 293.359 700.458 295.782 702.245 297.568C704.033 299.355 706.457 300.359 708.985 300.359H738.803C741.331 300.359 743.755 299.355 745.543 297.568C747.33 295.782 748.335 293.359 748.335 290.832V280.817C751.705 280.817 754.938 279.479 757.321 277.097C759.705 274.715 761.044 271.484 761.044 268.115C761.044 264.747 759.705 261.516 757.321 259.134C754.938 256.752 751.705 255.413 748.335 255.413ZM748.335 275.932V260.299C750.409 260.299 752.398 261.122 753.865 262.588C755.332 264.054 756.156 266.042 756.156 268.115C756.156 270.188 755.332 272.177 753.865 273.642C752.398 275.108 750.409 275.932 748.335 275.932Z" fill="url(#paint0_linear)"/>
</g>
<path d="M746.762 256.943C744.467 256.943 742.223 257.623 740.315 258.897C738.407 260.171 736.92 261.983 736.041 264.102C735.163 266.221 734.933 268.553 735.381 270.803C735.829 273.052 736.934 275.119 738.557 276.741C740.179 278.363 742.247 279.467 744.498 279.915C746.749 280.362 749.082 280.132 751.202 279.255C753.323 278.377 755.135 276.89 756.41 274.983C757.685 273.076 758.366 270.834 758.366 268.54C758.366 265.464 757.143 262.514 754.967 260.339C752.791 258.164 749.839 256.943 746.762 256.943ZM746.762 275.677C745.349 275.677 743.969 275.258 742.795 274.474C741.62 273.69 740.705 272.575 740.165 271.271C739.624 269.967 739.483 268.532 739.758 267.148C740.034 265.763 740.714 264.492 741.712 263.494C742.711 262.495 743.984 261.816 745.369 261.54C746.754 261.265 748.19 261.406 749.495 261.946C750.799 262.487 751.915 263.401 752.699 264.575C753.484 265.749 753.903 267.129 753.903 268.54C753.903 270.433 753.15 272.248 751.811 273.587C750.472 274.925 748.656 275.677 746.762 275.677Z" fill="white"/>
<path opacity="0.1" d="M746.762 256.943C744.467 256.943 742.223 257.623 740.315 258.897C738.407 260.171 736.92 261.983 736.041 264.102C735.163 266.221 734.933 268.553 735.381 270.803C735.829 273.052 736.934 275.119 738.557 276.741C740.179 278.363 742.247 279.467 744.498 279.915C746.749 280.362 749.082 280.132 751.202 279.255C753.323 278.377 755.135 276.89 756.41 274.983C757.685 273.076 758.366 270.834 758.366 268.54C758.366 265.464 757.143 262.514 754.967 260.339C752.791 258.164 749.839 256.943 746.762 256.943ZM746.762 275.677C745.349 275.677 743.969 275.258 742.795 274.474C741.62 273.69 740.705 272.575 740.165 271.271C739.624 269.967 739.483 268.532 739.758 267.148C740.034 265.763 740.714 264.492 741.712 263.494C742.711 262.495 743.984 261.816 745.369 261.54C746.754 261.265 748.19 261.406 749.495 261.946C750.799 262.487 751.915 263.401 752.699 264.575C753.484 265.749 753.903 267.129 753.903 268.54C753.903 270.433 753.15 272.248 751.811 273.587C750.472 274.925 748.656 275.677 746.762 275.677Z" fill="black"/>
<path d="M702.131 248.022H746.762V289.236C746.762 291.555 745.84 293.779 744.199 295.419C742.559 297.059 740.333 297.98 738.013 297.98H710.88C708.56 297.98 706.334 297.059 704.694 295.419C703.053 293.779 702.131 291.555 702.131 289.236V248.022Z" fill="white"/>
<path opacity="0.1" d="M738.728 248.022V289.282C738.728 291.589 737.811 293.801 736.179 295.432C734.547 297.063 732.334 297.98 730.025 297.98H734.488C736.797 297.98 739.01 297.063 740.642 295.432C742.274 293.801 743.191 291.589 743.191 289.282V248.022H738.728Z" fill="black"/>
<path d="M710.939 214.767C710.557 214.779 710.182 214.875 709.842 215.047C709.501 215.22 709.203 215.466 708.968 215.767C708.382 216.827 709.443 218.023 710.411 218.752C712.2 220.099 714.085 221.421 715.301 223.301C716.516 225.18 716.898 227.803 715.569 229.604C713.834 231.956 709.694 232.462 709.293 235.356C709.036 237.215 710.644 238.8 712.272 239.733C716.292 242.034 721.475 242.648 724.387 246.25C725.592 243.774 728.286 242.343 730.972 241.732C733.657 241.121 736.448 241.167 739.171 240.752C739.615 240.744 740.052 240.631 740.445 240.422C740.838 240.214 741.176 239.916 741.433 239.553C742.194 238.009 740.025 236.157 740.773 234.607C741.343 233.427 743.017 233.519 744.24 233.047C746.231 232.277 747.051 229.717 746.486 227.66C745.921 225.603 744.326 223.995 742.647 222.678C738.125 219.126 732.687 217.037 727.186 215.534C724.628 214.836 721.625 213.74 718.968 213.634C716.403 213.532 713.477 214.333 710.939 214.767Z" fill="#EEEEEE"/>
<path d="M397.692 308.514L304.372 599.077" stroke="#E0E0E0" stroke-width="8" stroke-miterlimit="10"/>
<g opacity="0.7">
<path opacity="0.7" d="M469.995 631.802C458.516 632.467 448.29 642.078 448.29 642.078L443.345 629.819L442.941 629.95C445.357 619.381 494.506 401.517 445.305 382.735C407.499 368.303 367.398 350.443 335.98 351.114V299.648H380.027V297.813H414.898C421.583 293.041 411.87 289.76 401.014 287.709C401.456 287.203 401.846 286.653 402.177 286.068L458.028 185.922C458.028 185.922 470.875 164.828 462.616 154.739C454.357 144.651 442.428 180.419 442.428 180.419L396.545 246.453C396.545 246.453 350.236 198.214 320.778 174.224C317.508 170.986 313.82 168.2 309.811 165.94C304.434 162.304 300.363 160.42 298.356 161.159C298.335 161.167 298.319 161.179 298.299 161.187C293.834 159.952 289.223 159.325 284.591 159.325H280.921V151.8C289.143 149.086 296.665 144.592 302.951 138.639C309.237 132.687 314.131 125.421 317.285 117.361C322.462 108.792 325.623 99.1599 326.531 89.1911C327.439 79.2224 326.069 69.1778 322.525 59.8155C323.073 59.7508 323.6 59.5684 324.071 59.2807C325.732 58.2115 325.897 55.8725 325.737 53.9036C325.134 47.2955 322.929 40.9337 319.314 35.3681C315.699 29.8025 310.782 25.2007 304.988 21.9606C300.339 19.4197 295.014 17.669 291.586 13.6307C288.64 10.1607 287.402 5.30746 283.837 2.47618C279.602 -0.887423 273.484 -0.309176 268.287 1.19171C262.504 2.86406 257.025 5.44813 252.057 8.84641C246.436 12.6943 241.362 17.6379 234.891 19.7677C230.292 21.2811 225.305 21.2509 220.678 22.6726C217.127 23.7973 213.888 25.737 211.221 28.3367C208.554 30.9363 206.533 34.1237 205.319 37.6439C204.141 41.4256 203.695 45.397 204.005 49.3456C201.191 54.0469 198.977 59.0818 197.414 64.3328C197.067 64.5197 196.719 64.7026 196.376 64.8953L197.382 64.4431C193.872 76.284 193.756 88.8713 197.046 100.775C200.336 112.679 206.901 123.422 215.994 131.783C223.18 141.132 233.012 148.107 244.215 151.8V160.903C236.222 162.626 228.598 165.747 221.692 170.122L221.683 170.11C221.683 170.11 221.097 170.472 220.094 171.146C219.994 171.214 219.894 171.281 219.793 171.349C213.003 175.955 190.249 192.786 191.018 210.972C190.988 211.672 190.992 212.373 191.03 213.077C189.787 218.332 189.158 223.714 189.155 229.114V361.096C189.138 375.679 194.041 389.843 203.074 401.296C183.924 405.586 171.72 412.074 171.72 419.335C171.816 419.942 171.816 420.561 171.72 421.169C171.72 434.085 210.34 444.556 257.979 444.556C263.739 444.556 269.366 444.402 274.81 444.11L328.639 487.662L242.379 626.15C242.379 626.15 213.932 648.162 235.956 655.499C257.979 662.836 302.944 668.339 302.944 668.339C302.944 668.339 310.286 655.499 300.191 649.996C290.097 644.493 276.332 647.244 276.332 647.244L278.168 636.239C278.168 636.239 427.745 507.839 396.545 463.816C390.576 455.394 384.607 446.704 378.586 438.149L402.133 440.294L407.491 641.856L408.161 641.638C406.816 645.598 397.303 675.483 418.39 670.425C440.964 665.012 482.038 645.914 482.038 645.914C482.038 645.914 481.474 631.137 469.995 631.802ZM380.027 284.973L335.98 272.192V234.53L383.854 285.323C381.5 285.087 380.027 284.973 380.027 284.973Z" fill="url(#paint1_linear)"/>
</g>
<path d="M262.199 153.367C297.88 153.367 326.805 124.459 326.805 88.7977C326.805 53.1368 297.88 24.228 262.199 24.228C226.519 24.228 197.594 53.1368 197.594 88.7977C197.594 124.459 226.519 153.367 262.199 153.367Z" fill="black"/>
<path d="M335.778 236.77L385.082 289.079C386.12 290.18 387.404 291.022 388.828 291.535C390.252 292.048 391.778 292.218 393.28 292.031C394.783 291.845 396.22 291.307 397.476 290.462C398.732 289.616 399.77 288.486 400.507 287.165L455.119 189.239L439.865 183.859L395 248.428C395 248.428 310.773 160.688 298.989 165.026C287.205 169.363 335.778 236.77 335.778 236.77Z" fill="white"/>
<path d="M241.561 417.924L168.88 606.252" stroke="#BDBDBD" stroke-width="5" stroke-miterlimit="10"/>
<path d="M277.453 417.924L350.135 606.252" stroke="#BDBDBD" stroke-width="5" stroke-miterlimit="10"/>
<path d="M259.507 442.137C306.091 442.137 343.854 431.899 343.854 419.269C343.854 406.639 306.091 396.4 259.507 396.4C212.924 396.4 175.161 406.639 175.161 419.269C175.161 431.899 212.924 442.137 259.507 442.137Z" fill="#B84733"/>
<path d="M259.507 440.344C306.091 440.344 343.854 430.105 343.854 417.475C343.854 404.845 306.091 394.607 259.507 394.607C212.924 394.607 175.161 404.845 175.161 417.475C175.161 430.105 212.924 440.344 259.507 440.344Z" fill="#F55F44"/>
<path d="M224.016 459.3L303.597 483.809" stroke="#BDBDBD" stroke-width="5" stroke-miterlimit="10"/>
<path d="M294.999 459.3L215.417 483.809" stroke="#BDBDBD" stroke-width="5" stroke-miterlimit="10"/>
<path d="M260.49 163.232H285.529C298.856 163.232 311.637 168.523 321.06 177.942C330.484 187.36 335.778 200.134 335.778 213.453V346.18H192.21V231.474C192.21 213.375 199.404 196.018 212.209 183.22C225.013 170.422 242.381 163.232 260.49 163.232Z" fill="white"/>
<path d="M192.21 346.18H335.778V424.201H255.918C239.022 424.201 222.817 417.493 210.87 405.552C198.922 393.611 192.21 377.415 192.21 360.528V346.18Z" fill="#39447A"/>
<path opacity="0.05" d="M194.149 217.075L281.94 300.443H378.848V287.887L295.399 263.674L224.016 175.572C224.016 175.572 191.601 195.587 194.149 217.075Z" fill="black"/>
<path d="M194.149 215.282L281.94 298.649H378.848V286.094L295.399 261.88L224.016 173.778C224.016 173.778 191.601 193.794 194.149 215.282Z" fill="white"/>
<path d="M378.848 286.094C378.848 286.094 425.508 289.681 412.946 298.649H378.848V286.094Z" fill="#FDA57D"/>
<path d="M439.865 183.859C439.865 183.859 451.53 148.883 459.605 158.748C467.681 168.613 455.119 189.239 455.119 189.239L439.865 183.859Z" fill="#FDA57D"/>
<path opacity="0.05" d="M192.21 346.179V350.365L335.778 350.663V346.179H192.21Z" fill="black"/>
<path d="M303.89 429.173L400.464 437.97L405.703 635.061L440.277 623.812C440.277 623.812 491.985 400.51 442.679 381.688C393.372 362.865 340.074 338.08 308.252 358.279C276.43 378.478 303.89 429.173 303.89 429.173Z" fill="#39447A"/>
<path opacity="0.1" d="M309.756 368.6C309.756 368.6 362.697 395.504 369.875 425.995L309.756 368.6Z" fill="black"/>
<path d="M253.227 423.304L328.599 484.287L244.253 619.704L279.248 629.569C279.248 629.569 425.508 504.016 395 460.97C364.492 417.924 333.983 367.703 296.297 366.806C258.61 365.909 253.227 423.304 253.227 423.304Z" fill="#39447A"/>
<path opacity="0.05" d="M371.67 225.111L390.513 257.396L395 248.428L371.67 225.111Z" fill="black"/>
<path d="M244.253 619.704C244.253 619.704 216.437 641.227 237.972 648.401C259.507 655.576 303.475 660.957 303.475 660.957C303.475 660.957 310.654 648.401 300.783 643.021C290.913 637.64 277.453 640.33 277.453 640.33L279.248 629.569L244.253 619.704Z" fill="#333333"/>
<path d="M406.505 634.425C406.505 634.425 394.287 668.291 416.36 662.997C438.434 657.703 478.597 639.03 478.597 639.03C478.597 639.03 478.045 624.58 466.821 625.23C455.597 625.881 445.597 635.278 445.597 635.278L440.762 623.291L406.505 634.425Z" fill="#333333"/>
<path d="M263.994 131.844H263.994C254.083 131.844 246.048 139.874 246.048 149.78V167.716C246.048 177.622 254.083 185.652 263.994 185.652H263.994C273.905 185.652 281.94 177.622 281.94 167.716V149.78C281.94 139.874 273.905 131.844 263.994 131.844Z" fill="#FDA57D"/>
<path opacity="0.05" d="M263.994 133.638C259.234 133.638 254.67 135.527 251.304 138.891C247.939 142.255 246.048 146.817 246.048 151.574V157.668C257.705 161.5 270.283 161.5 281.94 157.668V151.574C281.94 146.817 280.049 142.255 276.684 138.891C273.318 135.527 268.753 133.638 263.994 133.638Z" fill="black"/>
<path d="M263.994 158.748C295.71 158.748 321.421 133.051 321.421 101.353C321.421 69.6544 295.71 43.9576 263.994 43.9576C232.278 43.9576 206.567 69.6544 206.567 101.353C206.567 133.051 232.278 158.748 263.994 158.748Z" fill="#FDA57D"/>
<path opacity="0.05" d="M206.567 98.7485C206.567 98.7485 220.924 102.446 228.999 86.1381C237.075 69.8299 243.356 60.9345 276.556 70.5711C309.756 80.2078 316.435 81.3836 318.031 72.2709C319.121 66.044 307.316 50.9189 299.73 41.9641C296.029 37.5956 289.99 34.9897 283.535 34.9897H246.048L223.615 45.3676L206.567 60.1933L202.978 80.2078L206.567 98.7485Z" fill="black"/>
<path d="M206.567 96.9549C206.567 96.9549 220.924 100.653 228.999 84.3445C237.075 68.0363 243.356 59.1409 276.556 68.7776C309.756 78.4142 316.435 79.59 318.031 70.4774C319.121 64.2504 307.316 49.1253 299.73 40.1705C296.029 35.802 289.99 33.1961 283.535 33.1961H246.048L223.615 43.574L206.567 58.3997L202.978 78.4143L206.567 96.9549Z" fill="black"/>
<path d="M212.399 108.527C215.62 108.527 218.232 103.308 218.232 96.8689C218.232 90.4302 215.62 85.2105 212.399 85.2105C209.178 85.2105 206.567 90.4302 206.567 96.8689C206.567 103.308 209.178 108.527 212.399 108.527Z" fill="#FDA57D"/>
<path d="M208.231 66.8703C206.9 59.3629 205.592 51.4795 208.015 44.25C209.202 40.808 211.178 37.6913 213.786 35.1493C216.394 32.6073 219.561 30.7106 223.033 29.6109C227.558 28.2206 232.435 28.2502 236.931 26.7704C243.259 24.6877 248.22 19.8539 253.716 16.0913C258.574 12.7683 263.932 10.2416 269.587 8.60634C274.668 7.13871 280.65 6.57329 284.792 9.86233C288.277 12.6308 289.488 17.3763 292.369 20.7694C295.721 24.7181 300.928 26.43 305.474 28.9147C311.139 32.0828 315.947 36.5825 319.482 42.0247C323.017 47.4668 325.172 53.6876 325.762 60.1491C325.919 62.0743 325.758 64.3615 324.133 65.407C323.123 65.9202 321.986 66.1277 320.86 66.004C297.908 65.6762 274.929 65.3469 252.072 63.2412C244.966 62.5865 237.847 61.7595 230.716 62.0295C219.68 62.4595 208.904 65.4984 199.271 70.897" fill="black"/>
<path d="M108.844 578.676H29.4172C13.1705 578.676 0 591.839 0 608.077V608.077C0 624.315 13.1705 637.478 29.4172 637.478H108.844C125.09 637.478 138.261 624.315 138.261 608.077C138.261 591.839 125.09 578.676 108.844 578.676Z" fill="white"/>
<path d="M516.734 368.749C517.082 368.737 517.413 368.59 517.656 368.339C517.898 368.088 518.034 367.753 518.034 367.404C518.034 367.055 517.898 366.72 517.656 366.469C517.413 366.218 517.082 366.071 516.734 366.059C516.385 366.071 516.054 366.218 515.812 366.469C515.569 366.72 515.433 367.055 515.433 367.404C515.433 367.753 515.569 368.088 515.812 368.339C516.054 368.59 516.385 368.737 516.734 368.749Z" fill="url(#paint2_linear)"/>
<path d="M714.225 308.514L807.545 640.412" stroke="#E0E0E0" stroke-width="8" stroke-miterlimit="10"/>
<path d="M807.923 298.794H303.994V318.421H807.923V298.794Z" fill="#E0E0E0"/>
<path d="M504.919 294.165H434.032C430.811 294.165 428.2 296.775 428.2 299.994V299.994C428.2 303.214 430.811 305.823 434.032 305.823H504.919C508.14 305.823 510.752 303.214 510.752 299.994C510.752 296.775 508.14 294.165 504.919 294.165Z" fill="#535461"/>
<g opacity="0.7">
<path opacity="0.7" d="M658.304 164.184H503.77C489.786 164.184 478.449 175.514 478.449 189.491V280.662C478.449 294.638 489.786 305.969 503.77 305.969H658.304C672.288 305.969 683.625 294.638 683.625 280.662V189.491C683.625 175.514 672.288 164.184 658.304 164.184Z" fill="url(#paint3_linear)"/>
</g>
<path d="M652.391 166.799H506.186C492.887 166.799 482.107 177.574 482.107 190.865V281.903C482.107 295.194 492.887 305.969 506.186 305.969H652.391C665.689 305.969 676.47 295.194 676.47 281.903V190.865C676.47 177.574 665.689 166.799 652.391 166.799Z" fill="#3E3F49"/>
<path d="M655.083 166.799H508.878C495.579 166.799 484.799 177.574 484.799 190.865V281.903C484.799 295.194 495.579 305.969 508.878 305.969H655.083C668.381 305.969 679.162 295.194 679.162 281.903V190.865C679.162 177.574 668.381 166.799 655.083 166.799Z" fill="#535461"/>
<path d="M591.06 241.702C594.529 241.702 597.341 238.892 597.341 235.425C597.341 231.958 594.529 229.147 591.06 229.147C587.591 229.147 584.779 231.958 584.779 235.425C584.779 238.892 587.591 241.702 591.06 241.702Z" fill="#E0E0E0"/>
<path d="M488.922 46C488.471 45.3067 487.951 44.5787 487.362 43.816C486.773 43.0533 486.149 42.3167 485.49 41.606C484.849 40.8953 484.181 40.2193 483.488 39.578C482.795 38.9367 482.11 38.382 481.434 37.914V46H478.158V27.982H481.434V35.418C482.006 34.846 482.604 34.2393 483.228 33.598C483.852 32.9393 484.467 32.2807 485.074 31.622C485.698 30.946 486.287 30.296 486.842 29.672C487.397 29.048 487.899 28.4847 488.35 27.982H492.276C491.704 28.6407 491.097 29.3253 490.456 30.036C489.815 30.7467 489.156 31.466 488.48 32.194C487.804 32.9047 487.119 33.6153 486.426 34.326C485.75 35.0367 485.083 35.7127 484.424 36.354C485.152 36.9087 485.889 37.5587 486.634 38.304C487.397 39.032 488.142 39.8207 488.87 40.67C489.598 41.502 490.291 42.3773 490.95 43.296C491.626 44.1973 492.241 45.0987 492.796 46H488.922ZM506.626 39.188C506.626 40.2627 506.47 41.242 506.158 42.126C505.846 43.01 505.404 43.764 504.832 44.388C504.26 45.012 503.567 45.4973 502.752 45.844C501.955 46.1907 501.071 46.364 500.1 46.364C499.13 46.364 498.246 46.1907 497.448 45.844C496.651 45.4973 495.966 45.012 495.394 44.388C494.822 43.764 494.372 43.01 494.042 42.126C493.73 41.242 493.574 40.2627 493.574 39.188C493.574 38.1133 493.73 37.1427 494.042 36.276C494.372 35.392 494.822 34.638 495.394 34.014C495.984 33.39 496.677 32.9133 497.474 32.584C498.272 32.2373 499.147 32.064 500.1 32.064C501.054 32.064 501.929 32.2373 502.726 32.584C503.541 32.9133 504.234 33.39 504.806 34.014C505.378 34.638 505.82 35.392 506.132 36.276C506.462 37.1427 506.626 38.1133 506.626 39.188ZM503.402 39.188C503.402 37.836 503.108 36.77 502.518 35.99C501.946 35.1927 501.14 34.794 500.1 34.794C499.06 34.794 498.246 35.1927 497.656 35.99C497.084 36.77 496.798 37.836 496.798 39.188C496.798 40.5573 497.084 41.6407 497.656 42.438C498.246 43.2353 499.06 43.634 500.1 43.634C501.14 43.634 501.946 43.2353 502.518 42.438C503.108 41.6407 503.402 40.5573 503.402 39.188ZM521.281 46H518.135V40.306H513.013V46H509.867V32.402H513.013V37.706H518.135V32.402H521.281V46ZM524.525 39.214C524.525 38.2087 524.681 37.2727 524.993 36.406C525.305 35.522 525.747 34.7593 526.319 34.118C526.909 33.4767 527.619 32.974 528.451 32.61C529.283 32.246 530.219 32.064 531.259 32.064C532.542 32.064 533.755 32.298 534.899 32.766L534.223 35.34C533.859 35.184 533.443 35.054 532.975 34.95C532.525 34.846 532.039 34.794 531.519 34.794C530.289 34.794 529.353 35.184 528.711 35.964C528.07 36.7267 527.749 37.81 527.749 39.214C527.749 40.566 528.053 41.6407 528.659 42.438C529.266 43.218 530.289 43.608 531.727 43.608C532.265 43.608 532.793 43.556 533.313 43.452C533.833 43.348 534.284 43.218 534.665 43.062L535.107 45.662C534.761 45.8353 534.232 45.9913 533.521 46.13C532.828 46.2687 532.109 46.338 531.363 46.338C530.202 46.338 529.188 46.1647 528.321 45.818C527.472 45.454 526.761 44.96 526.189 44.336C525.635 43.6947 525.219 42.9407 524.941 42.074C524.664 41.19 524.525 40.2367 524.525 39.214ZM542.327 43.79C543.298 43.79 544.034 43.738 544.537 43.634V40.15C544.364 40.098 544.112 40.046 543.783 39.994C543.454 39.942 543.09 39.916 542.691 39.916C542.344 39.916 541.989 39.942 541.625 39.994C541.278 40.046 540.958 40.1413 540.663 40.28C540.386 40.4187 540.16 40.618 539.987 40.878C539.814 41.1207 539.727 41.4327 539.727 41.814C539.727 42.5593 539.961 43.0793 540.429 43.374C540.897 43.6513 541.53 43.79 542.327 43.79ZM542.067 32.064C543.107 32.064 543.982 32.194 544.693 32.454C545.404 32.714 545.967 33.078 546.383 33.546C546.816 34.014 547.12 34.586 547.293 35.262C547.484 35.9207 547.579 36.6487 547.579 37.446V45.688C547.094 45.792 546.357 45.9133 545.369 46.052C544.398 46.208 543.298 46.286 542.067 46.286C541.252 46.286 540.507 46.208 539.831 46.052C539.155 45.896 538.574 45.6447 538.089 45.298C537.621 44.9513 537.248 44.5007 536.971 43.946C536.711 43.3913 536.581 42.7067 536.581 41.892C536.581 41.112 536.728 40.4533 537.023 39.916C537.335 39.3787 537.751 38.9453 538.271 38.616C538.791 38.2693 539.389 38.0267 540.065 37.888C540.758 37.732 541.478 37.654 542.223 37.654C542.57 37.654 542.934 37.68 543.315 37.732C543.696 37.7667 544.104 37.836 544.537 37.94V37.42C544.537 37.056 544.494 36.7093 544.407 36.38C544.32 36.0507 544.164 35.7647 543.939 35.522C543.731 35.262 543.445 35.0627 543.081 34.924C542.734 34.7853 542.292 34.716 541.755 34.716C541.027 34.716 540.36 34.768 539.753 34.872C539.146 34.976 538.652 35.0973 538.271 35.236L537.881 32.688C538.28 32.5493 538.86 32.4107 539.623 32.272C540.386 32.1333 541.2 32.064 542.067 32.064ZM556.762 35.002C556.744 35.7647 556.718 36.562 556.684 37.394C556.649 38.2087 556.562 39.0147 556.424 39.812C556.302 40.6093 556.103 41.372 555.826 42.1C555.548 42.828 555.158 43.4867 554.656 44.076C554.17 44.648 553.555 45.1333 552.81 45.532C552.082 45.9133 551.189 46.156 550.132 46.26L549.69 43.634C550.574 43.4607 551.258 43.1833 551.744 42.802C552.229 42.4033 552.602 41.9007 552.862 41.294C553.07 40.8433 553.226 40.332 553.33 39.76C553.451 39.188 553.538 38.59 553.59 37.966C553.659 37.3247 553.702 36.6747 553.72 36.016C553.737 35.3573 553.746 34.716 553.746 34.092V32.402H563.366V46H560.22V35.002H556.762ZM577.621 35.028H573.227V46H570.081V35.028H565.713V32.402H577.621V35.028ZM591.879 32.402V46H588.759C588.759 45.012 588.759 44.0327 588.759 43.062C588.776 42.0913 588.785 41.19 588.785 40.358C588.802 39.526 588.811 38.8067 588.811 38.2C588.828 37.576 588.837 37.1167 588.837 36.822C588.317 37.498 587.779 38.2433 587.225 39.058C586.67 39.8727 586.115 40.6873 585.561 41.502C585.023 42.3167 584.512 43.114 584.027 43.894C583.541 44.674 583.117 45.376 582.753 46H579.971V32.402H583.065C583.065 33.4073 583.056 34.3693 583.039 35.288C583.039 36.1893 583.039 37.0127 583.039 37.758C583.039 38.5033 583.03 39.1533 583.013 39.708C583.013 40.2627 583.013 40.6873 583.013 40.982C583.498 40.2367 584.001 39.474 584.521 38.694C585.041 37.8967 585.561 37.1253 586.081 36.38C586.618 35.6173 587.147 34.898 587.667 34.222C588.187 33.546 588.689 32.9393 589.175 32.402H591.879ZM607.305 46H604.159V40.306H599.037V46H595.891V32.402H599.037V37.706H604.159V32.402H607.305V46ZM620.325 35.002H614.449V46H611.303V32.402H620.325V35.002ZM489.312 76.402V90H486.166V79.028H481.148V90H478.002V76.402H489.312ZM502.335 83.266C502.335 81.862 502.014 80.77 501.373 79.99C500.749 79.21 499.735 78.82 498.331 78.82C498.036 78.82 497.724 78.8373 497.395 78.872C497.083 78.8893 496.771 78.9413 496.459 79.028V86.802C496.736 86.9927 497.1 87.1747 497.551 87.348C498.019 87.504 498.513 87.582 499.033 87.582C500.177 87.582 501.009 87.192 501.529 86.412C502.066 85.632 502.335 84.5833 502.335 83.266ZM505.559 83.214C505.559 84.254 505.42 85.2073 505.143 86.074C504.883 86.9407 504.501 87.686 503.999 88.31C503.496 88.934 502.863 89.4193 502.101 89.766C501.355 90.1127 500.506 90.286 499.553 90.286C498.911 90.286 498.322 90.208 497.785 90.052C497.247 89.896 496.805 89.7227 496.459 89.532V94.81H493.313V76.844C493.954 76.6707 494.743 76.506 495.679 76.35C496.615 76.194 497.603 76.116 498.643 76.116C499.717 76.116 500.679 76.2807 501.529 76.61C502.378 76.9393 503.097 77.416 503.687 78.04C504.293 78.6467 504.753 79.392 505.065 80.276C505.394 81.1427 505.559 82.122 505.559 83.214ZM521.099 83.188C521.099 84.2627 520.943 85.242 520.631 86.126C520.319 87.01 519.877 87.764 519.305 88.388C518.733 89.012 518.039 89.4973 517.225 89.844C516.427 90.1907 515.543 90.364 514.573 90.364C513.602 90.364 512.718 90.1907 511.921 89.844C511.123 89.4973 510.439 89.012 509.867 88.388C509.295 87.764 508.844 87.01 508.515 86.126C508.203 85.242 508.047 84.2627 508.047 83.188C508.047 82.1133 508.203 81.1427 508.515 80.276C508.844 79.392 509.295 78.638 509.867 78.014C510.456 77.39 511.149 76.9133 511.947 76.584C512.744 76.2373 513.619 76.064 514.573 76.064C515.526 76.064 516.401 76.2373 517.199 76.584C518.013 76.9133 518.707 77.39 519.279 78.014C519.851 78.638 520.293 79.392 520.605 80.276C520.934 81.1427 521.099 82.1133 521.099 83.188ZM517.875 83.188C517.875 81.836 517.58 80.77 516.991 79.99C516.419 79.1927 515.613 78.794 514.573 78.794C513.533 78.794 512.718 79.1927 512.129 79.99C511.557 80.77 511.271 81.836 511.271 83.188C511.271 84.5573 511.557 85.6407 512.129 86.438C512.718 87.2353 513.533 87.634 514.573 87.634C515.613 87.634 516.419 87.2353 516.991 86.438C517.58 85.6407 517.875 84.5573 517.875 83.188ZM523.586 83.214C523.586 82.2087 523.742 81.2727 524.054 80.406C524.366 79.522 524.808 78.7593 525.38 78.118C525.969 77.4767 526.68 76.974 527.512 76.61C528.344 76.246 529.28 76.064 530.32 76.064C531.603 76.064 532.816 76.298 533.96 76.766L533.284 79.34C532.92 79.184 532.504 79.054 532.036 78.95C531.585 78.846 531.1 78.794 530.58 78.794C529.349 78.794 528.413 79.184 527.772 79.964C527.131 80.7267 526.81 81.81 526.81 83.214C526.81 84.566 527.113 85.6407 527.72 86.438C528.327 87.218 529.349 87.608 530.788 87.608C531.325 87.608 531.854 87.556 532.374 87.452C532.894 87.348 533.345 87.218 533.726 87.062L534.168 89.662C533.821 89.8353 533.293 89.9913 532.582 90.13C531.889 90.2687 531.169 90.338 530.424 90.338C529.263 90.338 528.249 90.1647 527.382 89.818C526.533 89.454 525.822 88.96 525.25 88.336C524.695 87.6947 524.279 86.9407 524.002 86.074C523.725 85.19 523.586 84.2367 523.586 83.214ZM547.178 79.028H542.784V90H539.638V79.028H535.27V76.402H547.178V79.028ZM558.549 83.266C558.549 81.862 558.229 80.77 557.587 79.99C556.963 79.21 555.949 78.82 554.545 78.82C554.251 78.82 553.939 78.8373 553.609 78.872C553.297 78.8893 552.985 78.9413 552.673 79.028V86.802C552.951 86.9927 553.315 87.1747 553.765 87.348C554.233 87.504 554.727 87.582 555.247 87.582C556.391 87.582 557.223 87.192 557.743 86.412C558.281 85.632 558.549 84.5833 558.549 83.266ZM561.773 83.214C561.773 84.254 561.635 85.2073 561.357 86.074C561.097 86.9407 560.716 87.686 560.213 88.31C559.711 88.934 559.078 89.4193 558.315 89.766C557.57 90.1127 556.721 90.286 555.767 90.286C555.126 90.286 554.537 90.208 553.999 90.052C553.462 89.896 553.02 89.7227 552.673 89.532V94.81H549.527V76.844C550.169 76.6707 550.957 76.506 551.893 76.35C552.829 76.194 553.817 76.116 554.857 76.116C555.932 76.116 556.894 76.2807 557.743 76.61C558.593 76.9393 559.312 77.416 559.901 78.04C560.508 78.6467 560.967 79.392 561.279 80.276C561.609 81.1427 561.773 82.122 561.773 83.214ZM569.8 87.79C570.77 87.79 571.507 87.738 572.01 87.634V84.15C571.836 84.098 571.585 84.046 571.256 83.994C570.926 83.942 570.562 83.916 570.164 83.916C569.817 83.916 569.462 83.942 569.098 83.994C568.751 84.046 568.43 84.1413 568.136 84.28C567.858 84.4187 567.633 84.618 567.46 84.878C567.286 85.1207 567.2 85.4327 567.2 85.814C567.2 86.5593 567.434 87.0793 567.902 87.374C568.37 87.6513 569.002 87.79 569.8 87.79ZM569.54 76.064C570.58 76.064 571.455 76.194 572.166 76.454C572.876 76.714 573.44 77.078 573.856 77.546C574.289 78.014 574.592 78.586 574.766 79.262C574.956 79.9207 575.052 80.6487 575.052 81.446V89.688C574.566 89.792 573.83 89.9133 572.842 90.052C571.871 90.208 570.77 90.286 569.54 90.286C568.725 90.286 567.98 90.208 567.304 90.052C566.628 89.896 566.047 89.6447 565.562 89.298C565.094 88.9513 564.721 88.5007 564.444 87.946C564.184 87.3913 564.054 86.7067 564.054 85.892C564.054 85.112 564.201 84.4533 564.496 83.916C564.808 83.3787 565.224 82.9453 565.744 82.616C566.264 82.2693 566.862 82.0267 567.538 81.888C568.231 81.732 568.95 81.654 569.696 81.654C570.042 81.654 570.406 81.68 570.788 81.732C571.169 81.7667 571.576 81.836 572.01 81.94V81.42C572.01 81.056 571.966 80.7093 571.88 80.38C571.793 80.0507 571.637 79.7647 571.412 79.522C571.204 79.262 570.918 79.0627 570.554 78.924C570.207 78.7853 569.765 78.716 569.228 78.716C568.5 78.716 567.832 78.768 567.226 78.872C566.619 78.976 566.125 79.0973 565.744 79.236L565.354 76.688C565.752 76.5493 566.333 76.4107 567.096 76.272C567.858 76.1333 568.673 76.064 569.54 76.064ZM590.318 90H587.172V84.306H582.05V90H578.904V76.402H582.05V81.706H587.172V76.402H590.318V90ZM593.562 83.214C593.562 82.2087 593.718 81.2727 594.03 80.406C594.342 79.522 594.784 78.7593 595.356 78.118C595.946 77.4767 596.656 76.974 597.488 76.61C598.32 76.246 599.256 76.064 600.296 76.064C601.579 76.064 602.792 76.298 603.936 76.766L603.26 79.34C602.896 79.184 602.48 79.054 602.012 78.95C601.562 78.846 601.076 78.794 600.556 78.794C599.326 78.794 598.39 79.184 597.748 79.964C597.107 80.7267 596.786 81.81 596.786 83.214C596.786 84.566 597.09 85.6407 597.696 86.438C598.303 87.218 599.326 87.608 600.764 87.608C601.302 87.608 601.83 87.556 602.35 87.452C602.87 87.348 603.321 87.218 603.702 87.062L604.144 89.662C603.798 89.8353 603.269 89.9913 602.558 90.13C601.865 90.2687 601.146 90.338 600.4 90.338C599.239 90.338 598.225 90.1647 597.358 89.818C596.509 89.454 595.798 88.96 595.226 88.336C594.672 87.6947 594.256 86.9407 593.978 86.074C593.701 85.19 593.562 84.2367 593.562 83.214ZM617.154 79.028H612.76V90H609.614V79.028H605.246V76.402H617.154V79.028ZM624.912 90.26C624.409 90.26 623.898 90.2427 623.378 90.208C622.858 90.1733 622.355 90.13 621.87 90.078C621.402 90.026 620.96 89.974 620.544 89.922C620.128 89.8527 619.781 89.7833 619.504 89.714V76.584C619.781 76.5147 620.128 76.454 620.544 76.402C620.96 76.3327 621.402 76.2807 621.87 76.246C622.355 76.194 622.858 76.1593 623.378 76.142C623.898 76.1073 624.409 76.09 624.912 76.09C626.749 76.09 628.179 76.428 629.202 77.104C630.225 77.7627 630.736 78.69 630.736 79.886C630.736 80.51 630.58 81.0647 630.268 81.55C629.956 82.0353 629.549 82.3993 629.046 82.642C629.67 82.8847 630.207 83.266 630.658 83.786C631.109 84.306 631.334 85.0427 631.334 85.996C631.334 87.3653 630.797 88.4227 629.722 89.168C628.647 89.896 627.044 90.26 624.912 90.26ZM624.99 81.862C625.77 81.862 626.411 81.7493 626.914 81.524C627.434 81.2987 627.694 80.848 627.694 80.172C627.694 79.8427 627.607 79.574 627.434 79.366C627.278 79.158 627.061 78.9933 626.784 78.872C626.507 78.7507 626.186 78.6727 625.822 78.638C625.458 78.586 625.077 78.56 624.678 78.56C624.366 78.56 624.002 78.5687 623.586 78.586C623.187 78.6033 622.867 78.6293 622.624 78.664V81.862H624.99ZM622.624 87.66C622.832 87.6947 623.17 87.7293 623.638 87.764C624.123 87.7813 624.574 87.79 624.99 87.79C625.926 87.79 626.697 87.66 627.304 87.4C627.928 87.14 628.24 86.646 628.24 85.918C628.24 85.2073 627.954 84.722 627.382 84.462C626.827 84.1847 626.099 84.046 625.198 84.046H622.624V87.66ZM646.605 83.188C646.605 84.2627 646.449 85.242 646.137 86.126C645.825 87.01 645.383 87.764 644.811 88.388C644.239 89.012 643.545 89.4973 642.731 89.844C641.933 90.1907 641.049 90.364 640.079 90.364C639.108 90.364 638.224 90.1907 637.427 89.844C636.629 89.4973 635.945 89.012 635.373 88.388C634.801 87.764 634.35 87.01 634.021 86.126C633.709 85.242 633.553 84.2627 633.553 83.188C633.553 82.1133 633.709 81.1427 634.021 80.276C634.35 79.392 634.801 78.638 635.373 78.014C635.962 77.39 636.655 76.9133 637.453 76.584C638.25 76.2373 639.125 76.064 640.079 76.064C641.032 76.064 641.907 76.2373 642.705 76.584C643.519 76.9133 644.213 77.39 644.785 78.014C645.357 78.638 645.799 79.392 646.111 80.276C646.44 81.1427 646.605 82.1133 646.605 83.188ZM643.381 83.188C643.381 81.836 643.086 80.77 642.497 79.99C641.925 79.1927 641.119 78.794 640.079 78.794C639.039 78.794 638.224 79.1927 637.635 79.99C637.063 80.77 636.777 81.836 636.777 83.188C636.777 84.5573 637.063 85.6407 637.635 86.438C638.224 87.2353 639.039 87.634 640.079 87.634C641.119 87.634 641.925 87.2353 642.497 86.438C643.086 85.6407 643.381 84.5573 643.381 83.188ZM654.25 87.426H655.81C656.347 86.7153 656.763 85.9267 657.058 85.06C657.37 84.176 657.595 83.2573 657.734 82.304C657.873 81.3333 657.959 80.3453 657.994 79.34C658.029 78.3347 658.055 77.3553 658.072 76.402H667.822V87.426H669.902V93.848H667.094V90H657.032V93.848H654.25V87.426ZM664.676 87.426V79.002H660.984C660.949 79.7127 660.906 80.4407 660.854 81.186C660.802 81.914 660.707 82.642 660.568 83.37C660.429 84.0807 660.239 84.7827 659.996 85.476C659.771 86.152 659.467 86.802 659.086 87.426H664.676ZM678.154 79.002C678.137 79.7647 678.111 80.562 678.076 81.394C678.042 82.2087 677.955 83.0147 677.816 83.812C677.695 84.6093 677.496 85.372 677.218 86.1C676.941 86.828 676.551 87.4867 676.048 88.076C675.563 88.648 674.948 89.1333 674.202 89.532C673.474 89.9133 672.582 90.156 671.524 90.26L671.082 87.634C671.966 87.4607 672.651 87.1833 673.136 86.802C673.622 86.4033 673.994 85.9007 674.254 85.294C674.462 84.8433 674.618 84.332 674.722 83.76C674.844 83.188 674.93 82.59 674.982 81.966C675.052 81.3247 675.095 80.6747 675.112 80.016C675.13 79.3573 675.138 78.716 675.138 78.092V76.402H684.758V90H681.612V79.002H678.154ZM694.776 84.956C694.568 84.956 694.36 84.956 694.152 84.956C693.944 84.956 693.744 84.9473 693.554 84.93C692.999 85.762 692.488 86.62 692.02 87.504C691.552 88.3707 691.118 89.2027 690.72 90H687.496C687.964 88.9253 688.484 87.894 689.056 86.906C689.628 85.918 690.165 85.0773 690.668 84.384C689.818 84.02 689.194 83.5347 688.796 82.928C688.414 82.304 688.224 81.576 688.224 80.744C688.224 79.9813 688.362 79.314 688.64 78.742C688.934 78.1527 689.342 77.6673 689.862 77.286C690.382 76.8873 691.006 76.5927 691.734 76.402C692.462 76.194 693.268 76.09 694.152 76.09C695.174 76.09 696.162 76.1507 697.116 76.272C698.086 76.3933 698.875 76.532 699.482 76.688V90H696.336V84.956H694.776ZM696.336 78.69C696.145 78.6553 695.85 78.6293 695.452 78.612C695.053 78.5773 694.646 78.56 694.23 78.56C692.306 78.56 691.344 79.2707 691.344 80.692C691.344 81.0733 691.413 81.394 691.552 81.654C691.708 81.8967 691.916 82.096 692.176 82.252C692.436 82.408 692.739 82.5207 693.086 82.59C693.432 82.642 693.805 82.668 694.204 82.668H696.336V78.69ZM483.41 134.26C482.907 134.26 482.396 134.243 481.876 134.208C481.356 134.173 480.853 134.13 480.368 134.078C479.9 134.026 479.458 133.974 479.042 133.922C478.626 133.853 478.279 133.783 478.002 133.714V120.584C478.279 120.515 478.626 120.454 479.042 120.402C479.458 120.333 479.9 120.281 480.368 120.246C480.853 120.194 481.356 120.159 481.876 120.142C482.396 120.107 482.907 120.09 483.41 120.09C485.247 120.09 486.677 120.428 487.7 121.104C488.723 121.763 489.234 122.69 489.234 123.886C489.234 124.51 489.078 125.065 488.766 125.55C488.454 126.035 488.047 126.399 487.544 126.642C488.168 126.885 488.705 127.266 489.156 127.786C489.607 128.306 489.832 129.043 489.832 129.996C489.832 131.365 489.295 132.423 488.22 133.168C487.145 133.896 485.542 134.26 483.41 134.26ZM483.488 125.862C484.268 125.862 484.909 125.749 485.412 125.524C485.932 125.299 486.192 124.848 486.192 124.172C486.192 123.843 486.105 123.574 485.932 123.366C485.776 123.158 485.559 122.993 485.282 122.872C485.005 122.751 484.684 122.673 484.32 122.638C483.956 122.586 483.575 122.56 483.176 122.56C482.864 122.56 482.5 122.569 482.084 122.586C481.685 122.603 481.365 122.629 481.122 122.664V125.862H483.488ZM481.122 131.66C481.33 131.695 481.668 131.729 482.136 131.764C482.621 131.781 483.072 131.79 483.488 131.79C484.424 131.79 485.195 131.66 485.802 131.4C486.426 131.14 486.738 130.646 486.738 129.918C486.738 129.207 486.452 128.722 485.88 128.462C485.325 128.185 484.597 128.046 483.696 128.046H481.122V131.66ZM497.589 131.79C498.559 131.79 499.296 131.738 499.799 131.634V128.15C499.625 128.098 499.374 128.046 499.045 127.994C498.715 127.942 498.351 127.916 497.953 127.916C497.606 127.916 497.251 127.942 496.887 127.994C496.54 128.046 496.219 128.141 495.925 128.28C495.647 128.419 495.422 128.618 495.249 128.878C495.075 129.121 494.989 129.433 494.989 129.814C494.989 130.559 495.223 131.079 495.691 131.374C496.159 131.651 496.791 131.79 497.589 131.79ZM497.329 120.064C498.369 120.064 499.244 120.194 499.955 120.454C500.665 120.714 501.229 121.078 501.645 121.546C502.078 122.014 502.381 122.586 502.555 123.262C502.745 123.921 502.841 124.649 502.841 125.446V133.688C502.355 133.792 501.619 133.913 500.631 134.052C499.66 134.208 498.559 134.286 497.329 134.286C496.514 134.286 495.769 134.208 495.093 134.052C494.417 133.896 493.836 133.645 493.351 133.298C492.883 132.951 492.51 132.501 492.233 131.946C491.973 131.391 491.843 130.707 491.843 129.892C491.843 129.112 491.99 128.453 492.285 127.916C492.597 127.379 493.013 126.945 493.533 126.616C494.053 126.269 494.651 126.027 495.327 125.888C496.02 125.732 496.739 125.654 497.485 125.654C497.831 125.654 498.195 125.68 498.577 125.732C498.958 125.767 499.365 125.836 499.799 125.94V125.42C499.799 125.056 499.755 124.709 499.669 124.38C499.582 124.051 499.426 123.765 499.201 123.522C498.993 123.262 498.707 123.063 498.343 122.924C497.996 122.785 497.554 122.716 497.017 122.716C496.289 122.716 495.621 122.768 495.015 122.872C494.408 122.976 493.914 123.097 493.533 123.236L493.143 120.688C493.541 120.549 494.122 120.411 494.885 120.272C495.647 120.133 496.462 120.064 497.329 120.064ZM506.693 120.402H509.839V131.426H514.103V120.402H517.249V131.426H521.513V120.402H524.659V134H506.693V120.402ZM527.902 127.266C527.902 126.07 528.076 125.021 528.422 124.12C528.786 123.219 529.263 122.473 529.852 121.884C530.442 121.277 531.118 120.827 531.88 120.532C532.643 120.22 533.423 120.064 534.22 120.064C536.092 120.064 537.548 120.645 538.588 121.806C539.646 122.967 540.174 124.701 540.174 127.006C540.174 127.179 540.166 127.379 540.148 127.604C540.148 127.812 540.14 128.003 540.122 128.176H531.152C531.239 129.268 531.62 130.117 532.296 130.724C532.99 131.313 533.986 131.608 535.286 131.608C536.049 131.608 536.742 131.539 537.366 131.4C538.008 131.261 538.51 131.114 538.874 130.958L539.29 133.532C539.117 133.619 538.874 133.714 538.562 133.818C538.268 133.905 537.921 133.983 537.522 134.052C537.141 134.139 536.725 134.208 536.274 134.26C535.824 134.312 535.364 134.338 534.896 134.338C533.7 134.338 532.66 134.165 531.776 133.818C530.892 133.454 530.164 132.96 529.592 132.336C529.02 131.695 528.596 130.949 528.318 130.1C528.041 129.233 527.902 128.289 527.902 127.266ZM537.028 125.862C537.028 125.429 536.968 125.021 536.846 124.64C536.725 124.241 536.543 123.903 536.3 123.626C536.075 123.331 535.789 123.106 535.442 122.95C535.113 122.777 534.714 122.69 534.246 122.69C533.761 122.69 533.336 122.785 532.972 122.976C532.608 123.149 532.296 123.383 532.036 123.678C531.794 123.973 531.603 124.311 531.464 124.692C531.326 125.073 531.23 125.463 531.178 125.862H537.028ZM552.532 123.002H546.656V134H543.51V120.402H552.532V123.002ZM567.157 127.188C567.157 128.263 567.001 129.242 566.689 130.126C566.377 131.01 565.935 131.764 565.363 132.388C564.791 133.012 564.098 133.497 563.283 133.844C562.486 134.191 561.602 134.364 560.631 134.364C559.661 134.364 558.777 134.191 557.979 133.844C557.182 133.497 556.497 133.012 555.925 132.388C555.353 131.764 554.903 131.01 554.573 130.126C554.261 129.242 554.105 128.263 554.105 127.188C554.105 126.113 554.261 125.143 554.573 124.276C554.903 123.392 555.353 122.638 555.925 122.014C556.515 121.39 557.208 120.913 558.005 120.584C558.803 120.237 559.678 120.064 560.631 120.064C561.585 120.064 562.46 120.237 563.257 120.584C564.072 120.913 564.765 121.39 565.337 122.014C565.909 122.638 566.351 123.392 566.663 124.276C566.993 125.143 567.157 126.113 567.157 127.188ZM563.933 127.188C563.933 125.836 563.639 124.77 563.049 123.99C562.477 123.193 561.671 122.794 560.631 122.794C559.591 122.794 558.777 123.193 558.187 123.99C557.615 124.77 557.329 125.836 557.329 127.188C557.329 128.557 557.615 129.641 558.187 130.438C558.777 131.235 559.591 131.634 560.631 131.634C561.671 131.634 562.477 131.235 563.049 130.438C563.639 129.641 563.933 128.557 563.933 127.188ZM588.141 116.58C587.968 116.615 587.777 116.649 587.569 116.684C587.378 116.719 587.144 116.753 586.867 116.788C586.59 116.823 586.26 116.866 585.879 116.918C585.515 116.953 585.09 116.996 584.605 117.048C583.86 117.135 583.192 117.282 582.603 117.49C582.014 117.681 581.502 117.967 581.069 118.348C580.636 118.712 580.28 119.18 580.003 119.752C579.726 120.324 579.526 121.017 579.405 121.832C579.942 121.485 580.523 121.217 581.147 121.026C581.788 120.835 582.412 120.74 583.019 120.74C584.822 120.74 586.252 121.312 587.309 122.456C588.366 123.6 588.895 125.255 588.895 127.422C588.895 128.462 588.748 129.407 588.453 130.256C588.158 131.105 587.734 131.833 587.179 132.44C586.624 133.047 585.957 133.523 585.177 133.87C584.397 134.199 583.513 134.364 582.525 134.364C581.294 134.364 580.263 134.165 579.431 133.766C578.599 133.35 577.932 132.769 577.429 132.024C576.926 131.261 576.562 130.351 576.337 129.294C576.112 128.237 575.999 127.058 575.999 125.758C575.999 124.059 576.138 122.56 576.415 121.26C576.71 119.943 577.178 118.816 577.819 117.88C578.478 116.944 579.327 116.19 580.367 115.618C581.424 115.029 582.707 114.621 584.215 114.396C584.995 114.275 585.645 114.179 586.165 114.11C586.702 114.041 587.24 113.945 587.777 113.824L588.141 116.58ZM579.301 124.588C579.266 124.813 579.249 125.091 579.249 125.42C579.249 125.732 579.249 126.027 579.249 126.304C579.249 127.084 579.301 127.803 579.405 128.462C579.509 129.121 579.691 129.684 579.951 130.152C580.211 130.62 580.549 130.984 580.965 131.244C581.381 131.504 581.901 131.634 582.525 131.634C583.062 131.634 583.53 131.53 583.929 131.322C584.328 131.114 584.657 130.819 584.917 130.438C585.177 130.057 585.368 129.615 585.489 129.112C585.628 128.592 585.697 128.029 585.697 127.422C585.697 126.902 585.636 126.408 585.515 125.94C585.411 125.455 585.229 125.03 584.969 124.666C584.726 124.285 584.397 123.981 583.981 123.756C583.565 123.531 583.054 123.418 582.447 123.418C581.858 123.418 581.268 123.522 580.679 123.73C580.107 123.938 579.648 124.224 579.301 124.588ZM604.066 120.402V134H600.946C600.946 133.012 600.946 132.033 600.946 131.062C600.964 130.091 600.972 129.19 600.972 128.358C600.99 127.526 600.998 126.807 600.998 126.2C601.016 125.576 601.024 125.117 601.024 124.822C600.504 125.498 599.967 126.243 599.412 127.058C598.858 127.873 598.303 128.687 597.748 129.502C597.211 130.317 596.7 131.114 596.214 131.894C595.729 132.674 595.304 133.376 594.94 134H592.158V120.402H595.252C595.252 121.407 595.244 122.369 595.226 123.288C595.226 124.189 595.226 125.013 595.226 125.758C595.226 126.503 595.218 127.153 595.2 127.708C595.2 128.263 595.2 128.687 595.2 128.982C595.686 128.237 596.188 127.474 596.708 126.694C597.228 125.897 597.748 125.125 598.268 124.38C598.806 123.617 599.334 122.898 599.854 122.222C600.374 121.546 600.877 120.939 601.362 120.402H604.066ZM607.48 120.818C607.706 120.731 607.983 120.645 608.312 120.558C608.642 120.471 608.997 120.393 609.378 120.324C609.76 120.255 610.158 120.203 610.574 120.168C611.008 120.116 611.441 120.09 611.874 120.09C612.62 120.09 613.33 120.159 614.006 120.298C614.682 120.437 615.272 120.662 615.774 120.974C616.277 121.286 616.676 121.685 616.97 122.17C617.282 122.655 617.438 123.236 617.438 123.912C617.438 124.64 617.239 125.255 616.84 125.758C616.442 126.261 615.982 126.633 615.462 126.876C616.242 127.171 616.84 127.604 617.256 128.176C617.672 128.748 617.88 129.476 617.88 130.36C617.88 131.071 617.724 131.677 617.412 132.18C617.118 132.683 616.702 133.099 616.164 133.428C615.644 133.74 615.029 133.965 614.318 134.104C613.608 134.26 612.836 134.338 612.004 134.338C610.999 134.338 610.063 134.251 609.196 134.078C608.33 133.922 607.645 133.731 607.142 133.506L607.688 130.958C608.018 131.097 608.546 131.261 609.274 131.452C610.002 131.625 610.86 131.712 611.848 131.712C613.755 131.712 614.708 131.157 614.708 130.048C614.708 129.649 614.622 129.329 614.448 129.086C614.275 128.843 614.058 128.661 613.798 128.54C613.538 128.401 613.244 128.315 612.914 128.28C612.585 128.228 612.264 128.202 611.952 128.202H609.352V125.862H611.926C612.568 125.862 613.114 125.749 613.564 125.524C614.032 125.281 614.266 124.865 614.266 124.276C614.266 123.791 614.041 123.409 613.59 123.132C613.157 122.837 612.542 122.69 611.744 122.69C611.398 122.69 611.042 122.716 610.678 122.768C610.314 122.803 609.959 122.855 609.612 122.924C609.283 122.993 608.98 123.071 608.702 123.158C608.425 123.227 608.208 123.297 608.052 123.366L607.48 120.818ZM632.492 134H629.346V128.306H624.224V134H621.078V120.402H624.224V125.706H629.346V120.402H632.492V134ZM635.736 127.266C635.736 126.07 635.91 125.021 636.256 124.12C636.62 123.219 637.097 122.473 637.686 121.884C638.276 121.277 638.952 120.827 639.714 120.532C640.477 120.22 641.257 120.064 642.054 120.064C643.926 120.064 645.382 120.645 646.422 121.806C647.48 122.967 648.008 124.701 648.008 127.006C648.008 127.179 648 127.379 647.982 127.604C647.982 127.812 647.974 128.003 647.956 128.176H638.986C639.073 129.268 639.454 130.117 640.13 130.724C640.824 131.313 641.82 131.608 643.12 131.608C643.883 131.608 644.576 131.539 645.2 131.4C645.842 131.261 646.344 131.114 646.708 130.958L647.124 133.532C646.951 133.619 646.708 133.714 646.396 133.818C646.102 133.905 645.755 133.983 645.356 134.052C644.975 134.139 644.559 134.208 644.108 134.26C643.658 134.312 643.198 134.338 642.73 134.338C641.534 134.338 640.494 134.165 639.61 133.818C638.726 133.454 637.998 132.96 637.426 132.336C636.854 131.695 636.43 130.949 636.152 130.1C635.875 129.233 635.736 128.289 635.736 127.266ZM644.862 125.862C644.862 125.429 644.802 125.021 644.68 124.64C644.559 124.241 644.377 123.903 644.134 123.626C643.909 123.331 643.623 123.106 643.276 122.95C642.947 122.777 642.548 122.69 642.08 122.69C641.595 122.69 641.17 122.785 640.806 122.976C640.442 123.149 640.13 123.383 639.87 123.678C639.628 123.973 639.437 124.311 639.298 124.692C639.16 125.073 639.064 125.463 639.012 125.862H644.862ZM650.59 127.214C650.59 126.209 650.746 125.273 651.058 124.406C651.37 123.522 651.812 122.759 652.384 122.118C652.973 121.477 653.684 120.974 654.516 120.61C655.348 120.246 656.284 120.064 657.324 120.064C658.606 120.064 659.82 120.298 660.964 120.766L660.288 123.34C659.924 123.184 659.508 123.054 659.04 122.95C658.589 122.846 658.104 122.794 657.584 122.794C656.353 122.794 655.417 123.184 654.776 123.964C654.134 124.727 653.814 125.81 653.814 127.214C653.814 128.566 654.117 129.641 654.724 130.438C655.33 131.218 656.353 131.608 657.792 131.608C658.329 131.608 658.858 131.556 659.378 131.452C659.898 131.348 660.348 131.218 660.73 131.062L661.172 133.662C660.825 133.835 660.296 133.991 659.586 134.13C658.892 134.269 658.173 134.338 657.428 134.338C656.266 134.338 655.252 134.165 654.386 133.818C653.536 133.454 652.826 132.96 652.254 132.336C651.699 131.695 651.283 130.941 651.006 130.074C650.728 129.19 650.59 128.237 650.59 127.214ZM668.391 131.79C669.362 131.79 670.099 131.738 670.601 131.634V128.15C670.428 128.098 670.177 128.046 669.847 127.994C669.518 127.942 669.154 127.916 668.755 127.916C668.409 127.916 668.053 127.942 667.689 127.994C667.343 128.046 667.022 128.141 666.727 128.28C666.45 128.419 666.225 128.618 666.051 128.878C665.878 129.121 665.791 129.433 665.791 129.814C665.791 130.559 666.025 131.079 666.493 131.374C666.961 131.651 667.594 131.79 668.391 131.79ZM668.131 120.064C669.171 120.064 670.047 120.194 670.757 120.454C671.468 120.714 672.031 121.078 672.447 121.546C672.881 122.014 673.184 122.586 673.357 123.262C673.548 123.921 673.643 124.649 673.643 125.446V133.688C673.158 133.792 672.421 133.913 671.433 134.052C670.463 134.208 669.362 134.286 668.131 134.286C667.317 134.286 666.571 134.208 665.895 134.052C665.219 133.896 664.639 133.645 664.153 133.298C663.685 132.951 663.313 132.501 663.035 131.946C662.775 131.391 662.645 130.707 662.645 129.892C662.645 129.112 662.793 128.453 663.087 127.916C663.399 127.379 663.815 126.945 664.335 126.616C664.855 126.269 665.453 126.027 666.129 125.888C666.823 125.732 667.542 125.654 668.287 125.654C668.634 125.654 668.998 125.68 669.379 125.732C669.761 125.767 670.168 125.836 670.601 125.94V125.42C670.601 125.056 670.558 124.709 670.471 124.38C670.385 124.051 670.229 123.765 670.003 123.522C669.795 123.262 669.509 123.063 669.145 122.924C668.799 122.785 668.357 122.716 667.819 122.716C667.091 122.716 666.424 122.768 665.817 122.872C665.211 122.976 664.717 123.097 664.335 123.236L663.945 120.688C664.344 120.549 664.925 120.411 665.687 120.272C666.45 120.133 667.265 120.064 668.131 120.064Z" fill="white"/>
</g>
<defs>
<linearGradient id="paint0_linear" x1="730.249" y1="300.359" x2="730.249" y2="245.643" gradientUnits="userSpaceOnUse">
<stop stop-color="#808080" stop-opacity="0.25"/>
<stop offset="0.53514" stop-color="#808080" stop-opacity="0.12"/>
<stop offset="1" stop-color="#808080" stop-opacity="0.1"/>
</linearGradient>
<linearGradient id="paint1_linear" x1="159705" y1="552976" x2="159705" y2="50923.8" gradientUnits="userSpaceOnUse">
<stop stop-color="#808080" stop-opacity="0.25"/>
<stop offset="0.53514" stop-color="#808080" stop-opacity="0.12"/>
<stop offset="1" stop-color="#808080" stop-opacity="0.1"/>
</linearGradient>
<linearGradient id="paint2_linear" x1="2402.36" y1="1676.49" x2="2402.36" y2="1668.41" gradientUnits="userSpaceOnUse">
<stop stop-color="#808080" stop-opacity="0.25"/>
<stop offset="0.53514" stop-color="#808080" stop-opacity="0.12"/>
<stop offset="1" stop-color="#808080" stop-opacity="0.1"/>
</linearGradient>
<linearGradient id="paint3_linear" x1="133338" y1="48538.2" x2="133338" y2="26121.8" gradientUnits="userSpaceOnUse">
<stop stop-color="#808080" stop-opacity="0.25"/>
<stop offset="0.53514" stop-color="#808080" stop-opacity="0.12"/>
<stop offset="1" stop-color="#808080" stop-opacity="0.1"/>
</linearGradient>
<clipPath id="clip0">
<rect width="811" height="671" fill="white"/>
</clipPath>
</defs>
</svg>
