<svg width="811" height="671" viewBox="0 0 811 671" fill="none" xmlns="http://www.w3.org/2000/svg">
<g clip-path="url(#clip0)">
<path d="M123.175 539.78C123.175 580.35 99.0426 594.517 69.276 594.517C68.583 594.517 67.8937 594.51 67.2082 594.491C65.8296 594.461 64.4623 594.401 63.1137 594.304C36.2466 592.406 15.3733 577.508 15.3733 539.78C15.3733 500.737 65.2864 451.47 69.0512 447.812L69.0587 447.808C69.2011 447.666 69.276 447.594 69.276 447.594C69.276 447.594 123.175 499.206 123.175 539.78Z" fill="#3F3D56"/>
<path d="M67.3094 588.31L87.0251 560.78L67.2606 591.331L67.2082 594.491C65.8297 594.461 64.4623 594.401 63.1137 594.304L65.2378 553.715L65.2228 553.4L65.2602 553.341L65.4588 549.507L45.6456 518.877L65.5187 546.631L65.5674 547.444L67.1745 516.776L50.2121 485.128L67.3805 511.389L69.0513 447.812L69.0588 447.594V447.808L68.7815 497.944L85.6652 478.067L68.7103 502.261L68.2646 529.72L84.0319 503.369L68.1972 533.763L67.95 549.027L90.8387 512.347L67.8638 554.355L67.3094 588.31Z" fill="#F2F2F2"/>
<g opacity="0.7">
<path opacity="0.7" d="M748.335 255.413V245.643H699.454V290.832C699.454 293.359 700.458 295.782 702.245 297.568C704.033 299.355 706.457 300.359 708.985 300.359H738.803C741.331 300.359 743.755 299.355 745.543 297.568C747.33 295.782 748.335 293.359 748.335 290.832V280.817C751.705 280.817 754.938 279.479 757.321 277.097C759.705 274.715 761.044 271.484 761.044 268.115C761.044 264.747 759.705 261.516 757.321 259.134C754.938 256.752 751.705 255.413 748.335 255.413ZM748.335 275.932V260.299C750.409 260.299 752.398 261.122 753.865 262.588C755.332 264.054 756.156 266.042 756.156 268.115C756.156 270.188 755.332 272.177 753.865 273.642C752.398 275.108 750.409 275.932 748.335 275.932Z" fill="url(#paint0_linear)"/>
</g>
<path d="M746.762 256.943C744.467 256.943 742.223 257.623 740.315 258.897C738.407 260.171 736.92 261.983 736.041 264.102C735.163 266.221 734.933 268.553 735.381 270.803C735.829 273.052 736.934 275.119 738.557 276.741C740.179 278.363 742.247 279.467 744.498 279.915C746.749 280.362 749.082 280.132 751.202 279.255C753.323 278.377 755.135 276.89 756.41 274.983C757.685 273.076 758.366 270.834 758.366 268.54C758.366 265.464 757.143 262.514 754.967 260.339C752.791 258.164 749.839 256.943 746.762 256.943ZM746.762 275.677C745.349 275.677 743.969 275.258 742.795 274.474C741.62 273.69 740.705 272.575 740.165 271.271C739.624 269.967 739.483 268.532 739.758 267.148C740.034 265.763 740.714 264.492 741.712 263.494C742.711 262.495 743.984 261.816 745.369 261.54C746.754 261.265 748.19 261.406 749.495 261.946C750.799 262.487 751.915 263.401 752.699 264.575C753.484 265.749 753.903 267.129 753.903 268.54C753.903 270.433 753.15 272.248 751.811 273.587C750.472 274.925 748.656 275.677 746.762 275.677Z" fill="white"/>
<path opacity="0.1" d="M746.762 256.943C744.467 256.943 742.223 257.623 740.315 258.897C738.407 260.171 736.92 261.983 736.041 264.102C735.163 266.221 734.933 268.553 735.381 270.803C735.829 273.052 736.934 275.119 738.557 276.741C740.179 278.363 742.247 279.467 744.498 279.915C746.749 280.362 749.082 280.132 751.202 279.255C753.323 278.377 755.135 276.89 756.41 274.983C757.685 273.076 758.366 270.834 758.366 268.54C758.366 265.464 757.143 262.514 754.967 260.339C752.791 258.164 749.839 256.943 746.762 256.943ZM746.762 275.677C745.349 275.677 743.969 275.258 742.795 274.474C741.62 273.69 740.705 272.575 740.165 271.271C739.624 269.967 739.483 268.532 739.758 267.148C740.034 265.763 740.714 264.492 741.712 263.494C742.711 262.495 743.984 261.816 745.369 261.54C746.754 261.265 748.19 261.406 749.495 261.946C750.799 262.487 751.915 263.401 752.699 264.575C753.484 265.749 753.903 267.129 753.903 268.54C753.903 270.433 753.15 272.248 751.811 273.587C750.472 274.925 748.656 275.677 746.762 275.677Z" fill="black"/>
<path d="M702.131 248.022H746.762V289.236C746.762 291.555 745.84 293.779 744.199 295.419C742.559 297.059 740.333 297.98 738.013 297.98H710.88C708.56 297.98 706.334 297.059 704.694 295.419C703.053 293.779 702.131 291.555 702.131 289.236V248.022Z" fill="white"/>
<path opacity="0.1" d="M738.728 248.022V289.282C738.728 291.589 737.811 293.801 736.179 295.432C734.547 297.063 732.334 297.98 730.025 297.98H734.488C736.797 297.98 739.01 297.063 740.642 295.432C742.274 293.801 743.191 291.589 743.191 289.282V248.022H738.728Z" fill="black"/>
<path d="M710.939 214.767C710.557 214.779 710.182 214.875 709.842 215.047C709.501 215.22 709.203 215.466 708.968 215.767C708.382 216.827 709.443 218.023 710.411 218.752C712.2 220.099 714.085 221.421 715.301 223.301C716.516 225.18 716.898 227.803 715.569 229.604C713.834 231.956 709.694 232.462 709.293 235.356C709.036 237.215 710.644 238.8 712.272 239.733C716.292 242.034 721.475 242.648 724.387 246.25C725.592 243.774 728.286 242.343 730.972 241.732C733.657 241.121 736.448 241.167 739.171 240.752C739.615 240.744 740.052 240.631 740.445 240.422C740.838 240.214 741.176 239.916 741.433 239.553C742.194 238.009 740.025 236.157 740.773 234.607C741.343 233.427 743.017 233.519 744.24 233.047C746.231 232.277 747.051 229.717 746.486 227.66C745.921 225.603 744.326 223.995 742.647 222.678C738.125 219.126 732.687 217.037 727.186 215.534C724.628 214.836 721.625 213.74 718.968 213.634C716.403 213.532 713.477 214.333 710.939 214.767Z" fill="#EEEEEE"/>
<path d="M397.692 308.514L304.372 599.077" stroke="#E0E0E0" stroke-width="8" stroke-miterlimit="10"/>
<g opacity="0.7">
<path opacity="0.7" d="M469.995 631.802C458.516 632.467 448.29 642.078 448.29 642.078L443.345 629.819L442.941 629.95C445.357 619.381 494.506 401.517 445.305 382.735C407.499 368.303 367.398 350.443 335.98 351.114V299.648H380.027V297.813H414.898C421.583 293.041 411.87 289.76 401.014 287.709C401.456 287.203 401.846 286.653 402.177 286.068L458.028 185.922C458.028 185.922 470.875 164.828 462.616 154.739C454.357 144.651 442.428 180.419 442.428 180.419L396.545 246.453C396.545 246.453 350.236 198.214 320.778 174.224C317.508 170.986 313.82 168.2 309.811 165.94C304.434 162.304 300.363 160.42 298.356 161.159C298.335 161.167 298.319 161.179 298.299 161.187C293.834 159.952 289.223 159.325 284.591 159.325H280.921V151.8C289.143 149.086 296.665 144.592 302.951 138.639C309.237 132.687 314.131 125.421 317.285 117.361C322.462 108.792 325.623 99.1599 326.531 89.1911C327.439 79.2224 326.069 69.1778 322.525 59.8155C323.073 59.7508 323.6 59.5684 324.071 59.2807C325.732 58.2115 325.897 55.8725 325.737 53.9036C325.134 47.2955 322.929 40.9337 319.314 35.3681C315.699 29.8025 310.782 25.2007 304.988 21.9606C300.339 19.4197 295.014 17.669 291.586 13.6307C288.64 10.1607 287.402 5.30746 283.837 2.47618C279.602 -0.887423 273.484 -0.309176 268.287 1.19171C262.504 2.86406 257.025 5.44813 252.057 8.84641C246.436 12.6943 241.362 17.6379 234.891 19.7677C230.292 21.2811 225.305 21.2509 220.678 22.6726C217.127 23.7973 213.888 25.737 211.221 28.3367C208.554 30.9363 206.533 34.1237 205.319 37.6439C204.141 41.4256 203.695 45.397 204.005 49.3456C201.191 54.0469 198.977 59.0818 197.414 64.3328C197.067 64.5197 196.719 64.7026 196.376 64.8953L197.382 64.4431C193.872 76.284 193.756 88.8713 197.046 100.775C200.336 112.679 206.901 123.422 215.994 131.783C223.18 141.132 233.012 148.107 244.215 151.8V160.903C236.222 162.626 228.598 165.747 221.692 170.122L221.683 170.11C221.683 170.11 221.097 170.472 220.094 171.146C219.994 171.214 219.894 171.281 219.793 171.349C213.003 175.955 190.249 192.786 191.018 210.972C190.988 211.672 190.992 212.373 191.03 213.077C189.787 218.332 189.158 223.714 189.155 229.114V361.096C189.138 375.679 194.041 389.843 203.074 401.296C183.924 405.586 171.72 412.074 171.72 419.335C171.816 419.942 171.816 420.561 171.72 421.169C171.72 434.085 210.34 444.556 257.979 444.556C263.739 444.556 269.366 444.402 274.81 444.11L328.639 487.662L242.379 626.15C242.379 626.15 213.932 648.162 235.956 655.499C257.979 662.836 302.944 668.339 302.944 668.339C302.944 668.339 310.286 655.499 300.191 649.996C290.097 644.493 276.332 647.244 276.332 647.244L278.168 636.239C278.168 636.239 427.745 507.839 396.545 463.816C390.576 455.394 384.607 446.704 378.586 438.149L402.133 440.294L407.491 641.856L408.161 641.638C406.816 645.598 397.303 675.483 418.39 670.425C440.964 665.012 482.038 645.914 482.038 645.914C482.038 645.914 481.474 631.137 469.995 631.802ZM380.027 284.973L335.98 272.192V234.53L383.854 285.323C381.5 285.087 380.027 284.973 380.027 284.973Z" fill="url(#paint1_linear)"/>
</g>
<path d="M262.199 153.367C297.88 153.367 326.805 124.459 326.805 88.7977C326.805 53.1368 297.88 24.228 262.199 24.228C226.519 24.228 197.594 53.1368 197.594 88.7977C197.594 124.459 226.519 153.367 262.199 153.367Z" fill="black"/>
<path d="M335.778 236.77L385.082 289.079C386.12 290.18 387.404 291.022 388.828 291.535C390.252 292.048 391.778 292.218 393.28 292.031C394.783 291.845 396.22 291.307 397.476 290.462C398.732 289.616 399.77 288.486 400.507 287.165L455.119 189.239L439.865 183.859L395 248.428C395 248.428 310.773 160.688 298.989 165.026C287.205 169.363 335.778 236.77 335.778 236.77Z" fill="#F89131"/>
<path d="M241.561 417.924L168.88 606.252" stroke="#BDBDBD" stroke-width="5" stroke-miterlimit="10"/>
<path d="M277.453 417.924L350.135 606.252" stroke="#BDBDBD" stroke-width="5" stroke-miterlimit="10"/>
<path d="M259.507 442.137C306.091 442.137 343.854 431.899 343.854 419.269C343.854 406.639 306.091 396.4 259.507 396.4C212.924 396.4 175.161 406.639 175.161 419.269C175.161 431.899 212.924 442.137 259.507 442.137Z" fill="#44405A"/>
<path d="M259.507 440.344C306.091 440.344 343.854 430.105 343.854 417.475C343.854 404.845 306.091 394.607 259.507 394.607C212.924 394.607 175.161 404.845 175.161 417.475C175.161 430.105 212.924 440.344 259.507 440.344Z" fill="#65617D"/>
<path d="M224.016 459.3L303.597 483.809" stroke="#BDBDBD" stroke-width="5" stroke-miterlimit="10"/>
<path d="M294.999 459.3L215.417 483.809" stroke="#BDBDBD" stroke-width="5" stroke-miterlimit="10"/>
<path d="M260.49 163.232H285.529C298.856 163.232 311.637 168.523 321.06 177.942C330.484 187.36 335.778 200.134 335.778 213.453V346.18H192.21V231.474C192.21 213.375 199.404 196.018 212.209 183.22C225.013 170.422 242.381 163.232 260.49 163.232Z" fill="#EC7505"/>
<path d="M192.21 346.18H335.778V424.201H255.918C239.022 424.201 222.817 417.493 210.87 405.552C198.922 393.611 192.21 377.415 192.21 360.528V346.18Z" fill="#39447A"/>
<path opacity="0.05" d="M194.149 217.075L281.94 300.443H378.848V287.887L295.399 263.674L224.016 175.572C224.016 175.572 191.601 195.587 194.149 217.075Z" fill="black"/>
<path d="M194.149 215.282L281.94 298.649H378.848V286.094L295.399 261.88L224.016 173.778C224.016 173.778 191.601 193.794 194.149 215.282Z" fill="#F89131"/>
<path d="M378.848 286.094C378.848 286.094 425.508 289.681 412.946 298.649H378.848V286.094Z" fill="#FDA57D"/>
<path d="M439.865 183.859C439.865 183.859 451.53 148.883 459.605 158.748C467.681 168.613 455.119 189.239 455.119 189.239L439.865 183.859Z" fill="#FDA57D"/>
<path opacity="0.05" d="M192.21 346.179V350.365L335.778 350.663V346.179H192.21Z" fill="black"/>
<path d="M303.89 429.173L400.464 437.97L405.703 635.061L440.277 623.812C440.277 623.812 491.985 400.51 442.679 381.688C393.372 362.865 340.074 338.08 308.252 358.279C276.43 378.478 303.89 429.173 303.89 429.173Z" fill="#39447A"/>
<path opacity="0.1" d="M309.756 368.6C309.756 368.6 362.697 395.504 369.875 425.995L309.756 368.6Z" fill="black"/>
<path d="M253.227 423.304L328.599 484.287L244.253 619.704L279.248 629.569C279.248 629.569 425.508 504.016 395 460.97C364.492 417.924 333.983 367.703 296.297 366.806C258.61 365.909 253.227 423.304 253.227 423.304Z" fill="#39447A"/>
<path opacity="0.05" d="M371.67 225.111L390.513 257.396L395 248.428L371.67 225.111Z" fill="black"/>
<path d="M244.253 619.704C244.253 619.704 216.437 641.227 237.972 648.401C259.507 655.576 303.475 660.957 303.475 660.957C303.475 660.957 310.654 648.401 300.783 643.021C290.913 637.64 277.453 640.33 277.453 640.33L279.248 629.569L244.253 619.704Z" fill="#333333"/>
<path d="M406.505 634.425C406.505 634.425 394.287 668.291 416.36 662.997C438.434 657.703 478.597 639.03 478.597 639.03C478.597 639.03 478.045 624.58 466.821 625.23C455.597 625.881 445.597 635.278 445.597 635.278L440.762 623.291L406.505 634.425Z" fill="#333333"/>
<path d="M263.994 131.844H263.994C254.083 131.844 246.048 139.874 246.048 149.78V167.716C246.048 177.622 254.083 185.652 263.994 185.652H263.994C273.905 185.652 281.94 177.622 281.94 167.716V149.78C281.94 139.874 273.905 131.844 263.994 131.844Z" fill="#FDA57D"/>
<path opacity="0.05" d="M263.994 133.638C259.234 133.638 254.67 135.527 251.304 138.891C247.939 142.255 246.048 146.817 246.048 151.574V157.668C257.705 161.5 270.283 161.5 281.94 157.668V151.574C281.94 146.817 280.049 142.255 276.684 138.891C273.318 135.527 268.753 133.638 263.994 133.638Z" fill="black"/>
<path d="M263.994 158.748C295.71 158.748 321.421 133.051 321.421 101.353C321.421 69.6544 295.71 43.9576 263.994 43.9576C232.278 43.9576 206.567 69.6544 206.567 101.353C206.567 133.051 232.278 158.748 263.994 158.748Z" fill="#FDA57D"/>
<path opacity="0.05" d="M206.567 98.7485C206.567 98.7485 220.924 102.446 228.999 86.1381C237.075 69.8299 243.356 60.9345 276.556 70.5711C309.756 80.2078 316.435 81.3836 318.031 72.2709C319.121 66.044 307.316 50.9189 299.73 41.9641C296.029 37.5956 289.99 34.9897 283.535 34.9897H246.048L223.615 45.3676L206.567 60.1933L202.978 80.2078L206.567 98.7485Z" fill="black"/>
<path d="M206.567 96.9549C206.567 96.9549 220.924 100.653 228.999 84.3445C237.075 68.0363 243.356 59.1409 276.556 68.7776C309.756 78.4142 316.435 79.59 318.031 70.4774C319.121 64.2504 307.316 49.1253 299.73 40.1705C296.029 35.802 289.99 33.1961 283.535 33.1961H246.048L223.615 43.574L206.567 58.3997L202.978 78.4143L206.567 96.9549Z" fill="black"/>
<path d="M212.399 108.527C215.62 108.527 218.232 103.308 218.232 96.8689C218.232 90.4302 215.62 85.2105 212.399 85.2105C209.178 85.2105 206.567 90.4302 206.567 96.8689C206.567 103.308 209.178 108.527 212.399 108.527Z" fill="#FDA57D"/>
<path d="M208.231 66.8703C206.9 59.3629 205.592 51.4795 208.015 44.25C209.202 40.808 211.178 37.6913 213.786 35.1493C216.394 32.6073 219.561 30.7106 223.033 29.6109C227.558 28.2206 232.435 28.2502 236.931 26.7704C243.259 24.6877 248.22 19.8539 253.716 16.0913C258.574 12.7683 263.932 10.2416 269.587 8.60634C274.668 7.13871 280.65 6.57329 284.792 9.86233C288.277 12.6308 289.488 17.3763 292.369 20.7694C295.721 24.7181 300.928 26.43 305.474 28.9147C311.139 32.0828 315.947 36.5825 319.482 42.0247C323.017 47.4668 325.172 53.6876 325.762 60.1491C325.919 62.0743 325.758 64.3615 324.133 65.407C323.123 65.9202 321.986 66.1277 320.86 66.004C297.908 65.6762 274.929 65.3469 252.072 63.2412C244.966 62.5865 237.847 61.7595 230.716 62.0295C219.68 62.4595 208.904 65.4984 199.271 70.897" fill="black"/>
<path d="M108.844 578.676H29.4172C13.1705 578.676 0 591.839 0 608.077V608.077C0 624.315 13.1705 637.478 29.4172 637.478H108.844C125.09 637.478 138.261 624.315 138.261 608.077C138.261 591.839 125.09 578.676 108.844 578.676Z" fill="white"/>
<path d="M516.734 368.749C517.082 368.737 517.413 368.59 517.656 368.339C517.898 368.088 518.034 367.753 518.034 367.404C518.034 367.055 517.898 366.72 517.656 366.469C517.413 366.218 517.082 366.071 516.734 366.059C516.385 366.071 516.054 366.218 515.812 366.469C515.569 366.72 515.433 367.055 515.433 367.404C515.433 367.753 515.569 368.088 515.812 368.339C516.054 368.59 516.385 368.737 516.734 368.749Z" fill="url(#paint2_linear)"/>
<path d="M714.225 308.514L807.545 640.412" stroke="#E0E0E0" stroke-width="8" stroke-miterlimit="10"/>
<path d="M807.923 298.794H303.994V318.421H807.923V298.794Z" fill="#E0E0E0"/>
<path d="M504.919 294.165H434.032C430.811 294.165 428.2 296.775 428.2 299.994V299.994C428.2 303.214 430.811 305.823 434.032 305.823H504.919C508.14 305.823 510.752 303.214 510.752 299.994C510.752 296.775 508.14 294.165 504.919 294.165Z" fill="#535461"/>
<g opacity="0.7">
<path opacity="0.7" d="M658.304 164.184H503.77C489.786 164.184 478.449 175.514 478.449 189.491V280.662C478.449 294.638 489.786 305.969 503.77 305.969H658.304C672.288 305.969 683.625 294.638 683.625 280.662V189.491C683.625 175.514 672.288 164.184 658.304 164.184Z" fill="url(#paint3_linear)"/>
</g>
<path d="M652.391 166.799H506.186C492.887 166.799 482.107 177.574 482.107 190.865V281.903C482.107 295.194 492.887 305.969 506.186 305.969H652.391C665.689 305.969 676.47 295.194 676.47 281.903V190.865C676.47 177.574 665.689 166.799 652.391 166.799Z" fill="#3E3F49"/>
<path d="M655.083 166.799H508.878C495.579 166.799 484.799 177.574 484.799 190.865V281.903C484.799 295.194 495.579 305.969 508.878 305.969H655.083C668.381 305.969 679.162 295.194 679.162 281.903V190.865C679.162 177.574 668.381 166.799 655.083 166.799Z" fill="#535461"/>
<path d="M591.06 241.702C594.529 241.702 597.341 238.892 597.341 235.425C597.341 231.958 594.529 229.147 591.06 229.147C587.591 229.147 584.779 231.958 584.779 235.425C584.779 238.892 587.591 241.702 591.06 241.702Z" fill="#E0E0E0"/>
<path d="M486.166 57.39C484.814 57.39 483.601 57.182 482.526 56.766C481.451 56.35 480.541 55.7433 479.796 54.946C479.051 54.1313 478.479 53.1433 478.08 51.982C477.681 50.8207 477.482 49.486 477.482 47.978C477.482 46.47 477.707 45.1353 478.158 43.974C478.626 42.8127 479.259 41.8333 480.056 41.036C480.853 40.2213 481.789 39.606 482.864 39.19C483.939 38.774 485.091 38.566 486.322 38.566C487.067 38.566 487.743 38.6267 488.35 38.748C488.957 38.852 489.485 38.9733 489.936 39.112C490.387 39.2507 490.759 39.398 491.054 39.554C491.349 39.71 491.557 39.8227 491.678 39.892L490.716 42.57C490.3 42.31 489.702 42.0673 488.922 41.842C488.159 41.5993 487.327 41.478 486.426 41.478C485.646 41.478 484.918 41.6167 484.242 41.894C483.566 42.154 482.977 42.5527 482.474 43.09C481.989 43.6273 481.607 44.3033 481.33 45.118C481.053 45.9327 480.914 46.8773 480.914 47.952C480.914 48.9053 481.018 49.7807 481.226 50.578C481.451 51.3753 481.789 52.0687 482.24 52.658C482.691 53.23 483.263 53.6807 483.956 54.01C484.649 54.322 485.481 54.478 486.452 54.478C487.613 54.478 488.558 54.3653 489.286 54.14C490.014 53.8973 490.577 53.672 490.976 53.464L491.86 56.142C491.652 56.2807 491.366 56.4193 491.002 56.558C490.655 56.6967 490.239 56.8353 489.754 56.974C489.269 57.0953 488.723 57.1907 488.116 57.26C487.509 57.3467 486.859 57.39 486.166 57.39ZM506.55 50.188C506.55 51.2627 506.394 52.242 506.082 53.126C505.77 54.01 505.328 54.764 504.756 55.388C504.184 56.012 503.491 56.4973 502.676 56.844C501.879 57.1907 500.995 57.364 500.024 57.364C499.053 57.364 498.169 57.1907 497.372 56.844C496.575 56.4973 495.89 56.012 495.318 55.388C494.746 54.764 494.295 54.01 493.966 53.126C493.654 52.242 493.498 51.2627 493.498 50.188C493.498 49.1133 493.654 48.1427 493.966 47.276C494.295 46.392 494.746 45.638 495.318 45.014C495.907 44.39 496.601 43.9133 497.398 43.584C498.195 43.2373 499.071 43.064 500.024 43.064C500.977 43.064 501.853 43.2373 502.65 43.584C503.465 43.9133 504.158 44.39 504.73 45.014C505.302 45.638 505.744 46.392 506.056 47.276C506.385 48.1427 506.55 49.1133 506.55 50.188ZM503.326 50.188C503.326 48.836 503.031 47.77 502.442 46.99C501.87 46.1927 501.064 45.794 500.024 45.794C498.984 45.794 498.169 46.1927 497.58 46.99C497.008 47.77 496.722 48.836 496.722 50.188C496.722 51.5573 497.008 52.6407 497.58 53.438C498.169 54.2353 498.984 54.634 500.024 54.634C501.064 54.634 501.87 54.2353 502.442 53.438C503.031 52.6407 503.326 51.5573 503.326 50.188ZM508.812 43.818C509.038 43.7313 509.315 43.6447 509.644 43.558C509.974 43.4713 510.329 43.3933 510.71 43.324C511.092 43.2547 511.49 43.2027 511.906 43.168C512.34 43.116 512.773 43.09 513.206 43.09C513.952 43.09 514.662 43.1593 515.338 43.298C516.014 43.4367 516.604 43.662 517.106 43.974C517.609 44.286 518.008 44.6847 518.302 45.17C518.614 45.6553 518.77 46.236 518.77 46.912C518.77 47.64 518.571 48.2553 518.172 48.758C517.774 49.2607 517.314 49.6333 516.794 49.876C517.574 50.1707 518.172 50.604 518.588 51.176C519.004 51.748 519.212 52.476 519.212 53.36C519.212 54.0707 519.056 54.6773 518.744 55.18C518.45 55.6827 518.034 56.0987 517.496 56.428C516.976 56.74 516.361 56.9653 515.65 57.104C514.94 57.26 514.168 57.338 513.336 57.338C512.331 57.338 511.395 57.2513 510.528 57.078C509.662 56.922 508.977 56.7313 508.474 56.506L509.02 53.958C509.35 54.0967 509.878 54.2613 510.606 54.452C511.334 54.6253 512.192 54.712 513.18 54.712C515.087 54.712 516.04 54.1573 516.04 53.048C516.04 52.6493 515.954 52.3287 515.78 52.086C515.607 51.8433 515.39 51.6613 515.13 51.54C514.87 51.4013 514.576 51.3147 514.246 51.28C513.917 51.228 513.596 51.202 513.284 51.202H510.684V48.862H513.258C513.9 48.862 514.446 48.7493 514.896 48.524C515.364 48.2813 515.598 47.8653 515.598 47.276C515.598 46.7907 515.373 46.4093 514.922 46.132C514.489 45.8373 513.874 45.69 513.076 45.69C512.73 45.69 512.374 45.716 512.01 45.768C511.646 45.8027 511.291 45.8547 510.944 45.924C510.615 45.9933 510.312 46.0713 510.034 46.158C509.757 46.2273 509.54 46.2967 509.384 46.366L508.812 43.818ZM520.746 54.426H522.306C522.844 53.7153 523.26 52.9267 523.554 52.06C523.866 51.176 524.092 50.2573 524.23 49.304C524.369 48.3333 524.456 47.3453 524.49 46.34C524.525 45.3347 524.551 44.3553 524.568 43.402H534.318V54.426H536.398V60.848H533.59V57H523.528V60.848H520.746V54.426ZM531.172 54.426V46.002H527.48C527.446 46.7127 527.402 47.4407 527.35 48.186C527.298 48.914 527.203 49.642 527.064 50.37C526.926 51.0807 526.735 51.7827 526.492 52.476C526.267 53.152 525.964 53.802 525.582 54.426H531.172ZM543.647 54.79C544.618 54.79 545.355 54.738 545.857 54.634V51.15C545.684 51.098 545.433 51.046 545.103 50.994C544.774 50.942 544.41 50.916 544.011 50.916C543.665 50.916 543.309 50.942 542.945 50.994C542.599 51.046 542.278 51.1413 541.983 51.28C541.706 51.4187 541.481 51.618 541.307 51.878C541.134 52.1207 541.047 52.4327 541.047 52.814C541.047 53.5593 541.281 54.0793 541.749 54.374C542.217 54.6513 542.85 54.79 543.647 54.79ZM543.387 43.064C544.427 43.064 545.303 43.194 546.013 43.454C546.724 43.714 547.287 44.078 547.703 44.546C548.137 45.014 548.44 45.586 548.613 46.262C548.804 46.9207 548.899 47.6487 548.899 48.446V56.688C548.414 56.792 547.677 56.9133 546.689 57.052C545.719 57.208 544.618 57.286 543.387 57.286C542.573 57.286 541.827 57.208 541.151 57.052C540.475 56.896 539.895 56.6447 539.409 56.298C538.941 55.9513 538.569 55.5007 538.291 54.946C538.031 54.3913 537.901 53.7067 537.901 52.892C537.901 52.112 538.049 51.4533 538.343 50.916C538.655 50.3787 539.071 49.9453 539.591 49.616C540.111 49.2693 540.709 49.0267 541.385 48.888C542.079 48.732 542.798 48.654 543.543 48.654C543.89 48.654 544.254 48.68 544.635 48.732C545.017 48.7667 545.424 48.836 545.857 48.94V48.42C545.857 48.056 545.814 47.7093 545.727 47.38C545.641 47.0507 545.485 46.7647 545.259 46.522C545.051 46.262 544.765 46.0627 544.401 45.924C544.055 45.7853 543.613 45.716 543.075 45.716C542.347 45.716 541.68 45.768 541.073 45.872C540.467 45.976 539.973 46.0973 539.591 46.236L539.201 43.688C539.6 43.5493 540.181 43.4107 540.943 43.272C541.706 43.1333 542.521 43.064 543.387 43.064ZM564.166 57H561.02V51.306H555.898V57H552.752V43.402H555.898V48.706H561.02V43.402H564.166V57ZM580.072 43.402V57H576.952C576.952 56.012 576.952 55.0327 576.952 54.062C576.969 53.0913 576.978 52.19 576.978 51.358C576.995 50.526 577.004 49.8067 577.004 49.2C577.021 48.576 577.03 48.1167 577.03 47.822C576.51 48.498 575.973 49.2433 575.418 50.058C574.863 50.8727 574.309 51.6873 573.754 52.502C573.217 53.3167 572.705 54.114 572.22 54.894C571.735 55.674 571.31 56.376 570.946 57H568.164V43.402H571.258C571.258 44.4073 571.249 45.3693 571.232 46.288C571.232 47.1893 571.232 48.0127 571.232 48.758C571.232 49.5033 571.223 50.1533 571.206 50.708C571.206 51.2627 571.206 51.6873 571.206 51.982C571.691 51.2367 572.194 50.474 572.714 49.694C573.234 48.8967 573.754 48.1253 574.274 47.38C574.811 46.6173 575.34 45.898 575.86 45.222C576.38 44.546 576.883 43.9393 577.368 43.402H580.072ZM583.33 50.266C583.33 49.07 583.503 48.0213 583.85 47.12C584.214 46.2187 584.691 45.4733 585.28 44.884C585.869 44.2773 586.545 43.8267 587.308 43.532C588.071 43.22 588.851 43.064 589.648 43.064C591.52 43.064 592.976 43.6447 594.016 44.806C595.073 45.9673 595.602 47.7007 595.602 50.006C595.602 50.1793 595.593 50.3787 595.576 50.604C595.576 50.812 595.567 51.0027 595.55 51.176H586.58C586.667 52.268 587.048 53.1173 587.724 53.724C588.417 54.3133 589.414 54.608 590.714 54.608C591.477 54.608 592.17 54.5387 592.794 54.4C593.435 54.2613 593.938 54.114 594.302 53.958L594.718 56.532C594.545 56.6187 594.302 56.714 593.99 56.818C593.695 56.9047 593.349 56.9827 592.95 57.052C592.569 57.1387 592.153 57.208 591.702 57.26C591.251 57.312 590.792 57.338 590.324 57.338C589.128 57.338 588.088 57.1647 587.204 56.818C586.32 56.454 585.592 55.96 585.02 55.336C584.448 54.6947 584.023 53.9493 583.746 53.1C583.469 52.2333 583.33 51.2887 583.33 50.266ZM592.456 48.862C592.456 48.4287 592.395 48.0213 592.274 47.64C592.153 47.2413 591.971 46.9033 591.728 46.626C591.503 46.3313 591.217 46.106 590.87 45.95C590.541 45.7767 590.142 45.69 589.674 45.69C589.189 45.69 588.764 45.7853 588.4 45.976C588.036 46.1493 587.724 46.3833 587.464 46.678C587.221 46.9727 587.031 47.3107 586.892 47.692C586.753 48.0733 586.658 48.4633 586.606 48.862H592.456ZM610.414 57.26C609.911 57.26 609.4 57.2427 608.88 57.208C608.36 57.1733 607.857 57.13 607.372 57.078C606.904 57.026 606.462 56.974 606.046 56.922C605.63 56.8527 605.283 56.7833 605.006 56.714V43.584C605.283 43.5147 605.63 43.454 606.046 43.402C606.462 43.3327 606.904 43.2807 607.372 43.246C607.857 43.194 608.36 43.1593 608.88 43.142C609.4 43.1073 609.911 43.09 610.414 43.09C612.251 43.09 613.681 43.428 614.704 44.104C615.727 44.7627 616.238 45.69 616.238 46.886C616.238 47.51 616.082 48.0647 615.77 48.55C615.458 49.0353 615.051 49.3993 614.548 49.642C615.172 49.8847 615.709 50.266 616.16 50.786C616.611 51.306 616.836 52.0427 616.836 52.996C616.836 54.3653 616.299 55.4227 615.224 56.168C614.149 56.896 612.546 57.26 610.414 57.26ZM610.492 48.862C611.272 48.862 611.913 48.7493 612.416 48.524C612.936 48.2987 613.196 47.848 613.196 47.172C613.196 46.8427 613.109 46.574 612.936 46.366C612.78 46.158 612.563 45.9933 612.286 45.872C612.009 45.7507 611.688 45.6727 611.324 45.638C610.96 45.586 610.579 45.56 610.18 45.56C609.868 45.56 609.504 45.5687 609.088 45.586C608.689 45.6033 608.369 45.6293 608.126 45.664V48.862H610.492ZM608.126 54.66C608.334 54.6947 608.672 54.7293 609.14 54.764C609.625 54.7813 610.076 54.79 610.492 54.79C611.428 54.79 612.199 54.66 612.806 54.4C613.43 54.14 613.742 53.646 613.742 52.918C613.742 52.2073 613.456 51.722 612.884 51.462C612.329 51.1847 611.601 51.046 610.7 51.046H608.126V54.66ZM624.593 54.79C625.563 54.79 626.3 54.738 626.803 54.634V51.15C626.629 51.098 626.378 51.046 626.049 50.994C625.719 50.942 625.355 50.916 624.957 50.916C624.61 50.916 624.255 50.942 623.891 50.994C623.544 51.046 623.223 51.1413 622.929 51.28C622.651 51.4187 622.426 51.618 622.253 51.878C622.079 52.1207 621.993 52.4327 621.993 52.814C621.993 53.5593 622.227 54.0793 622.695 54.374C623.163 54.6513 623.795 54.79 624.593 54.79ZM624.333 43.064C625.373 43.064 626.248 43.194 626.959 43.454C627.669 43.714 628.233 44.078 628.649 44.546C629.082 45.014 629.385 45.586 629.559 46.262C629.749 46.9207 629.845 47.6487 629.845 48.446V56.688C629.359 56.792 628.623 56.9133 627.635 57.052C626.664 57.208 625.563 57.286 624.333 57.286C623.518 57.286 622.773 57.208 622.097 57.052C621.421 56.896 620.84 56.6447 620.355 56.298C619.887 55.9513 619.514 55.5007 619.237 54.946C618.977 54.3913 618.847 53.7067 618.847 52.892C618.847 52.112 618.994 51.4533 619.289 50.916C619.601 50.3787 620.017 49.9453 620.537 49.616C621.057 49.2693 621.655 49.0267 622.331 48.888C623.024 48.732 623.743 48.654 624.489 48.654C624.835 48.654 625.199 48.68 625.581 48.732C625.962 48.7667 626.369 48.836 626.803 48.94V48.42C626.803 48.056 626.759 47.7093 626.673 47.38C626.586 47.0507 626.43 46.7647 626.205 46.522C625.997 46.262 625.711 46.0627 625.347 45.924C625 45.7853 624.558 45.716 624.021 45.716C623.293 45.716 622.625 45.768 622.019 45.872C621.412 45.976 620.918 46.0973 620.537 46.236L620.147 43.688C620.545 43.5493 621.126 43.4107 621.889 43.272C622.651 43.1333 623.466 43.064 624.333 43.064ZM633.697 43.402H636.843V54.426H641.107V43.402H644.253V54.426H648.517V43.402H651.663V57H633.697V43.402ZM654.906 50.266C654.906 49.07 655.08 48.0213 655.426 47.12C655.79 46.2187 656.267 45.4733 656.856 44.884C657.446 44.2773 658.122 43.8267 658.884 43.532C659.647 43.22 660.427 43.064 661.224 43.064C663.096 43.064 664.552 43.6447 665.592 44.806C666.65 45.9673 667.178 47.7007 667.178 50.006C667.178 50.1793 667.17 50.3787 667.152 50.604C667.152 50.812 667.144 51.0027 667.126 51.176H658.156C658.243 52.268 658.624 53.1173 659.3 53.724C659.994 54.3133 660.99 54.608 662.29 54.608C663.053 54.608 663.746 54.5387 664.37 54.4C665.012 54.2613 665.514 54.114 665.878 53.958L666.294 56.532C666.121 56.6187 665.878 56.714 665.566 56.818C665.272 56.9047 664.925 56.9827 664.526 57.052C664.145 57.1387 663.729 57.208 663.278 57.26C662.828 57.312 662.368 57.338 661.9 57.338C660.704 57.338 659.664 57.1647 658.78 56.818C657.896 56.454 657.168 55.96 656.596 55.336C656.024 54.6947 655.6 53.9493 655.322 53.1C655.045 52.2333 654.906 51.2887 654.906 50.266ZM664.032 48.862C664.032 48.4287 663.972 48.0213 663.85 47.64C663.729 47.2413 663.547 46.9033 663.304 46.626C663.079 46.3313 662.793 46.106 662.446 45.95C662.117 45.7767 661.718 45.69 661.25 45.69C660.765 45.69 660.34 45.7853 659.976 45.976C659.612 46.1493 659.3 46.3833 659.04 46.678C658.798 46.9727 658.607 47.3107 658.468 47.692C658.33 48.0733 658.234 48.4633 658.182 48.862H664.032ZM679.536 46.002H673.66V57H670.514V43.402H679.536V46.002ZM694.161 50.188C694.161 51.2627 694.005 52.242 693.693 53.126C693.381 54.01 692.939 54.764 692.367 55.388C691.795 56.012 691.102 56.4973 690.287 56.844C689.49 57.1907 688.606 57.364 687.635 57.364C686.665 57.364 685.781 57.1907 684.983 56.844C684.186 56.4973 683.501 56.012 682.929 55.388C682.357 54.764 681.907 54.01 681.577 53.126C681.265 52.242 681.109 51.2627 681.109 50.188C681.109 49.1133 681.265 48.1427 681.577 47.276C681.907 46.392 682.357 45.638 682.929 45.014C683.519 44.39 684.212 43.9133 685.009 43.584C685.807 43.2373 686.682 43.064 687.635 43.064C688.589 43.064 689.464 43.2373 690.261 43.584C691.076 43.9133 691.769 44.39 692.341 45.014C692.913 45.638 693.355 46.392 693.667 47.276C693.997 48.1427 694.161 49.1133 694.161 50.188ZM690.937 50.188C690.937 48.836 690.643 47.77 690.053 46.99C689.481 46.1927 688.675 45.794 687.635 45.794C686.595 45.794 685.781 46.1927 685.191 46.99C684.619 47.77 684.333 48.836 684.333 50.188C684.333 51.5573 684.619 52.6407 685.191 53.438C685.781 54.2353 686.595 54.634 687.635 54.634C688.675 54.634 689.481 54.2353 690.053 53.438C690.643 52.6407 690.937 51.5573 690.937 50.188ZM489.676 83.58C489.503 83.6147 489.312 83.6493 489.104 83.684C488.913 83.7187 488.679 83.7533 488.402 83.788C488.125 83.8227 487.795 83.866 487.414 83.918C487.05 83.9527 486.625 83.996 486.14 84.048C485.395 84.1347 484.727 84.282 484.138 84.49C483.549 84.6807 483.037 84.9667 482.604 85.348C482.171 85.712 481.815 86.18 481.538 86.752C481.261 87.324 481.061 88.0173 480.94 88.832C481.477 88.4853 482.058 88.2167 482.682 88.026C483.323 87.8353 483.947 87.74 484.554 87.74C486.357 87.74 487.787 88.312 488.844 89.456C489.901 90.6 490.43 92.2553 490.43 94.422C490.43 95.462 490.283 96.4067 489.988 97.256C489.693 98.1053 489.269 98.8333 488.714 99.44C488.159 100.047 487.492 100.523 486.712 100.87C485.932 101.199 485.048 101.364 484.06 101.364C482.829 101.364 481.798 101.165 480.966 100.766C480.134 100.35 479.467 99.7693 478.964 99.024C478.461 98.2613 478.097 97.3513 477.872 96.294C477.647 95.2367 477.534 94.058 477.534 92.758C477.534 91.0593 477.673 89.56 477.95 88.26C478.245 86.9427 478.713 85.816 479.354 84.88C480.013 83.944 480.862 83.19 481.902 82.618C482.959 82.0287 484.242 81.6213 485.75 81.396C486.53 81.2747 487.18 81.1793 487.7 81.11C488.237 81.0407 488.775 80.9453 489.312 80.824L489.676 83.58ZM480.836 91.588C480.801 91.8133 480.784 92.0907 480.784 92.42C480.784 92.732 480.784 93.0267 480.784 93.304C480.784 94.084 480.836 94.8033 480.94 95.462C481.044 96.1207 481.226 96.684 481.486 97.152C481.746 97.62 482.084 97.984 482.5 98.244C482.916 98.504 483.436 98.634 484.06 98.634C484.597 98.634 485.065 98.53 485.464 98.322C485.863 98.114 486.192 97.8193 486.452 97.438C486.712 97.0567 486.903 96.6147 487.024 96.112C487.163 95.592 487.232 95.0287 487.232 94.422C487.232 93.902 487.171 93.408 487.05 92.94C486.946 92.4547 486.764 92.03 486.504 91.666C486.261 91.2847 485.932 90.9813 485.516 90.756C485.1 90.5307 484.589 90.418 483.982 90.418C483.393 90.418 482.803 90.522 482.214 90.73C481.642 90.938 481.183 91.224 480.836 91.588ZM505.601 87.402V101H502.481C502.481 100.012 502.481 99.0327 502.481 98.062C502.499 97.0913 502.507 96.19 502.507 95.358C502.525 94.526 502.533 93.8067 502.533 93.2C502.551 92.576 502.559 92.1167 502.559 91.822C502.039 92.498 501.502 93.2433 500.947 94.058C500.393 94.8727 499.838 95.6873 499.283 96.502C498.746 97.3167 498.235 98.114 497.749 98.894C497.264 99.674 496.839 100.376 496.475 101H493.693V87.402H496.787C496.787 88.4073 496.779 89.3693 496.761 90.288C496.761 91.1893 496.761 92.0127 496.761 92.758C496.761 93.5033 496.753 94.1533 496.735 94.708C496.735 95.2627 496.735 95.6873 496.735 95.982C497.221 95.2367 497.723 94.474 498.243 93.694C498.763 92.8967 499.283 92.1253 499.803 91.38C500.341 90.6173 500.869 89.898 501.389 89.222C501.909 88.546 502.412 87.9393 502.897 87.402H505.601ZM509.015 87.818C509.241 87.7313 509.518 87.6447 509.847 87.558C510.177 87.4713 510.532 87.3933 510.913 87.324C511.295 87.2547 511.693 87.2027 512.109 87.168C512.543 87.116 512.976 87.09 513.409 87.09C514.155 87.09 514.865 87.1593 515.541 87.298C516.217 87.4367 516.807 87.662 517.309 87.974C517.812 88.286 518.211 88.6847 518.505 89.17C518.817 89.6553 518.973 90.236 518.973 90.912C518.973 91.64 518.774 92.2553 518.375 92.758C517.977 93.2607 517.517 93.6333 516.997 93.876C517.777 94.1707 518.375 94.604 518.791 95.176C519.207 95.748 519.415 96.476 519.415 97.36C519.415 98.0707 519.259 98.6773 518.947 99.18C518.653 99.6827 518.237 100.099 517.699 100.428C517.179 100.74 516.564 100.965 515.853 101.104C515.143 101.26 514.371 101.338 513.539 101.338C512.534 101.338 511.598 101.251 510.731 101.078C509.865 100.922 509.18 100.731 508.677 100.506L509.223 97.958C509.553 98.0967 510.081 98.2613 510.809 98.452C511.537 98.6253 512.395 98.712 513.383 98.712C515.29 98.712 516.243 98.1573 516.243 97.048C516.243 96.6493 516.157 96.3287 515.983 96.086C515.81 95.8433 515.593 95.6613 515.333 95.54C515.073 95.4013 514.779 95.3147 514.449 95.28C514.12 95.228 513.799 95.202 513.487 95.202H510.887V92.862H513.461C514.103 92.862 514.649 92.7493 515.099 92.524C515.567 92.2813 515.801 91.8653 515.801 91.276C515.801 90.7907 515.576 90.4093 515.125 90.132C514.692 89.8373 514.077 89.69 513.279 89.69C512.933 89.69 512.577 89.716 512.213 89.768C511.849 89.8027 511.494 89.8547 511.147 89.924C510.818 89.9933 510.515 90.0713 510.237 90.158C509.96 90.2273 509.743 90.2967 509.587 90.366L509.015 87.818ZM534.027 101H530.881V95.306H525.759V101H522.613V87.402H525.759V92.706H530.881V87.402H534.027V101ZM537.271 94.266C537.271 93.07 537.445 92.0213 537.791 91.12C538.155 90.2187 538.632 89.4733 539.221 88.884C539.811 88.2773 540.487 87.8267 541.249 87.532C542.012 87.22 542.792 87.064 543.589 87.064C545.461 87.064 546.917 87.6447 547.957 88.806C549.015 89.9673 549.543 91.7007 549.543 94.006C549.543 94.1793 549.535 94.3787 549.517 94.604C549.517 94.812 549.509 95.0027 549.491 95.176H540.521C540.608 96.268 540.989 97.1173 541.665 97.724C542.359 98.3133 543.355 98.608 544.655 98.608C545.418 98.608 546.111 98.5387 546.735 98.4C547.377 98.2613 547.879 98.114 548.243 97.958L548.659 100.532C548.486 100.619 548.243 100.714 547.931 100.818C547.637 100.905 547.29 100.983 546.891 101.052C546.51 101.139 546.094 101.208 545.643 101.26C545.193 101.312 544.733 101.338 544.265 101.338C543.069 101.338 542.029 101.165 541.145 100.818C540.261 100.454 539.533 99.96 538.961 99.336C538.389 98.6947 537.965 97.9493 537.687 97.1C537.41 96.2333 537.271 95.2887 537.271 94.266ZM546.397 92.862C546.397 92.4287 546.337 92.0213 546.215 91.64C546.094 91.2413 545.912 90.9033 545.669 90.626C545.444 90.3313 545.158 90.106 544.811 89.95C544.482 89.7767 544.083 89.69 543.615 89.69C543.13 89.69 542.705 89.7853 542.341 89.976C541.977 90.1493 541.665 90.3833 541.405 90.678C541.163 90.9727 540.972 91.3107 540.833 91.692C540.695 92.0733 540.599 92.4633 540.547 92.862H546.397ZM552.125 94.214C552.125 93.2087 552.281 92.2727 552.593 91.406C552.905 90.522 553.347 89.7593 553.919 89.118C554.508 88.4767 555.219 87.974 556.051 87.61C556.883 87.246 557.819 87.064 558.859 87.064C560.142 87.064 561.355 87.298 562.499 87.766L561.823 90.34C561.459 90.184 561.043 90.054 560.575 89.95C560.124 89.846 559.639 89.794 559.119 89.794C557.888 89.794 556.952 90.184 556.311 90.964C555.67 91.7267 555.349 92.81 555.349 94.214C555.349 95.566 555.652 96.6407 556.259 97.438C556.866 98.218 557.888 98.608 559.327 98.608C559.864 98.608 560.393 98.556 560.913 98.452C561.433 98.348 561.884 98.218 562.265 98.062L562.707 100.662C562.36 100.835 561.832 100.991 561.121 101.13C560.428 101.269 559.708 101.338 558.963 101.338C557.802 101.338 556.788 101.165 555.921 100.818C555.072 100.454 554.361 99.96 553.789 99.336C553.234 98.6947 552.818 97.9407 552.541 97.074C552.264 96.19 552.125 95.2367 552.125 94.214ZM569.927 98.79C570.897 98.79 571.634 98.738 572.137 98.634V95.15C571.963 95.098 571.712 95.046 571.383 94.994C571.053 94.942 570.689 94.916 570.291 94.916C569.944 94.916 569.589 94.942 569.225 94.994C568.878 95.046 568.557 95.1413 568.263 95.28C567.985 95.4187 567.76 95.618 567.587 95.878C567.413 96.1207 567.327 96.4327 567.327 96.814C567.327 97.5593 567.561 98.0793 568.029 98.374C568.497 98.6513 569.129 98.79 569.927 98.79ZM569.667 87.064C570.707 87.064 571.582 87.194 572.293 87.454C573.003 87.714 573.567 88.078 573.983 88.546C574.416 89.014 574.719 89.586 574.893 90.262C575.083 90.9207 575.179 91.6487 575.179 92.446V100.688C574.693 100.792 573.957 100.913 572.969 101.052C571.998 101.208 570.897 101.286 569.667 101.286C568.852 101.286 568.107 101.208 567.431 101.052C566.755 100.896 566.174 100.645 565.689 100.298C565.221 99.9513 564.848 99.5007 564.571 98.946C564.311 98.3913 564.181 97.7067 564.181 96.892C564.181 96.112 564.328 95.4533 564.623 94.916C564.935 94.3787 565.351 93.9453 565.871 93.616C566.391 93.2693 566.989 93.0267 567.665 92.888C568.358 92.732 569.077 92.654 569.823 92.654C570.169 92.654 570.533 92.68 570.915 92.732C571.296 92.7667 571.703 92.836 572.137 92.94V92.42C572.137 92.056 572.093 91.7093 572.007 91.38C571.92 91.0507 571.764 90.7647 571.539 90.522C571.331 90.262 571.045 90.0627 570.681 89.924C570.334 89.7853 569.892 89.716 569.355 89.716C568.627 89.716 567.959 89.768 567.353 89.872C566.746 89.976 566.252 90.0973 565.871 90.236L565.481 87.688C565.879 87.5493 566.46 87.4107 567.223 87.272C567.985 87.1333 568.8 87.064 569.667 87.064ZM590.508 101.26C590.005 101.26 589.494 101.243 588.974 101.208C588.454 101.173 587.951 101.13 587.466 101.078C586.998 101.026 586.556 100.974 586.14 100.922C585.724 100.853 585.377 100.783 585.1 100.714V87.584C585.377 87.5147 585.724 87.454 586.14 87.402C586.556 87.3327 586.998 87.2807 587.466 87.246C587.951 87.194 588.454 87.1593 588.974 87.142C589.494 87.1073 590.005 87.09 590.508 87.09C592.345 87.09 593.775 87.428 594.798 88.104C595.82 88.7627 596.332 89.69 596.332 90.886C596.332 91.51 596.176 92.0647 595.864 92.55C595.552 93.0353 595.144 93.3993 594.642 93.642C595.266 93.8847 595.803 94.266 596.254 94.786C596.704 95.306 596.93 96.0427 596.93 96.996C596.93 98.3653 596.392 99.4227 595.318 100.168C594.243 100.896 592.64 101.26 590.508 101.26ZM590.586 92.862C591.366 92.862 592.007 92.7493 592.51 92.524C593.03 92.2987 593.29 91.848 593.29 91.172C593.29 90.8427 593.203 90.574 593.03 90.366C592.874 90.158 592.657 89.9933 592.38 89.872C592.102 89.7507 591.782 89.6727 591.418 89.638C591.054 89.586 590.672 89.56 590.274 89.56C589.962 89.56 589.598 89.5687 589.182 89.586C588.783 89.6033 588.462 89.6293 588.22 89.664V92.862H590.586ZM588.22 98.66C588.428 98.6947 588.766 98.7293 589.234 98.764C589.719 98.7813 590.17 98.79 590.586 98.79C591.522 98.79 592.293 98.66 592.9 98.4C593.524 98.14 593.836 97.646 593.836 96.918C593.836 96.2073 593.55 95.722 592.978 95.462C592.423 95.1847 591.695 95.046 590.794 95.046H588.22V98.66ZM617.879 87.402V101H614.759C614.759 100.012 614.759 99.0327 614.759 98.062C614.776 97.0913 614.785 96.19 614.785 95.358C614.802 94.526 614.811 93.8067 614.811 93.2C614.828 92.576 614.837 92.1167 614.837 91.822C614.317 92.498 613.779 93.2433 613.225 94.058C612.67 94.8727 612.115 95.6873 611.561 96.502C611.023 97.3167 610.512 98.114 610.027 98.894C609.541 99.674 609.117 100.376 608.753 101H605.971V87.402H609.065C609.065 88.4073 609.056 89.3693 609.039 90.288C609.039 91.1893 609.039 92.0127 609.039 92.758C609.039 93.5033 609.03 94.1533 609.013 94.708C609.013 95.2627 609.013 95.6873 609.013 95.982C609.498 95.2367 610.001 94.474 610.521 93.694C611.041 92.8967 611.561 92.1253 612.081 91.38C612.618 90.6173 613.147 89.898 613.667 89.222C614.187 88.546 614.689 87.9393 615.175 87.402H617.879ZM633.305 101H630.159V95.306H625.037V101H621.891V87.402H625.037V92.706H630.159V87.402H633.305V101ZM647.547 90.028H643.153V101H640.007V90.028H635.639V87.402H647.547V90.028ZM649.143 94.266C649.143 93.07 649.316 92.0213 649.663 91.12C650.027 90.2187 650.503 89.4733 651.093 88.884C651.682 88.2773 652.358 87.8267 653.121 87.532C653.883 87.22 654.663 87.064 655.461 87.064C657.333 87.064 658.789 87.6447 659.829 88.806C660.886 89.9673 661.415 91.7007 661.415 94.006C661.415 94.1793 661.406 94.3787 661.389 94.604C661.389 94.812 661.38 95.0027 661.363 95.176H652.393C652.479 96.268 652.861 97.1173 653.537 97.724C654.23 98.3133 655.227 98.608 656.527 98.608C657.289 98.608 657.983 98.5387 658.607 98.4C659.248 98.2613 659.751 98.114 660.115 97.958L660.531 100.532C660.357 100.619 660.115 100.714 659.803 100.818C659.508 100.905 659.161 100.983 658.763 101.052C658.381 101.139 657.965 101.208 657.515 101.26C657.064 101.312 656.605 101.338 656.137 101.338C654.941 101.338 653.901 101.165 653.017 100.818C652.133 100.454 651.405 99.96 650.833 99.336C650.261 98.6947 649.836 97.9493 649.559 97.1C649.281 96.2333 649.143 95.2887 649.143 94.266ZM658.269 92.862C658.269 92.4287 658.208 92.0213 658.087 91.64C657.965 91.2413 657.783 90.9033 657.541 90.626C657.315 90.3313 657.029 90.106 656.683 89.95C656.353 89.7767 655.955 89.69 655.487 89.69C655.001 89.69 654.577 89.7853 654.213 89.976C653.849 90.1493 653.537 90.3833 653.277 90.678C653.034 90.9727 652.843 91.3107 652.705 91.692C652.566 92.0733 652.471 92.4633 652.419 92.862H658.269ZM673.772 94.266C673.772 92.862 673.451 91.77 672.81 90.99C672.186 90.21 671.172 89.82 669.768 89.82C669.473 89.82 669.161 89.8373 668.832 89.872C668.52 89.8893 668.208 89.9413 667.896 90.028V97.802C668.173 97.9927 668.537 98.1747 668.988 98.348C669.456 98.504 669.95 98.582 670.47 98.582C671.614 98.582 672.446 98.192 672.966 97.412C673.503 96.632 673.772 95.5833 673.772 94.266ZM676.996 94.214C676.996 95.254 676.857 96.2073 676.58 97.074C676.32 97.9407 675.939 98.686 675.436 99.31C674.933 99.934 674.301 100.419 673.538 100.766C672.793 101.113 671.943 101.286 670.99 101.286C670.349 101.286 669.759 101.208 669.222 101.052C668.685 100.896 668.243 100.723 667.896 100.532V105.81H664.75V87.844C665.391 87.6707 666.18 87.506 667.116 87.35C668.052 87.194 669.04 87.116 670.08 87.116C671.155 87.116 672.117 87.2807 672.966 87.61C673.815 87.9393 674.535 88.416 675.124 89.04C675.731 89.6467 676.19 90.392 676.502 91.276C676.831 92.1427 676.996 93.122 676.996 94.214ZM691.652 101H688.506V95.306H683.384V101H680.238V87.402H683.384V92.706H688.506V87.402H691.652V101ZM694.896 94.266C694.896 93.07 695.07 92.0213 695.416 91.12C695.78 90.2187 696.257 89.4733 696.846 88.884C697.436 88.2773 698.112 87.8267 698.874 87.532C699.637 87.22 700.417 87.064 701.214 87.064C703.086 87.064 704.542 87.6447 705.582 88.806C706.64 89.9673 707.168 91.7007 707.168 94.006C707.168 94.1793 707.16 94.3787 707.142 94.604C707.142 94.812 707.134 95.0027 707.116 95.176H698.146C698.233 96.268 698.614 97.1173 699.29 97.724C699.984 98.3133 700.98 98.608 702.28 98.608C703.043 98.608 703.736 98.5387 704.36 98.4C705.002 98.2613 705.504 98.114 705.868 97.958L706.284 100.532C706.111 100.619 705.868 100.714 705.556 100.818C705.262 100.905 704.915 100.983 704.516 101.052C704.135 101.139 703.719 101.208 703.268 101.26C702.818 101.312 702.358 101.338 701.89 101.338C700.694 101.338 699.654 101.165 698.77 100.818C697.886 100.454 697.158 99.96 696.586 99.336C696.014 98.6947 695.59 97.9493 695.312 97.1C695.035 96.2333 694.896 95.2887 694.896 94.266ZM704.022 92.862C704.022 92.4287 703.962 92.0213 703.84 91.64C703.719 91.2413 703.537 90.9033 703.294 90.626C703.069 90.3313 702.783 90.106 702.436 89.95C702.107 89.7767 701.708 89.69 701.24 89.69C700.755 89.69 700.33 89.7853 699.966 89.976C699.602 90.1493 699.29 90.3833 699.03 90.678C698.788 90.9727 698.597 91.3107 698.458 91.692C698.32 92.0733 698.224 92.4633 698.172 92.862H704.022ZM720.748 90.028H716.354V101H713.208V90.028H708.84V87.402H720.748V90.028ZM722.344 94.266C722.344 93.07 722.517 92.0213 722.864 91.12C723.228 90.2187 723.704 89.4733 724.294 88.884C724.883 88.2773 725.559 87.8267 726.322 87.532C727.084 87.22 727.864 87.064 728.662 87.064C730.534 87.064 731.99 87.6447 733.03 88.806C734.087 89.9673 734.616 91.7007 734.616 94.006C734.616 94.1793 734.607 94.3787 734.59 94.604C734.59 94.812 734.581 95.0027 734.564 95.176H725.594C725.68 96.268 726.062 97.1173 726.738 97.724C727.431 98.3133 728.428 98.608 729.728 98.608C730.49 98.608 731.184 98.5387 731.808 98.4C732.449 98.2613 732.952 98.114 733.316 97.958L733.732 100.532C733.558 100.619 733.316 100.714 733.004 100.818C732.709 100.905 732.362 100.983 731.964 101.052C731.582 101.139 731.166 101.208 730.716 101.26C730.265 101.312 729.806 101.338 729.338 101.338C728.142 101.338 727.102 101.165 726.218 100.818C725.334 100.454 724.606 99.96 724.034 99.336C723.462 98.6947 723.037 97.9493 722.76 97.1C722.482 96.2333 722.344 95.2887 722.344 94.266ZM731.47 92.862C731.47 92.4287 731.409 92.0213 731.288 91.64C731.166 91.2413 730.984 90.9033 730.742 90.626C730.516 90.3313 730.23 90.106 729.884 89.95C729.554 89.7767 729.156 89.69 728.688 89.69C728.202 89.69 727.778 89.7853 727.414 89.976C727.05 90.1493 726.738 90.3833 726.478 90.678C726.235 90.9727 726.044 91.3107 725.906 91.692C725.767 92.0733 725.672 92.4633 725.62 92.862H731.47Z" fill="white"/>
</g>
<defs>
<linearGradient id="paint0_linear" x1="730.249" y1="300.359" x2="730.249" y2="245.643" gradientUnits="userSpaceOnUse">
<stop stop-color="#808080" stop-opacity="0.25"/>
<stop offset="0.53514" stop-color="#808080" stop-opacity="0.12"/>
<stop offset="1" stop-color="#808080" stop-opacity="0.1"/>
</linearGradient>
<linearGradient id="paint1_linear" x1="159705" y1="552976" x2="159705" y2="50923.8" gradientUnits="userSpaceOnUse">
<stop stop-color="#808080" stop-opacity="0.25"/>
<stop offset="0.53514" stop-color="#808080" stop-opacity="0.12"/>
<stop offset="1" stop-color="#808080" stop-opacity="0.1"/>
</linearGradient>
<linearGradient id="paint2_linear" x1="2402.36" y1="1676.49" x2="2402.36" y2="1668.41" gradientUnits="userSpaceOnUse">
<stop stop-color="#808080" stop-opacity="0.25"/>
<stop offset="0.53514" stop-color="#808080" stop-opacity="0.12"/>
<stop offset="1" stop-color="#808080" stop-opacity="0.1"/>
</linearGradient>
<linearGradient id="paint3_linear" x1="133338" y1="48538.2" x2="133338" y2="26121.8" gradientUnits="userSpaceOnUse">
<stop stop-color="#808080" stop-opacity="0.25"/>
<stop offset="0.53514" stop-color="#808080" stop-opacity="0.12"/>
<stop offset="1" stop-color="#808080" stop-opacity="0.1"/>
</linearGradient>
<clipPath id="clip0">
<rect width="811" height="671" fill="white"/>
</clipPath>
</defs>
</svg>
