<svg width="398" height="298" viewBox="0 0 398 298" fill="none" xmlns="http://www.w3.org/2000/svg">
<g clip-path="url(#clip0)">
<path d="M125.5 63.5H382.5V237.5H125.5V63.5Z" fill="white" stroke="#3F3D56"/>
<path d="M125 63H105V238H125V63Z" fill="#CCCCCC"/>
<path d="M219.015 110.355H165.007V111.011H219.015V110.355Z" fill="#2F2E41"/>
<path d="M342.085 205.361H267.785V135.909H342.085V205.361ZM268.439 204.706H341.431V136.564H268.439V204.706Z" fill="#2F2E41"/>
<path d="M268.335 135.997L267.889 136.476L341.535 205.273L341.982 204.794L268.335 135.997Z" fill="#2F2E41"/>
<path d="M341.536 135.999L267.887 204.792L268.334 205.271L341.983 136.478L341.536 135.999Z" fill="#2F2E41"/>
<path d="M241.272 158.514H165.007V159.169H241.272V158.514Z" fill="#2F2E41"/>
<path d="M241.272 170.308H165.007V170.963H241.272V170.308Z" fill="#2F2E41"/>
<path d="M241.272 182.101H165.007V182.756H241.272V182.101Z" fill="#2F2E41"/>
<path d="M228.532 53.8434C232.351 53.8434 235.448 50.7445 235.448 46.9217C235.448 43.099 232.351 40 228.532 40C224.713 40 221.616 43.099 221.616 46.9217C221.616 50.7445 224.713 53.8434 228.532 53.8434Z" fill="#2F2E41"/>
<path d="M247.982 53.8434C251.801 53.8434 254.898 50.7445 254.898 46.9217C254.898 43.099 251.801 40 247.982 40C244.163 40 241.066 43.099 241.066 46.9217C241.066 50.7445 244.163 53.8434 247.982 53.8434Z" fill="#EC7505"/>
<path d="M267.432 53.8434C271.252 53.8434 274.348 50.7445 274.348 46.9217C274.348 43.099 271.252 40 267.432 40C263.613 40 260.517 43.099 260.517 46.9217C260.517 50.7445 263.613 53.8434 267.432 53.8434Z" fill="#CCCCCC"/>
<path d="M218.622 256.174H-14V257H218.622V256.174Z" fill="#3F3D56"/>
<path d="M54.6556 120.584C57.1689 120.584 59.2063 118.545 59.2063 116.029C59.2063 113.514 57.1689 111.475 54.6556 111.475C52.1424 111.475 50.105 113.514 50.105 116.029C50.105 118.545 52.1424 120.584 54.6556 120.584Z" fill="#7C5C5C"/>
<path d="M64.2649 115.355C71.4769 115.355 77.3234 108.935 77.3234 101.016C77.3234 93.0969 71.4769 86.6772 64.2649 86.6772C57.0529 86.6772 51.2064 93.0969 51.2064 101.016C51.2064 108.935 57.0529 115.355 64.2649 115.355Z" fill="#7C5C5C"/>
<path d="M55.077 162.672L54.7399 164.359C54.7399 164.359 53.7286 165.371 54.2343 165.877C54.7399 166.383 54.5714 168.745 54.5714 168.745L53.5601 175.324L47.6611 201.977C47.6611 201.977 39.9082 207.038 33.8407 216.991C27.7732 226.943 27.6046 229.474 27.6046 229.474L34.3463 232.341L51.2005 211.93C51.2005 211.93 55.9197 209.062 57.6051 206.532C59.2905 204.001 69.7402 177.854 69.7402 177.854L75.6391 205.182C75.6391 205.182 75.302 215.135 76.8189 221.545C77.7516 225.591 78.3157 229.712 78.5043 233.86L86.4258 233.016C86.4258 233.016 85.9202 209.062 85.0775 206.532C85.0775 206.532 88.6169 177.348 81.5381 165.709L77.3246 148.671L70.2458 148.333L55.077 162.672Z" fill="#65617D"/>
<path d="M35.6946 231.667L27.2675 226.438L23.3911 233.86C23.3911 233.86 14.7954 239.089 16.6494 242.969C18.5033 246.849 20.1888 247.861 20.1888 247.861L21.3686 247.355L23.5596 251.404C23.5596 251.404 29.29 259.67 38.5599 255.452C38.9949 254.867 39.2298 254.157 39.2298 253.428C39.2298 252.699 38.9949 251.989 38.5599 251.404C37.043 249.211 33.1665 244.487 33.1665 244.487L35.6946 231.667Z" fill="#2F2E41"/>
<path d="M87.2686 231.835L77.9987 232.51L79.01 240.101C79.01 240.101 74.6279 250.898 77.6617 251.741C79.82 252.299 82.0173 252.694 84.2348 252.922L84.5719 251.741C84.5719 251.741 97.5496 258.826 102.269 253.597C102.269 253.597 103.28 249.885 100.415 248.705C97.5496 247.524 91.9877 244.993 91.3136 243.644C90.6394 242.294 87.2686 231.835 87.2686 231.835Z" fill="#2F2E41"/>
<path d="M64.6839 111.391C69.1519 111.391 72.7739 107.765 72.7739 103.293C72.7739 98.8215 69.1519 95.1963 64.6839 95.1963C60.2159 95.1963 56.5939 98.8215 56.5939 103.293C56.5939 107.765 60.2159 111.391 64.6839 111.391Z" fill="#FFB8B8"/>
<path d="M58.6164 108.186C58.6164 108.186 59.6276 114.764 54.5714 117.295C49.5151 119.825 67.8862 122.862 67.8862 122.862C67.8862 122.862 65.021 118.476 65.5266 116.957C66.0323 115.439 68.5604 109.366 68.5604 109.366L58.6164 108.186Z" fill="#FFB8B8"/>
<path d="M57.2681 117.463C57.2681 117.463 52.3804 114.596 50.6949 115.945C49.0095 117.295 48.5039 158.624 54.5714 160.311L54.7399 162.504C54.7399 162.504 52.5489 163.516 54.5714 163.516C56.5939 163.516 66.0323 156.6 66.3694 154.069C66.7065 151.539 76.4819 151.033 76.4819 151.033C76.4819 151.033 79.01 161.829 79.8527 161.492C80.6955 161.154 80.6955 153.901 80.3584 152.888C80.0213 151.876 84.2349 148.671 83.0551 146.647C81.8753 144.623 78.673 137.706 78.673 137.706C78.673 137.706 79.01 133.32 74.4594 129.272C74.4594 129.272 73.1295 121.736 67.137 121.624C61.1446 121.512 57.2681 117.463 57.2681 117.463Z" fill="#EC7505"/>
<path d="M56.6292 93.4395V102.695H58.7705L61.4958 99.7721L61.1309 102.695H70.5969L70.013 99.7721L71.1809 102.695H72.6895V93.4395H56.6292Z" fill="#7C5C5C"/>
<path d="M76.4325 176.371H6.59888V240.203H76.4325V176.371Z" fill="#39447A"/>
<path d="M47.9498 209.608C42.0627 219.228 44.0881 231.194 44.0881 231.194C44.0881 231.194 55.6584 227.563 61.5455 217.943C67.4326 208.324 65.4072 196.358 65.4072 196.358C65.4072 196.358 53.8369 199.989 47.9498 209.608Z" fill="#2F2E41"/>
<path d="M43.8478 231.273L43.5131 231.22C43.3921 231.201 31.3439 229.203 24.1283 220.562C16.9127 211.921 17.0863 199.699 17.0887 199.577L17.0959 199.238L17.4306 199.291C17.5517 199.31 29.5998 201.308 36.8154 209.949C44.031 218.59 43.8574 230.812 43.855 230.934L43.8478 231.273Z" fill="#CCCCCC"/>
<path d="M44.4554 200.023C48.0479 200.023 50.9602 197.109 50.9602 193.513C50.9602 189.917 48.0479 187.002 44.4554 187.002C40.863 187.002 37.9507 189.917 37.9507 193.513C37.9507 197.109 40.863 200.023 44.4554 200.023Z" fill="#2F2E41"/>
<path d="M44.6274 158.624L46.65 173.638C46.65 173.638 45.4702 186.795 50.0208 186.964C54.5714 187.133 51.7062 173.469 51.7062 173.469L51.2006 159.805C51.2006 159.805 47.4927 153.732 44.6274 158.624Z" fill="#FFB8B8"/>
<path d="M52.2118 116.957C52.2118 116.957 51.032 113.752 48.5039 116.282C45.9757 118.813 43.7847 125.392 43.7847 129.44C43.7847 133.489 44.2903 156.937 44.2903 156.937C44.2903 156.937 41.5937 157.949 43.4476 159.467C45.3016 160.985 47.8297 158.624 47.8297 158.624C47.8297 158.624 51.2006 160.985 51.5376 160.985C51.8747 160.985 51.7062 158.118 51.7062 158.118C51.7062 158.118 53.3916 153.732 53.0545 150.358C52.7174 146.984 52.2118 116.957 52.2118 116.957Z" fill="#EC7505"/>
<path d="M342.085 101.183H164.68V89.0615H342.085V101.183ZM165.335 100.528H341.431V89.7167H165.335V100.528Z" fill="#2F2E41"/>
<path d="M25.1261 193.844H7.66772C9.01542 188.416 8.85282 182.544 7.66772 176.371H25.1261C22.6822 182.195 22.6822 188.02 25.1261 193.844Z" fill="#CCCCCC"/>
<path d="M20.8938 180.077H10.313V182.195H20.8938V180.077Z" fill="#2F2E41"/>
<path d="M20.8938 184.313H10.313V186.431H20.8938V184.313Z" fill="#2F2E41"/>
<path d="M20.8938 188.549H10.313V190.667H20.8938V188.549Z" fill="#2F2E41"/>
<path d="M182.252 125.376H164.793C166.141 119.947 165.978 114.075 164.793 107.902H182.252C179.808 113.726 179.808 119.551 182.252 125.376Z" fill="#CCCCCC"/>
<path d="M178.019 111.608H167.439V113.726H178.019V111.608Z" fill="#EC7505"/>
<path d="M178.019 115.844H167.439V117.962H178.019V115.844Z" fill="#EC7505"/>
<path d="M178.019 120.081H167.439V122.199H178.019V120.081Z" fill="#EC7505"/>
<path d="M313.724 151.764H296.266C297.614 146.336 297.451 140.464 296.266 134.291H313.724C311.28 140.115 311.28 145.94 313.724 151.764Z" fill="#CCCCCC"/>
<path d="M309.492 137.997H298.911V140.115H309.492V137.997Z" fill="#EC7505"/>
<path d="M309.492 142.233H298.911V144.351H309.492V142.233Z" fill="#EC7505"/>
<path d="M309.492 146.469H298.911V148.587H309.492V146.469Z" fill="#EC7505"/>
<path d="M336.171 114.32H318.712C320.06 108.892 319.897 103.02 318.712 96.8467H336.171C333.727 102.671 333.727 108.496 336.171 114.32Z" fill="#CCCCCC"/>
<path d="M331.938 100.553H321.358V102.671H331.938V100.553Z" fill="#EC7505"/>
<path d="M331.938 104.79H321.358V106.908H331.938V104.79Z" fill="#EC7505"/>
<path d="M331.938 109.025H321.358V111.143H331.938V109.025Z" fill="#EC7505"/>
<path d="M119.724 134.112H110.46V124.84H119.724V134.112ZM111.173 133.399H119.011V125.554H111.173V133.399Z" fill="#3F3D56"/>
<path d="M119.9 154.796H110.637V145.524H119.9V154.796ZM111.349 154.083H119.188V146.237H111.349V154.083Z" fill="#3F3D56"/>
<path d="M120.077 175.479H110.813V166.207H120.077V175.479ZM111.526 174.766H119.365V166.92H111.526V174.766Z" fill="#3F3D56"/>
<path d="M110.993 169.238C112.567 169.238 113.843 167.961 113.843 166.386C113.843 164.81 112.567 163.533 110.993 163.533C109.419 163.533 108.143 164.81 108.143 166.386C108.143 167.961 109.419 169.238 110.993 169.238Z" fill="#6C63FF"/>
</g>
<defs>
<clipPath id="clip0">
<rect width="398" height="298" fill="white"/>
</clipPath>
</defs>
</svg>
