<svg width="441" height="298" viewBox="0 0 441 298" fill="none" xmlns="http://www.w3.org/2000/svg">
<line x1="346" y1="79" x2="441" y2="79" stroke="#141313" stroke-width="2"/>
<path d="M392.09 0.279785H5.55272C4.08043 0.281244 2.66883 0.918425 1.62778 2.05143C0.586726 3.18443 0.00129326 4.72067 0 6.32295V291.377C0.00129158 292.98 0.586726 294.516 1.62778 295.649C2.66883 296.782 4.08043 297.419 5.55272 297.42H392.09C392.893 297.421 393.686 297.231 394.415 296.865C395.144 296.499 395.792 295.965 396.313 295.3C396.357 295.248 396.397 295.192 396.434 295.133C396.765 294.692 397.033 294.199 397.23 293.671C397.509 292.945 397.652 292.165 397.65 291.377V6.32299C397.648 4.71957 397.062 3.18243 396.019 2.04929C394.977 0.916152 393.564 0.279694 392.09 0.279785ZM396.064 291.377C396.065 292.22 395.836 293.045 395.408 293.747C395.027 294.366 394.511 294.871 393.905 295.217C393.344 295.532 392.722 295.696 392.09 295.695H5.55272C4.50093 295.693 3.49257 295.238 2.74884 294.429C2.00511 293.619 1.58673 292.522 1.58545 291.377V6.32299C1.58672 5.17833 2.00511 4.08094 2.74884 3.27154C3.49257 2.46213 4.50092 2.0068 5.55272 2.00541H392.09C393.143 2.00526 394.153 2.45989 394.898 3.26942C395.643 4.07895 396.062 5.17721 396.064 6.32299V291.377Z" fill="#3F3D56"/>
<path d="M396.854 24.5005H0.791382V26.2281H396.854V24.5005Z" fill="#3F3D56"/>
<path d="M14.2845 18.4194C16.9146 18.4194 19.0468 16.099 19.0468 13.2367C19.0468 10.3743 16.9146 8.05396 14.2845 8.05396C11.6544 8.05396 9.52222 10.3743 9.52222 13.2367C9.52222 16.099 11.6544 18.4194 14.2845 18.4194Z" fill="#3F3D56"/>
<path d="M27.976 18.4194C30.6061 18.4194 32.7383 16.099 32.7383 13.2367C32.7383 10.3743 30.6061 8.05396 27.976 8.05396C25.3459 8.05396 23.2137 10.3743 23.2137 13.2367C23.2137 16.099 25.3459 18.4194 27.976 18.4194Z" fill="#3F3D56"/>
<path d="M41.6674 18.4194C44.2976 18.4194 46.4297 16.099 46.4297 13.2367C46.4297 10.3743 44.2976 8.05396 41.6674 8.05396C39.0373 8.05396 36.9052 10.3743 36.9052 13.2367C36.9052 16.099 39.0373 18.4194 41.6674 18.4194Z" fill="#3F3D56"/>
<path d="M176.379 171.366C171.616 167.992 169.247 160.151 170.414 152.979C171.581 145.808 175.976 139.631 181.245 136.967C183.808 135.71 186.617 135.166 189.421 135.383C192.225 135.6 194.936 136.571 197.31 138.21C202.141 141.425 208.974 143.186 211.268 149.619C213.032 154.562 210.795 164.601 208.422 169.402C206.371 173.552 202.474 175.45 198.812 176.275C194.761 177.174 190.58 177.116 186.551 176.104C182.523 175.093 178.741 173.151 175.461 170.411L176.379 171.366Z" fill="#2F2E41"/>
<path d="M173.895 209.455L170.087 216.6L169.584 217.543L168.851 218.929H157.625L158.382 217.543L160.344 213.946L164.916 205.547L170.093 207.799L173.895 209.455Z" fill="#FFB8B8"/>
<path d="M156.784 218.929L154.733 217.543L154.479 217.369L167.348 191.845C167.902 190.741 168.651 189.766 169.553 188.979C170.455 188.191 171.491 187.606 172.602 187.258C174.005 186.803 175.49 186.743 176.92 187.084C177.754 187.276 178.556 187.603 179.301 188.055C179.608 188.237 179.903 188.441 180.186 188.664C181.275 189.495 182.169 190.591 182.797 191.866C183.545 193.358 183.915 195.04 183.868 196.739C183.821 198.438 183.359 200.093 182.53 201.534L177.569 210.162L173.328 217.543L172.532 218.929H156.784Z" fill="#2F2E41"/>
<path d="M189.849 180.425C198.487 180.425 205.49 172.805 205.49 163.404C205.49 154.003 198.487 146.383 189.849 146.383C181.211 146.383 174.209 154.003 174.209 163.404C174.209 172.805 181.211 180.425 189.849 180.425Z" fill="#FFB8B8"/>
<path d="M205.55 218.929H170.392L170.552 218.437C170.462 218.139 170.38 217.841 170.303 217.543C170.221 217.231 170.15 216.912 170.087 216.6C169.516 213.699 169.518 210.699 170.093 207.799C172.035 197.417 179.785 188.983 179.785 188.983C179.919 188.872 180.053 188.768 180.186 188.664C181.339 187.746 182.59 186.982 183.912 186.391C189.668 183.792 195.705 184.839 199.761 186.183C201.174 186.648 202.555 187.22 203.894 187.895C204.366 188.138 204.62 188.29 204.62 188.29L205.022 201.603L205.505 217.543L205.55 218.929Z" fill="#EC7505"/>
<path d="M221.814 217.543L219.127 202.67L216.414 187.673C216.301 187.054 216.018 186.486 215.604 186.045C215.189 185.603 214.661 185.309 214.089 185.199L208.409 184.132L203.124 183.141C202.614 183.041 202.089 183.095 201.605 183.296C201.121 183.498 200.697 183.84 200.379 184.285C199.982 184.823 199.764 185.493 199.761 186.183C199.762 186.61 199.842 187.032 199.997 187.424C202.755 194.423 202.806 205.505 202.105 217.543C202.073 218 202.048 218.464 202.016 218.929H222.069L221.814 217.543Z" fill="#2F2E41"/>
<path d="M183.912 186.391C183.795 185.887 183.564 185.422 183.241 185.039C182.918 184.655 182.513 184.365 182.061 184.195C181.61 184.024 181.126 183.979 180.655 184.062C180.183 184.145 179.738 184.355 179.359 184.672L176.92 187.084L166.935 196.98C166.623 197.284 166.38 197.661 166.221 198.082C165.094 201.014 162.897 206.801 160.344 213.946C159.93 215.11 159.503 216.309 159.064 217.542C158.911 218 158.745 218.464 158.58 218.929H175.035C175.169 218.464 175.302 218 175.436 217.542C176.168 215.027 176.881 212.56 177.569 210.162C179.581 203.197 181.396 196.87 182.797 191.866C183.186 190.48 183.54 189.2 183.861 188.027C184.01 187.496 184.028 186.932 183.912 186.391Z" fill="#2F2E41"/>
<path d="M225.507 218.929H226.571L226.424 218.541L226.036 217.543L220.044 202.068L219.127 202.671L211.765 207.515L215.542 217.543L216.064 218.929H222.069H225.507Z" fill="#FFB8B8"/>
<path d="M219.432 189.794C218.622 187.484 217.022 185.605 214.967 184.55C212.913 183.495 210.563 183.345 208.409 184.132C208.134 184.231 207.864 184.347 207.601 184.478C206.092 185.211 204.806 186.396 203.895 187.895C203.522 188.494 203.217 189.138 202.984 189.815C202.571 190.989 202.375 192.242 202.409 193.499C202.443 194.756 202.705 195.994 203.181 197.14L205.022 201.603L211.606 217.543L212.179 218.929H225.507L226.424 218.541L228.806 217.543L229.137 217.404L219.432 189.794Z" fill="#2F2E41"/>
<path d="M202.133 143.855C202.678 144.033 203.262 144.01 203.794 143.79C204.327 143.57 204.777 143.166 205.077 142.639C205.36 142.102 205.527 141.502 205.564 140.884C205.602 140.266 205.509 139.647 205.292 139.075C204.848 137.932 204.149 136.928 203.257 136.154C202.245 135.157 201.012 134.462 199.68 134.138C199.014 133.982 198.326 133.984 197.661 134.143C196.996 134.302 196.37 134.615 195.826 135.06C195.291 135.521 194.895 136.144 194.688 136.85C194.481 137.557 194.472 138.314 194.663 139.026C195.068 140.304 196.165 141.161 197.26 141.799C199.434 143.061 201.831 143.803 204.289 143.973L202.133 143.855Z" fill="#2F2E41"/>
<path d="M205.176 162.895C202.661 163.273 202.984 161.88 201.977 159.344C200.97 156.809 199.622 153.798 197.095 153.542C195.023 153.331 193.317 155.133 191.639 156.471C188.649 158.856 184.618 160.023 181.151 158.593C177.685 157.162 175.276 152.665 176.591 148.893C177.001 147.851 177.602 146.912 178.359 146.134C179.115 145.356 180.011 144.755 180.989 144.368C182.952 143.608 185.038 143.293 187.117 143.442C191.741 143.603 196.276 144.866 200.403 147.143C203.251 148.718 206.023 150.971 207.104 154.242C208.184 157.514 208.895 162.112 205.806 162.997L205.176 162.895Z" fill="#2F2E41"/>
<path d="M200.848 134.856C199.605 132.502 200.631 129.271 202.665 127.698C204.698 126.125 207.426 125.97 209.853 126.601C212.253 127.259 214.452 128.592 216.229 130.467C218.006 132.342 219.299 134.692 219.978 137.282C221.008 141.399 220.396 145.822 221.268 149.982C221.733 152.2 222.61 154.29 223.845 156.125C225.081 157.96 226.648 159.5 228.451 160.651C230.254 161.802 232.254 162.539 234.329 162.817C236.403 163.094 238.508 162.907 240.514 162.266C243.126 161.431 245.78 159.402 246.037 156.452C246.308 159.839 245.598 163.234 244.008 166.16C242.417 169.086 240.026 171.398 237.168 172.772C233.802 174.3 230.048 174.399 226.403 174.298C224.027 174.231 221.597 174.076 219.406 173.075C217.889 172.323 216.526 171.248 215.396 169.915C214.266 168.582 213.392 167.016 212.825 165.311C211.71 161.883 211.408 158.203 211.95 154.614C212.308 151.822 213.022 149.086 213.221 146.275C213.421 143.465 213.042 140.464 211.45 138.241C209.858 136.017 206.817 134.881 204.553 136.252C203.644 136.802 202.91 137.702 201.921 138.057C200.933 138.413 199.532 137.788 199.622 136.66L200.848 134.856Z" fill="#2F2E41"/>
<path d="M307.578 218.929L307.699 217.543L311.291 176.876C312.468 175.873 313.733 174.998 315.067 174.263C322.46 170.209 329.593 172.15 333.451 173.827C334.474 174.262 335.462 174.789 336.406 175.4L338.508 217.543L338.578 218.929H307.578Z" fill="#EC7505"/>
<path d="M324.398 166.053C333.036 166.053 340.038 158.432 340.038 149.031C340.038 139.631 333.036 132.01 324.398 132.01C315.76 132.01 308.757 139.631 308.757 149.031C308.757 158.432 315.76 166.053 324.398 166.053Z" fill="#FFB8B8"/>
<path d="M337.088 159.41C338.251 158.077 339.023 156.397 339.305 154.585C339.588 152.773 339.37 150.91 338.677 149.233C337.984 147.557 336.849 146.142 335.416 145.17C333.982 144.198 332.316 143.711 330.628 143.773C328.465 143.851 326.427 144.815 324.363 145.521C321.235 146.68 317.897 147.007 314.629 146.475C311.342 145.92 308.375 144.013 306.341 141.149C304.405 138.255 303.802 134.24 305.169 130.984C306.747 127.226 310.434 125.155 313.902 123.472C315.3 122.71 316.794 122.176 318.336 121.887C319.108 121.747 319.898 121.782 320.657 121.991C321.416 122.199 322.127 122.575 322.746 123.097C323.721 124.009 324.292 125.38 325.353 126.171C326.546 127.06 328.097 127.037 329.537 127.194C332.78 127.547 335.847 128.967 338.331 131.264C340.815 133.56 342.597 136.626 343.441 140.052C344.285 143.478 344.15 147.102 343.055 150.443C341.96 153.784 339.957 156.683 337.311 158.754L337.088 159.41Z" fill="#2F2E41"/>
<path d="M317.398 181.304L315.067 174.263L314.922 173.824C314.853 173.616 314.741 173.428 314.595 173.274C314.45 173.12 314.274 173.004 314.081 172.934C313.887 172.865 313.682 172.845 313.481 172.874C313.28 172.904 313.087 172.983 312.918 173.106L310.272 175.026C310.272 175.026 293.301 175.026 291.938 186.107C291.919 186.28 291.894 186.474 291.875 186.682C291.874 186.692 291.872 186.701 291.868 186.71C291.696 187.438 288.494 200.91 285.742 217.543C285.666 218 285.59 218.464 285.513 218.929H322.39V218.929C323.59 202.221 322.919 186.686 317.398 181.304Z" fill="#2F2E41"/>
<path d="M361.388 217.543C359.376 200.48 356.497 186.682 356.497 186.682C356.472 186.474 356.446 186.28 356.427 186.107C355.071 175.026 338.1 175.026 338.1 175.026L335.456 173.107C335.286 172.984 335.094 172.905 334.892 172.875C334.691 172.846 334.485 172.866 334.292 172.935C334.099 173.005 333.923 173.121 333.777 173.276C333.632 173.43 333.52 173.618 333.451 173.827L330.974 181.304C325.453 186.686 324.782 202.22 325.982 218.928L325.982 218.929H361.547C361.496 218.464 361.439 218 361.388 217.543Z" fill="#2F2E41"/>
<path d="M62.6776 178.692L58.895 217.542L58.7613 218.928H48.5281C48.649 218.478 48.77 218.014 48.8975 217.542C51.8013 206.704 55.7558 190.882 55.3289 186.689C54.6604 180.147 59.3409 177.964 59.3409 177.964L59.6339 178.026L62.6776 178.692Z" fill="#EC7505"/>
<path d="M79.1814 166.7C87.8193 166.7 94.8218 159.079 94.8218 149.679C94.8218 140.278 87.8193 132.657 79.1814 132.657C70.5434 132.657 63.5409 140.278 63.5409 149.679C63.5409 159.079 70.5434 166.7 79.1814 166.7Z" fill="#A0616A"/>
<path d="M99.4273 210.682C98.6387 212.264 97.9925 213.926 97.498 215.644C97.3133 216.254 97.1351 216.891 96.9694 217.543C96.8484 217.993 96.7402 218.457 96.632 218.929H55.3799C55.4374 218.471 55.4881 218.007 55.5456 217.543C57.6535 199.42 59.3599 181.027 59.6338 178.026C59.6593 177.742 59.6721 177.597 59.6721 177.597C84.3925 163.417 102.433 181.963 102.433 181.963C102.433 181.963 102.459 182.094 102.497 182.351C102.892 184.943 104.904 200.078 99.4273 210.682Z" fill="#EC7505"/>
<path d="M97.4979 215.644L94.7471 209.226L95.4156 183.778L102.497 182.351L102.745 182.302C106.405 184.618 109.238 188.213 110.781 192.504C112.157 196.246 114.774 207.501 116.984 217.542C117.086 218.007 117.188 218.471 117.29 218.928H98.9052L98.3129 217.542L97.4979 215.644Z" fill="#EC7505"/>
<path d="M122.658 104.58H32.2197C30.2798 104.582 28.4201 105.422 27.0484 106.915C25.6767 108.408 24.9051 110.432 24.9027 112.543V210.966C24.9051 213.077 25.6767 215.101 27.0484 216.594C28.4201 218.086 30.2798 218.926 32.2197 218.929H122.658C124.598 218.927 126.458 218.088 127.83 216.595C129.202 215.102 129.973 213.077 129.975 210.966V112.543C129.973 110.431 129.202 108.407 127.83 106.914C126.458 105.421 124.598 104.581 122.658 104.58ZM128.701 210.966C128.7 212.71 128.063 214.382 126.93 215.615C125.797 216.848 124.26 217.541 122.658 217.543H32.2197C30.6177 217.54 29.0819 216.846 27.9491 215.613C26.8163 214.381 26.1788 212.709 26.1763 210.966V112.543C26.1788 110.799 26.8163 109.128 27.9491 107.895C29.0819 106.662 30.6177 105.969 32.2197 105.966H122.658C124.26 105.967 125.797 106.661 126.93 107.894C128.063 109.127 128.7 110.799 128.701 112.543V210.966ZM58.895 217.543L58.7613 218.929H96.6319C96.7401 218.457 96.8483 217.993 96.9693 217.543H58.895Z" fill="#3F3D56"/>
<path d="M244.038 104.58H153.6C151.66 104.582 149.8 105.422 148.429 106.915C147.057 108.408 146.285 110.432 146.283 112.543V210.966C146.285 213.077 147.057 215.101 148.429 216.594C149.8 218.086 151.66 218.926 153.6 218.929H244.038C245.979 218.927 247.839 218.088 249.211 216.595C250.583 215.102 251.354 213.077 251.355 210.966V112.543C251.354 110.431 250.583 108.407 249.211 106.914C247.839 105.421 245.979 104.581 244.038 104.58ZM250.081 210.966C250.08 212.71 249.443 214.382 248.31 215.615C247.177 216.848 245.641 217.541 244.038 217.543H153.6C151.998 217.54 150.462 216.846 149.329 215.613C148.197 214.381 147.559 212.709 147.557 210.966V112.543C147.559 110.799 148.197 109.128 149.329 107.895C150.462 106.662 151.998 105.969 153.6 105.966H244.038C245.641 105.967 247.177 106.661 248.31 107.894C249.443 109.127 250.08 110.799 250.081 112.543V210.966ZM170.303 217.543C170.38 217.841 170.463 218.139 170.552 218.437L170.393 218.929H202.016C202.048 218.464 202.073 218 202.105 217.543H170.303Z" fill="#3F3D56"/>
<path d="M365.425 104.58H274.987C273.047 104.581 271.186 105.421 269.814 106.914C268.442 108.407 267.671 110.431 267.67 112.543V210.966C267.671 213.077 268.442 215.102 269.814 216.595C271.186 218.088 273.047 218.927 274.987 218.929H365.425C367.365 218.926 369.225 218.086 370.596 216.594C371.968 215.101 372.74 213.077 372.742 210.966V112.543C372.74 110.432 371.968 108.408 370.596 106.915C369.225 105.422 367.365 104.582 365.425 104.58ZM371.468 210.966C371.466 212.709 370.829 214.381 369.696 215.613C368.563 216.846 367.027 217.54 365.425 217.543H274.987C273.385 217.541 271.848 216.848 270.715 215.615C269.582 214.382 268.945 212.71 268.944 210.966V112.543C268.945 110.799 269.582 109.127 270.715 107.894C271.848 106.661 273.385 105.967 274.987 105.966H365.425C367.027 105.969 368.563 106.662 369.696 107.895C370.829 109.128 371.466 110.799 371.468 112.543V210.966ZM322.486 217.543C322.454 218 322.422 218.464 322.39 218.929H349.83C349.881 218.471 349.938 218.007 349.989 217.543H322.486Z" fill="#3F3D56"/>
<path d="M303.894 259.124H93.7504C92.3993 259.124 91.1035 258.54 90.1481 257.5C89.1928 256.46 88.656 255.05 88.656 253.58C88.656 252.109 89.1928 250.699 90.1481 249.659C91.1035 248.62 92.3993 248.036 93.7504 248.036H303.894C305.246 248.036 306.541 248.62 307.497 249.659C308.452 250.699 308.989 252.109 308.989 253.58C308.989 255.05 308.452 256.46 307.497 257.5C306.541 258.54 305.246 259.124 303.894 259.124Z" fill="#CCCCCC"/>
<path d="M244.99 75.4726H152.654C151.303 75.4726 150.007 74.8885 149.052 73.8488C148.097 72.8091 147.56 71.3989 147.56 69.9285C147.56 68.4581 148.097 67.0479 149.052 66.0081C150.007 64.9684 151.303 64.3843 152.654 64.3843H244.99C246.341 64.3843 247.637 64.9684 248.593 66.0081C249.548 67.0479 250.085 68.4581 250.085 69.9285C250.085 71.3989 249.548 72.8091 248.593 73.8488C247.637 74.8885 246.341 75.4726 244.99 75.4726Z" fill="#EC7505"/>
<path d="M86.6626 164.508C87.1922 165.077 87.8924 165.418 88.6348 165.47C89.3771 165.522 90.1117 165.28 90.7036 164.79C94.3898 161.816 97.6259 158.115 99.541 153.6C101.735 148.427 101.98 142.078 99.3344 137.161C97.0978 133.005 93.1483 130.322 89.212 128.12C87.6836 127.181 86.0373 126.491 84.3253 126.07C82.5949 125.655 80.7842 125.973 79.2617 126.959C78.5169 127.468 77.9301 128.208 77.5779 129.085C77.2257 129.962 77.1244 130.933 77.2873 131.874C75.3965 129.526 72.9748 127.757 70.2622 126.741C68.554 126.014 66.6836 125.867 64.8969 126.318C62.399 127.089 60.5754 129.504 59.578 132.113C58.7714 134.098 58.4928 136.289 58.7741 138.437C58.9221 139.506 59.2746 140.529 59.8089 141.441C60.3432 142.352 61.0473 143.131 61.8757 143.728C63.9409 145.119 66.5756 145.018 68.9474 144.45C71.3192 143.882 73.6151 142.894 76.0327 142.644C78.4504 142.394 81.1426 143.05 82.614 145.153C83.6502 146.634 83.9163 148.568 84.1488 150.412L85.3586 160.003C85.4576 161.391 85.7832 162.748 86.3201 164.011C86.4131 164.193 86.5283 164.36 86.6626 164.508Z" fill="#2F2E41"/>
</svg>
