<svg width="362" height="297" viewBox="0 0 362 297" fill="none" xmlns="http://www.w3.org/2000/svg">
<g clip-path="url(#clip0)">
<path d="M338.737 297V263.545C338.737 263.545 351.793 287.263 338.737 297Z" fill="#CCCCCC"/>
<path d="M339.544 296.994L314.865 274.37C314.865 274.37 341.19 280.806 339.544 296.994Z" fill="#CCCCCC"/>
<path d="M110.417 10.1903C113.235 10.1903 115.52 7.90913 115.52 5.09516C115.52 2.28118 113.235 0 110.417 0C107.599 0 105.315 2.28118 105.315 5.09516C105.315 7.90913 107.599 10.1903 110.417 10.1903Z" fill="#CCCCCC"/>
<path d="M97.4502 23.1395C100.268 23.1395 102.552 20.8583 102.552 18.0444C102.552 15.2304 100.268 12.9492 97.4502 12.9492C94.6324 12.9492 92.348 15.2304 92.348 18.0444C92.348 20.8583 94.6324 23.1395 97.4502 23.1395Z" fill="#CCCCCC"/>
<path d="M94.2085 252.984C97.0264 252.984 99.3108 250.703 99.3108 247.889C99.3108 245.075 97.0264 242.794 94.2085 242.794C91.3907 242.794 89.1063 245.075 89.1063 247.889C89.1063 250.703 91.3907 252.984 94.2085 252.984Z" fill="#CCCCCC"/>
<path d="M268.635 290.96H263.086L262.768 269.916L268.635 269.584V290.96Z" fill="#FFB8B8"/>
<path d="M270.056 296.336L252.151 296.336V296.105C252.153 294.26 252.889 292.49 254.195 291.186C255.502 289.881 257.274 289.147 259.122 289.145H270.056V296.336Z" fill="#65617D"/>
<path d="M300.403 284.575L295.315 286.789L286.603 267.625L291.849 264.98L300.403 284.575Z" fill="#FFB8B8"/>
<path d="M287.444 296.082L287.352 295.87C286.986 295.032 286.789 294.13 286.772 293.216C286.755 292.302 286.919 291.394 287.254 290.543C287.588 289.692 288.087 288.916 288.723 288.258C289.358 287.6 290.117 287.073 290.956 286.708L300.979 282.344L303.857 288.937L287.444 296.082Z" fill="#65617D"/>
<path d="M278.496 124.848C285.137 124.848 290.521 119.472 290.521 112.84C290.521 106.208 285.137 100.832 278.496 100.832C271.855 100.832 266.472 106.208 266.472 112.84C266.472 119.472 271.855 124.848 278.496 124.848Z" fill="#FFB8B8"/>
<path d="M300.02 274.529L284.478 236.614L292.027 201.139L277.706 200.363L269.824 240.051L289.696 279.406L300.02 274.529Z" fill="#65617D"/>
<path d="M283.035 194.044L275.708 239.386L273.505 282.845L260.857 282.734L260.388 199.587L283.035 194.044Z" fill="#65617D"/>
<path d="M293.086 196.629L292.365 203.197L256.512 204.799L258.939 194.924L293.086 196.629Z" fill="#F89131"/>
<path d="M258.994 209.027C258.651 208.596 258.397 208.101 258.247 207.571C258.097 207.041 258.054 206.487 258.12 205.94C258.187 205.394 258.361 204.866 258.633 204.387C258.904 203.908 259.269 203.488 259.705 203.15C259.887 203.009 260.081 202.883 260.284 202.773L274.346 150.001L282.682 153.659L266.162 204.655C266.556 205.51 266.648 206.472 266.425 207.386C266.202 208.299 265.676 209.111 264.933 209.688C264.055 210.381 262.939 210.7 261.827 210.576C260.715 210.452 259.697 209.896 258.994 209.027V209.027Z" fill="#FFB8B8"/>
<path d="M267.882 136.406L269.54 132.985C269.54 132.985 277.707 125.935 286.321 130.161L287.648 134.11L294.673 145.439L293.086 197.766C293.086 197.766 263.777 195.541 256.512 198.192L259.705 156.728L267.882 136.406Z" fill="#EC7505"/>
<path d="M269.407 202.815L257.032 199.359L268.477 163.64L269.513 143.697C269.573 142.69 269.844 141.707 270.308 140.81C270.772 139.914 271.42 139.125 272.209 138.495C273.159 137.726 274.259 137.161 275.438 136.836C276.618 136.512 277.851 136.434 279.062 136.608C283.106 137.161 286.081 140.249 286.135 143.951L286.135 143.969L286.133 143.987L282.158 171.939L280.884 176.489L269.407 202.815Z" fill="#F89131"/>
<path d="M283.947 122.252L286.684 122.943L290.833 118.539C290.833 118.539 298.457 100.877 281.605 98.1744C264.753 95.4716 268.434 102.295 266.181 106.574L273.067 108.362L279.264 114.688C279.264 114.688 283.308 111.73 284.498 114.413C285.687 117.096 283.947 122.252 283.947 122.252Z" fill="#65617D"/>
<path d="M188.065 224.688H0V36.8838H188.065V224.688Z" fill="white"/>
<path d="M188.065 224.688H0V36.8838H188.065V224.688ZM2.77864 221.913H185.286V39.6586H2.77864V221.913Z" fill="#CCCCCC"/>
<path d="M159.388 117.618H38.7764V121.87H159.388V117.618Z" fill="#EC7505"/>
<path d="M159.388 128.673H38.7764V132.925H159.388V128.673Z" fill="#EC7505"/>
<path d="M159.388 139.728H38.7764V143.979H159.388V139.728Z" fill="#EC7505"/>
<path d="M31.4553 123.142C32.9899 123.142 34.2339 121.9 34.2339 120.367C34.2339 118.835 32.9899 117.592 31.4553 117.592C29.9207 117.592 28.6766 118.835 28.6766 120.367C28.6766 121.9 29.9207 123.142 31.4553 123.142Z" fill="#EC7505"/>
<path d="M159.388 69.9844H38.7764V74.2361H159.388V69.9844Z" fill="#CCCCCC"/>
<path d="M159.388 81.0391H38.7764V85.2908H159.388V81.0391Z" fill="#CCCCCC"/>
<path d="M159.388 92.0938H38.7764V96.3455H159.388V92.0938Z" fill="#CCCCCC"/>
<path d="M31.4553 75.0457C32.9899 75.0457 34.2339 73.8033 34.2339 72.2709C34.2339 70.7384 32.9899 69.4961 31.4553 69.4961C29.9207 69.4961 28.6766 70.7384 28.6766 72.2709C28.6766 73.8033 29.9207 75.0457 31.4553 75.0457Z" fill="#CCCCCC"/>
<path d="M159.388 165.715H38.7764V169.967H159.388V165.715Z" fill="#CCCCCC"/>
<path d="M159.388 176.769H38.7764V181.021H159.388V176.769Z" fill="#CCCCCC"/>
<path d="M159.388 187.824H38.7764V192.076H159.388V187.824Z" fill="#CCCCCC"/>
<path d="M31.4553 170.776C32.9899 170.776 34.2339 169.533 34.2339 168.001C34.2339 166.468 32.9899 165.226 31.4553 165.226C29.9207 165.226 28.6766 166.468 28.6766 168.001C28.6766 169.533 29.9207 170.776 31.4553 170.776Z" fill="#CCCCCC"/>
<path d="M361.537 296.881H223.068C222.945 296.881 222.827 296.832 222.74 296.746C222.654 296.659 222.605 296.541 222.605 296.419C222.605 296.296 222.654 296.178 222.74 296.092C222.827 296.005 222.945 295.956 223.068 295.956H361.537C361.66 295.956 361.777 296.005 361.864 296.092C361.951 296.178 362 296.296 362 296.419C362 296.541 361.951 296.659 361.864 296.746C361.777 296.832 361.66 296.881 361.537 296.881Z" fill="#CBCBCB"/>
</g>
<defs>
<clipPath id="clip0">
<rect width="362" height="297" fill="white"/>
</clipPath>
</defs>
</svg>
