<svg width="441" height="298" viewBox="0 0 441 298" fill="none" xmlns="http://www.w3.org/2000/svg">
<line x1="346" y1="69" x2="441" y2="69" stroke="#141313" stroke-width="2"/>
<g clip-path="url(#clip0)">
<path d="M391.042 195.178H238.936C238.151 195.177 237.4 194.804 236.845 194.142C236.291 193.48 235.979 192.582 235.978 191.646V3.53187C235.979 2.59548 236.291 1.69774 236.845 1.03562C237.4 0.373488 238.151 0.00104624 238.936 0H391.042C391.826 0.00104461 392.578 0.373488 393.133 1.03562C393.687 1.69774 393.999 2.59548 394 3.53187V191.646C393.999 192.582 393.687 193.48 393.133 194.142C392.578 194.804 391.826 195.177 391.042 195.178ZM238.936 1.23141C238.425 1.2321 237.935 1.4747 237.574 1.90597C237.213 2.33724 237.01 2.92196 237.009 3.53187V191.646C237.01 192.256 237.213 192.84 237.574 193.272C237.935 193.703 238.425 193.946 238.936 193.946H391.042C391.553 193.946 392.043 193.703 392.404 193.272C392.765 192.84 392.968 192.256 392.969 191.646V3.53187C392.968 2.92196 392.765 2.33724 392.404 1.90597C392.043 1.4747 391.553 1.2321 391.042 1.23141H238.936Z" fill="#3F3D56"/>
<path d="M356.607 78.966C360.608 86.5079 362.073 95.1817 360.778 103.656C359.482 112.13 355.497 119.935 349.435 125.874C343.373 131.814 335.569 135.558 327.221 136.532C318.872 137.507 310.441 135.657 303.222 131.269C296.003 126.88 290.395 120.194 287.258 112.237C284.122 104.28 283.631 95.4928 285.86 87.2237C288.089 78.9545 292.916 71.6608 299.6 66.4622C306.283 61.2636 314.453 58.4476 322.856 58.4465C323.16 58.4465 323.463 58.4511 323.766 58.4583L323.36 41.7265C323.192 41.725 323.024 41.72 322.856 41.72C310.766 41.7235 299.017 45.812 289.443 53.3472C279.869 60.8825 273.008 71.4408 269.931 83.3743C266.854 95.3079 267.734 107.945 272.434 119.315C277.133 130.684 285.388 140.146 295.91 146.223C306.432 152.301 318.629 154.652 330.598 152.911C342.567 151.169 353.634 145.432 362.073 136.595C370.512 127.759 375.847 116.319 377.246 104.062C378.646 91.8053 376.03 79.4203 369.809 68.8399L356.607 78.966Z" fill="#EC7505"/>
<path d="M356.83 78.97L370.166 68.8411C365.296 60.6392 358.424 53.8383 350.208 49.0896C341.993 44.3409 332.708 41.8033 323.244 41.72L323.654 58.4565C330.482 58.6181 337.146 60.6005 342.972 64.2029C348.799 67.8052 353.579 72.8995 356.83 78.97Z" fill="#E6E6E6"/>
<path d="M338.667 145.265L338.091 145.946L354.425 165.634L355.001 164.953L338.667 145.265Z" fill="#3F3D56"/>
<path d="M349.153 24.7449L337.8 48.9165L338.506 49.3898L349.86 25.2182L349.153 24.7449Z" fill="#3F3D56"/>
<path d="M366.936 172.899H342.83C342.402 172.898 341.991 172.695 341.688 172.333C341.385 171.971 341.214 171.481 341.214 170.969V166.916C341.214 166.404 341.385 165.913 341.688 165.552C341.991 165.19 342.402 164.987 342.83 164.986H366.936C367.364 164.987 367.775 165.19 368.078 165.552C368.381 165.913 368.552 166.404 368.552 166.916V170.969C368.552 171.481 368.381 171.971 368.078 172.333C367.775 172.695 367.364 172.898 366.936 172.899Z" fill="#EC7505"/>
<path d="M360.825 25.3269H336.719C336.29 25.3262 335.879 25.1227 335.576 24.761C335.274 24.3993 335.103 23.9089 335.103 23.3974V19.3433C335.103 18.8318 335.274 18.3413 335.576 17.9796C335.879 17.6179 336.29 17.4144 336.719 17.4138H360.825C361.253 17.4144 361.664 17.6179 361.967 17.9796C362.27 18.3413 362.44 18.8318 362.441 19.3433V23.3974C362.44 23.9089 362.27 24.3993 361.967 24.761C361.664 25.1228 361.253 25.3262 360.825 25.3269Z" fill="#E6E6E6"/>
<path d="M211.663 89.8141H39.7679C39.0208 89.8131 38.3046 89.4583 37.7763 88.8275C37.2481 88.1967 36.9509 87.3415 36.9501 86.4494V3.98044C36.9509 3.08837 37.2481 2.23313 37.7763 1.60234C38.3046 0.971557 39.0208 0.616735 39.7679 0.615723H211.663C212.41 0.616766 213.126 0.971597 213.654 1.60238C214.183 2.23317 214.48 3.0884 214.481 3.98044V86.4494C214.48 87.3414 214.183 88.1967 213.654 88.8275C213.126 89.4582 212.41 89.8131 211.663 89.8141ZM39.7679 1.84713C39.2942 1.84774 38.8401 2.0727 38.5052 2.47264C38.1702 2.87258 37.9818 3.41484 37.9813 3.98044V86.4494C37.9818 87.015 38.1702 87.5573 38.5052 87.9572C38.8401 88.3571 39.2942 88.5821 39.7679 88.5827H211.663C212.137 88.5821 212.591 88.3571 212.926 87.9572C213.261 87.5572 213.449 87.015 213.449 86.4494V3.98044C213.449 3.41486 213.261 2.87262 212.926 2.47269C212.591 2.07275 212.137 1.84777 211.663 1.84713H39.7679Z" fill="#3F3D56"/>
<path d="M106.775 69.347H90.1205C89.6949 69.3461 89.2835 69.1648 88.9594 68.8355C88.6353 68.5061 88.4196 68.0501 88.3507 67.5486C87.2643 59.1234 87.2643 50.5491 88.3507 42.1239C88.4196 41.6224 88.6353 41.1664 88.9594 40.837C89.2835 40.5077 89.6949 40.3264 90.1205 40.3254H106.775C107.045 40.3244 107.311 40.397 107.554 40.5375C107.797 40.678 108.01 40.8828 108.177 41.1363C108.347 41.3934 108.466 41.6935 108.524 42.0137C108.583 42.3339 108.579 42.6659 108.514 42.9843C106.956 50.7761 106.956 58.8964 108.514 66.6882C108.579 67.0066 108.583 67.3385 108.524 67.6588C108.466 67.979 108.347 68.2791 108.177 68.5362C108.01 68.7897 107.797 68.9945 107.554 69.135C107.312 69.2755 107.045 69.3481 106.775 69.347Z" fill="#E6E6E6"/>
<path d="M162.538 69.347H145.883C145.457 69.346 145.046 69.1647 144.722 68.8354C144.398 68.5061 144.182 68.0501 144.113 67.5486C143.027 59.1234 143.027 50.5491 144.113 42.1239C144.182 41.6224 144.398 41.1664 144.722 40.8371C145.046 40.5078 145.457 40.3265 145.883 40.3255H162.538C162.808 40.3244 163.074 40.397 163.317 40.5375C163.56 40.6781 163.773 40.883 163.939 41.1366C164.109 41.3936 164.228 41.6937 164.287 42.0139C164.345 42.3341 164.342 42.666 164.276 42.9843C162.718 50.7761 162.718 58.8964 164.276 66.6882C164.342 67.0065 164.345 67.3384 164.287 67.6586C164.228 67.9788 164.109 68.2789 163.939 68.5359C163.773 68.7895 163.56 68.9944 163.317 69.135C163.074 69.2755 162.808 69.3481 162.538 69.347Z" fill="#E6E6E6"/>
<path d="M78.4466 50.1044H61.792C61.3665 50.1034 60.955 49.9221 60.6309 49.5928C60.3068 49.2634 60.0911 48.8074 60.0222 48.306C58.9358 39.8807 58.9358 31.3065 60.0222 22.8812C60.0911 22.3797 60.3068 21.9237 60.6309 21.5944C60.955 21.265 61.3665 21.0837 61.792 21.0828H78.4467C78.7165 21.0818 78.983 21.1543 79.2259 21.2948C79.4687 21.4353 79.6815 21.6401 79.8481 21.8936C80.0183 22.1507 80.1372 22.4508 80.1957 22.771C80.2541 23.0913 80.2507 23.4232 80.1855 23.7416C78.6274 31.5334 78.6274 39.6537 80.1854 47.4455C80.2506 47.7639 80.2541 48.0958 80.1957 48.4161C80.1372 48.7363 80.0184 49.0364 79.8482 49.2935C79.6816 49.547 79.4687 49.7519 79.2259 49.8924C78.983 50.0329 78.7165 50.1054 78.4466 50.1044Z" fill="#EC7505"/>
<path d="M134.771 50.1044H118.116C117.846 50.1054 117.579 50.0329 117.337 49.8923C117.094 49.7518 116.881 49.5469 116.714 49.2933C116.544 49.0362 116.425 48.7361 116.367 48.4159C116.308 48.0957 116.312 47.7638 116.377 47.4455C117.935 39.6537 117.935 31.5334 116.377 23.7416C116.312 23.4233 116.308 23.0914 116.367 22.7712C116.425 22.451 116.544 22.151 116.714 21.8939C116.881 21.6403 117.094 21.4354 117.336 21.2948C117.579 21.1543 117.846 21.0818 118.116 21.0828H134.771C135.196 21.0837 135.608 21.265 135.932 21.5944C136.256 21.9237 136.471 22.3797 136.54 22.8812C137.627 31.3065 137.627 39.8807 136.54 48.3059C136.471 48.8074 136.256 49.2634 135.932 49.5928C135.608 49.9221 135.196 50.1034 134.771 50.1044Z" fill="#EC7505"/>
<path d="M189.639 50.1044H172.984C172.714 50.1054 172.448 50.0329 172.205 49.8923C171.962 49.7518 171.749 49.5469 171.583 49.2933C171.412 49.0362 171.294 48.7361 171.235 48.4159C171.177 48.0957 171.18 47.7638 171.245 47.4455C172.803 39.6537 172.803 31.5334 171.245 23.7416C171.18 23.4233 171.177 23.0914 171.235 22.7712C171.294 22.451 171.412 22.151 171.583 21.8939C171.749 21.6403 171.962 21.4354 172.205 21.2948C172.448 21.1543 172.714 21.0818 172.984 21.0828H189.639C190.064 21.0838 190.476 21.2651 190.8 21.5944C191.124 21.9238 191.34 22.3797 191.409 22.8812C192.495 31.3065 192.495 39.8807 191.409 48.3059C191.34 48.8074 191.124 49.2634 190.8 49.5927C190.476 49.922 190.064 50.1033 189.639 50.1044Z" fill="#FF6584"/>
<path d="M96.9061 196.696C96.1125 196.503 95.3641 196.105 94.7135 195.529C94.0629 194.953 93.5259 194.214 93.1404 193.364C92.7549 192.513 92.5302 191.572 92.4822 190.607C92.4342 189.642 92.564 188.676 92.8624 187.777L70.0022 129.167L81.5991 125.275L100.444 184.182C101.675 184.881 102.649 186.095 103.181 187.594C103.713 189.093 103.766 190.773 103.33 192.315C102.894 193.858 101.999 195.156 100.815 195.963C99.631 196.77 98.2402 197.031 96.9061 196.696Z" fill="#A0616A"/>
<path d="M52.6349 290.22H58.9566L61.9637 261.105H52.6339L52.6349 290.22Z" fill="#A0616A"/>
<path d="M71.1481 297.228L51.2805 297.229L51.2801 288.063L63.4716 288.063C65.5075 288.063 67.4599 289.028 68.8995 290.747C70.3392 292.466 71.148 294.797 71.1481 297.228Z" fill="#2F2E41"/>
<path d="M19.7765 282.083L25.5871 285.055L37.953 259.706L29.3765 255.32L19.7765 282.083Z" fill="#A0616A"/>
<path d="M34.4829 297.229L16.22 287.889L19.2423 279.464L30.449 285.195C32.3204 286.152 33.7968 287.958 34.5533 290.215C35.3098 292.472 35.2845 294.995 34.4829 297.229Z" fill="#2F2E41"/>
<path d="M68.2645 101.671C75.2588 101.671 80.9289 94.9009 80.9289 86.549C80.9289 78.1972 75.2588 71.4268 68.2645 71.4268C61.2701 71.4268 55.6001 78.1972 55.6001 86.549C55.6001 94.9009 61.2701 101.671 68.2645 101.671Z" fill="#A0616A"/>
<path d="M59.1151 283.102L52.1561 281.519C51.5841 281.392 51.0731 281.013 50.7256 280.456C50.3781 279.899 50.2196 279.205 50.282 278.515L54.8966 224.789C54.9407 224.277 54.8295 223.762 54.5831 223.339C54.3368 222.916 53.9717 222.612 53.5539 222.483C53.1362 222.354 52.6935 222.408 52.3061 222.635C51.9188 222.862 51.6123 223.247 51.4424 223.721L31.2961 279.852C31.175 280.19 30.999 280.495 30.7783 280.75C30.5577 281.006 30.2967 281.206 30.0106 281.34C29.7245 281.474 29.419 281.539 29.1118 281.531C28.8046 281.522 28.5018 281.442 28.221 281.293L22.561 278.289C22.0326 278.011 21.6104 277.507 21.3774 276.876C21.1444 276.246 21.1175 275.534 21.302 274.881L35.0808 225.522C35.1195 225.383 35.1464 225.239 35.1608 225.094L39.6334 179.996C39.6822 179.503 39.8407 179.036 40.0924 178.641C40.344 178.247 40.6797 177.941 41.0644 177.754L55.1867 170.904C55.6045 170.701 56.0627 170.648 56.5053 170.751C56.9479 170.855 57.3557 171.11 57.6788 171.485L75.5043 192.21C75.7821 192.532 75.9878 192.932 76.1026 193.373C76.2175 193.814 76.2377 194.282 76.1616 194.735L61.8252 280.92C61.719 281.548 61.4343 282.113 61.0193 282.52C60.6043 282.926 60.0844 283.149 59.5476 283.15C59.4025 283.151 59.2577 283.134 59.1151 283.102Z" fill="#2F2E41"/>
<path d="M51.1815 182.482C48.7144 179.071 46.9138 177.523 45.6824 177.767C44.4605 178.003 43.7557 180.041 43.0093 182.199C41.9907 185.145 40.836 188.484 37.99 188.745C37.5469 188.836 37.0913 188.776 36.6754 188.572C36.2594 188.369 35.8997 188.029 35.6376 187.593C33.3989 183.618 38.7685 170.462 39.2591 169.28L39.0073 107.057C39.0038 106.554 39.1149 106.061 39.3287 105.629C39.5424 105.196 39.8508 104.842 40.2205 104.603C54.9762 95.1014 74.9003 111.626 78.7444 115.035C79.0519 115.307 79.2982 115.666 79.4611 116.08C79.6241 116.493 79.6986 116.949 79.6779 117.405C79.214 127.826 76.9002 180.404 76.9002 192.132C76.9002 195.379 75.9624 197.442 74.1126 198.263C73.4881 198.528 72.829 198.657 72.1664 198.645C66.5225 198.645 57.2786 190.912 51.1815 182.482Z" fill="#CCCCCC"/>
<path d="M71.7736 152.268C71.4651 152.029 71.2093 151.705 71.0278 151.322C70.8463 150.94 70.7444 150.512 70.7307 150.073L69.7311 122.202C69.6696 120.487 70.1213 118.801 71.0056 117.446C71.8899 116.091 73.149 115.157 74.5575 114.809C75.9661 114.462 77.4323 114.724 78.6936 115.55C79.955 116.375 80.9293 117.709 81.4421 119.314L88.9225 142.721C89.1412 143.407 89.1229 144.17 88.8715 144.84C88.6202 145.511 88.1564 146.035 87.5819 146.297L73.8761 152.543C73.5329 152.701 73.1627 152.759 72.7969 152.712C72.431 152.664 72.0801 152.512 71.7736 152.268V152.268Z" fill="#CCCCCC"/>
<path d="M36.9443 195.816C36.2723 195.276 35.7076 194.567 35.29 193.739C34.8724 192.91 34.612 191.983 34.5271 191.021C34.4423 190.059 34.535 189.087 34.7989 188.173C35.0627 187.259 35.4912 186.425 36.0541 185.73L33.6357 121.14L45.5993 122.822L44.2105 185.858C45.1257 187.065 45.6385 188.63 45.6515 190.258C45.6646 191.886 45.1772 193.463 44.2815 194.691C43.3858 195.918 42.1442 196.711 40.7919 196.918C39.4396 197.126 38.0706 196.733 36.9442 195.816H36.9443Z" fill="#A0616A"/>
<path d="M28.6369 138.339C28.42 137.984 28.2778 137.572 28.2223 137.137C28.1668 136.703 28.1996 136.259 28.3179 135.843L35.7056 109.379C36.1604 107.749 37.0859 106.366 38.3166 105.477C39.5472 104.588 41.0026 104.251 42.4224 104.526C43.8422 104.801 45.1336 105.671 46.0656 106.979C46.9976 108.287 47.5094 109.948 47.5093 111.666V136.719C47.5087 137.454 47.264 138.158 46.829 138.677C46.394 139.197 45.8042 139.489 45.189 139.49H30.5192C30.1512 139.492 29.7881 139.389 29.4605 139.188C29.1329 138.988 28.8504 138.697 28.6369 138.339Z" fill="#CCCCCC"/>
<path d="M60.0861 96.7202C59.612 97.1638 59.0198 97.3883 58.4182 97.3525C57.8167 97.3167 57.2461 97.023 56.8113 96.5253C54.0971 93.4958 51.8064 89.8732 50.6471 85.6778C49.3187 80.8705 49.658 75.24 52.2019 71.1903C54.3524 67.7669 57.7563 65.8329 61.109 64.321C62.4179 63.6601 63.8007 63.2313 65.2135 63.0482C66.6406 62.8714 68.0704 63.3508 69.2119 64.3888C69.7682 64.9192 70.1776 65.6374 70.3869 66.4499C70.5962 67.2623 70.5956 68.1312 70.3852 68.9432C72.1046 67.0784 74.2023 65.7827 76.4703 65.1843C77.9059 64.7298 79.4231 64.8049 80.8223 65.3996C82.7667 66.3544 84.0297 68.6866 84.6117 71.0989C85.093 72.9391 85.132 74.9036 84.7243 76.7689C84.5149 77.6963 84.1449 78.5609 83.6381 79.3067C83.1312 80.0526 82.499 80.6631 81.7821 81.0988C80.0032 82.0995 77.8921 81.7218 76.032 80.9599C74.172 80.1981 72.4084 79.0739 70.4846 78.5879C68.5607 78.1019 66.3394 78.3855 64.9781 80.0799C64.0194 81.2732 63.642 82.9518 63.2991 84.5539L61.5156 92.8867C61.3188 94.1005 60.9422 95.2626 60.4036 96.3185C60.3134 96.4688 60.2066 96.604 60.0861 96.7202Z" fill="#2F2E41"/>
<path d="M111.447 216.96H94.7923C94.3668 216.959 93.9553 216.777 93.6312 216.448C93.3071 216.119 93.0914 215.663 93.0226 215.161C91.9362 206.736 91.9362 198.162 93.0226 189.736C93.0914 189.235 93.3071 188.779 93.6312 188.45C93.9553 188.12 94.3668 187.939 94.7923 187.938H111.447C111.717 187.937 111.984 188.01 112.226 188.15C112.469 188.291 112.682 188.496 112.849 188.749C113.019 189.006 113.138 189.306 113.196 189.626C113.254 189.947 113.251 190.279 113.186 190.597C111.628 198.389 111.628 206.509 113.186 214.301C113.251 214.619 113.254 214.951 113.196 215.271C113.138 215.591 113.019 215.891 112.849 216.148C112.682 216.402 112.469 216.607 112.226 216.748C111.984 216.888 111.717 216.961 111.447 216.96Z" fill="#EC7505"/>
<path d="M83.532 298H0.51563C0.378876 298 0.247723 297.935 0.151024 297.82C0.0543247 297.704 0 297.548 0 297.384C0 297.221 0.0543247 297.064 0.151024 296.949C0.247723 296.833 0.378876 296.769 0.51563 296.769H83.532C83.6688 296.769 83.7999 296.833 83.8966 296.949C83.9933 297.064 84.0476 297.221 84.0476 297.384C84.0476 297.548 83.9933 297.704 83.8966 297.82C83.7999 297.935 83.6688 298 83.532 298Z" fill="#3F3D56"/>
</g>
<defs>
<clipPath id="clip0">
<rect width="394" height="298" fill="white"/>
</clipPath>
</defs>
</svg>
