<svg width="24" height="24" viewBox="0 0 24 24" fill="none" xmlns="http://www.w3.org/2000/svg">
<path d="M17.4166 1.16669H6.58329C3.59175 1.16669 1.16663 3.59181 1.16663 6.58335V17.4167C1.16663 20.4082 3.59175 22.8334 6.58329 22.8334H17.4166C20.4082 22.8334 22.8333 20.4082 22.8333 17.4167V6.58335C22.8333 3.59181 20.4082 1.16669 17.4166 1.16669Z" stroke="#EC7505" stroke-width="2" stroke-linecap="round" stroke-linejoin="round"/>
<path d="M16.3333 11.3175C16.467 12.2191 16.313 13.1399 15.8932 13.949C15.4734 14.758 14.8092 15.4141 13.9951 15.8238C13.1809 16.2336 12.2583 16.3763 11.3584 16.2314C10.4585 16.0866 9.62721 15.6618 8.98271 15.0173C8.33821 14.3728 7.91334 13.5415 7.76854 12.6416C7.62374 11.7417 7.76637 10.8191 8.17615 10.0049C8.58594 9.19078 9.242 8.52657 10.051 8.10678C10.8601 7.68699 11.7809 7.53299 12.6825 7.66669C13.6021 7.80306 14.4536 8.23161 15.111 8.88902C15.7684 9.54643 16.1969 10.3979 16.3333 11.3175Z" stroke="#EC7505" stroke-width="2" stroke-linecap="round" stroke-linejoin="round"/>
<path d="M17.9584 6.04169H17.9692" stroke="#EC7505" stroke-width="2" stroke-linecap="round" stroke-linejoin="round"/>
</svg>
