<svg width="151" height="107" viewBox="0 0 151 107" fill="none" xmlns="http://www.w3.org/2000/svg">
<path d="M0.624 106.616C0.976 102.832 2.208 100.06 4.32 98.3C6.432 96.628 9.16 95.528 12.504 95C15.848 94.472 19.456 94.208 23.328 94.208C25.176 90.16 26.98 85.232 28.74 79.424C30.5 73.528 32.172 67.236 33.756 60.548C35.34 53.86 36.836 47.26 38.244 40.748C39.74 34.148 41.104 28.12 42.336 22.664C43.656 17.12 44.888 12.676 46.032 9.33199C39.344 9.42 33.668 9.728 29.004 10.256C24.428 10.784 19.676 11.532 14.748 12.5C15.716 8.1 18.488 4.932 23.064 2.996C27.64 1.06 34.636 0.0919945 44.052 0.0919945C48.716 0.0919945 53.556 0.267995 58.572 0.619996C63.588 0.971996 68.208 1.368 72.432 1.808C76.656 2.248 79.956 2.644 82.332 2.996C79.34 5.812 76.524 7.572 73.884 8.276C71.244 8.892 68.956 9.2 67.02 9.2C64.116 9.2 61.52 9.2 59.232 9.2C57.032 9.2 54.876 9.24399 52.764 9.33199C52.148 12.324 51.444 15.976 50.652 20.288C49.948 24.6 49.112 29.22 48.144 34.148C47.264 39.076 46.384 44.004 45.504 48.932C44.624 53.86 43.744 58.48 42.864 62.792C41.984 67.016 41.192 70.536 40.488 73.352C39.344 77.928 37.98 82.108 36.396 85.892C34.812 89.676 33.008 92.536 30.984 94.472C35.648 94.824 40.356 95.264 45.108 95.792C49.86 96.32 55.096 96.672 60.816 96.848C57.296 100.104 53.952 102.128 50.784 102.92C47.616 103.8 45.02 104.24 42.996 104.24C37.1 104.24 32.172 104.24 28.212 104.24C24.34 104.328 20.952 104.416 18.048 104.504C15.144 104.68 12.328 104.944 9.6 105.296C6.96 105.648 3.968 106.088 0.624 106.616ZM97.3346 106.484C92.2306 106.484 87.5666 105.12 83.3426 102.392C79.1186 99.752 75.7746 95.968 73.3106 91.04C70.8466 86.112 69.6146 80.216 69.6146 73.352C69.6146 66.576 70.6706 59.756 72.7826 52.892C74.8946 45.94 77.7986 39.34 81.4946 33.092C85.1906 26.756 89.5026 21.124 94.4306 16.196C99.3586 11.18 104.595 7.26399 110.139 4.44799C115.771 1.54399 121.535 0.0919945 127.431 0.0919945C128.311 0.0919945 129.587 0.267995 131.259 0.619996C133.019 0.971996 134.735 2.028 136.407 3.78799C135.879 3.7 135.263 3.656 134.559 3.656C133.943 3.568 133.283 3.524 132.579 3.524C128.003 3.524 123.383 4.976 118.719 7.88C114.055 10.696 109.611 14.524 105.387 19.364C101.163 24.204 97.3786 29.704 94.0346 35.864C90.7786 41.936 88.1826 48.272 86.2466 54.872C84.3106 61.472 83.3426 67.896 83.3426 74.144C83.3426 78.72 83.9586 82.988 85.1906 86.948C86.4226 90.908 88.4026 94.076 91.1306 96.452C93.8586 98.916 97.4666 100.148 101.955 100.148C106.795 100.148 111.327 98.696 115.551 95.792C119.775 92.888 123.603 89.016 127.035 84.176C130.467 79.248 133.415 73.792 135.879 67.808C138.343 61.736 140.235 55.532 141.555 49.196C142.875 42.772 143.535 36.656 143.535 30.848C143.535 28.296 143.359 25.568 143.007 22.664C142.655 19.672 142.039 17.12 141.159 15.008C140.367 12.896 139.179 11.84 137.595 11.84C136.099 11.84 134.471 12.808 132.711 14.744C130.951 16.592 129.235 18.968 127.563 21.872C125.891 24.776 124.395 27.856 123.075 31.112C121.843 34.28 120.963 37.14 120.435 39.692C117.443 39.076 115.287 38.108 113.967 36.788C112.735 35.468 112.119 33.884 112.119 32.036C112.119 29.66 112.955 27.02 114.627 24.116C116.299 21.212 118.455 18.44 121.095 15.8C123.823 13.072 126.639 10.828 129.543 9.068C132.535 7.308 135.307 6.428 137.859 6.428C140.499 6.428 142.611 7.396 144.195 9.33199C145.867 11.18 147.143 13.6 148.023 16.592C148.903 19.584 149.519 22.796 149.871 26.228C150.223 29.572 150.399 32.696 150.399 35.6C150.399 44.576 149.299 52.804 147.099 60.284C144.899 67.676 141.907 74.232 138.123 79.952C134.427 85.672 130.247 90.512 125.583 94.472C121.007 98.432 116.255 101.424 111.327 103.448C106.487 105.472 101.823 106.484 97.3346 106.484Z" fill="#EC7505"/>
</svg>
