<svg width="24" height="24" viewBox="0 0 24 24" fill="none" xmlns="http://www.w3.org/2000/svg">
<g clip-path="url(#clip0)">
<path d="M18.5899 24C18.6929 24 23.3519 23.999 23.2499 23.999C23.6639 23.999 23.9999 23.663 23.9999 23.249C23.6499 15.392 25.8419 7.10095 17.6619 7.10095C16.0889 7.10095 14.8359 7.63795 13.9329 8.34795C13.9329 6.88695 12.3539 7.69495 8.70894 7.47795C8.29494 7.47795 7.95894 7.81395 7.95894 8.22795C8.26094 22.394 7.28494 23.999 8.70894 23.999H13.3689C14.7219 23.999 13.8609 22.091 14.1189 15.811C14.1189 13.217 14.8689 12.709 16.1649 12.709C17.5989 12.709 17.8399 13.705 17.8399 15.937C18.0969 22.104 17.2419 24 18.5899 24ZM16.1649 11.209C11.6739 11.209 12.6189 16.147 12.6189 22.499H9.45894V8.97795H12.4329V10.276C12.4329 10.996 13.5299 11.35 13.9119 10.626C14.4039 9.69195 15.6819 8.60095 17.6619 8.60095C21.1889 8.60095 22.4999 10.334 22.4999 14.997V22.5H19.3399C19.3399 15.356 20.0959 11.209 16.1649 11.209Z" fill="#EC7505"/>
<path d="M1.12199 7.47902C-0.298008 7.47902 0.673992 9.06402 0.371992 23.25C0.371992 23.664 0.707992 24 1.12199 24H5.78699C7.20699 24 6.23499 22.415 6.53699 8.22902C6.53699 6.93402 4.65599 7.69802 1.12199 7.47902ZM5.03699 22.5H1.87199V8.97902H5.03699V22.5Z" fill="#EC7505"/>
<path d="M3.45203 0C-1.12397 0 -1.09597 6.929 3.45203 6.929C7.99703 6.929 8.03303 0 3.45203 0ZM3.45203 5.429C0.884026 5.429 0.860026 1.5 3.45203 1.5C6.04903 1.5 6.01603 5.429 3.45203 5.429Z" fill="#EC7505"/>
</g>
<defs>
<clipPath id="clip0">
<rect width="24" height="24" fill="white"/>
</clipPath>
</defs>
</svg>
