<svg width="25" height="20" viewBox="0 0 25 20" fill="none" xmlns="http://www.w3.org/2000/svg">
<path d="M23.4792 3.95498C23.3555 3.44084 23.1035 2.96977 22.7487 2.58934C22.3938 2.20891 21.9488 1.9326 21.4584 1.78831C19.6667 1.33331 12.5001 1.33331 12.5001 1.33331C12.5001 1.33331 5.3334 1.33331 3.54173 1.83165C3.05137 1.97593 2.60629 2.25224 2.25147 2.63267C1.89665 3.0131 1.64464 3.48417 1.5209 3.99831C1.193 5.88933 1.0326 7.80765 1.04173 9.72915C1.03004 11.6651 1.19045 13.5981 1.5209 15.5033C1.65732 16.0015 1.91497 16.4546 2.26897 16.819C2.62296 17.1834 3.06134 17.4466 3.54173 17.5833C5.3334 18.0816 12.5001 18.0816 12.5001 18.0816C12.5001 18.0816 19.6667 18.0816 21.4584 17.5833C21.9488 17.439 22.3938 17.1627 22.7487 16.7823C23.1035 16.4019 23.3555 15.9308 23.4792 15.4166C23.8046 13.5399 23.965 11.6362 23.9584 9.72915C23.9701 7.79318 23.8097 5.86024 23.4792 3.95498V3.95498Z" stroke="#EC7505" stroke-width="2" stroke-linecap="round" stroke-linejoin="round"/>
<path d="M10.1562 13.2716L16.1458 9.72915L10.1562 6.18665V13.2716Z" stroke="#EC7505" stroke-width="2" stroke-linecap="round" stroke-linejoin="round"/>
</svg>
