<svg width="35" height="25" viewBox="0 0 35 25" fill="none" xmlns="http://www.w3.org/2000/svg">
<path d="M0.46 24.64C0.54 23.78 0.82 23.15 1.3 22.75C1.78 22.37 2.4 22.12 3.16 22C3.92 21.88 4.74 21.82 5.62 21.82C6.04 20.9 6.45 19.78 6.85 18.46C7.25 17.12 7.63 15.69 7.99 14.17C8.35 12.65 8.69 11.15 9.01 9.67C9.35 8.17 9.66 6.8 9.94 5.56C10.24 4.3 10.52 3.29 10.78 2.53C9.26 2.55 7.97 2.62 6.91 2.74C5.87 2.86 4.79 3.03 3.67 3.25C3.89 2.25 4.52 1.53 5.56 1.09C6.6 0.649999 8.19 0.429999 10.33 0.429999C11.39 0.429999 12.49 0.469999 13.63 0.549999C14.77 0.629999 15.82 0.719999 16.78 0.819999C17.74 0.919999 18.49 1.01 19.03 1.09C18.35 1.73 17.71 2.13 17.11 2.29C16.51 2.43 15.99 2.5 15.55 2.5C14.89 2.5 14.3 2.5 13.78 2.5C13.28 2.5 12.79 2.51 12.31 2.53C12.17 3.21 12.01 4.04 11.83 5.02C11.67 6 11.48 7.05 11.26 8.17C11.06 9.29 10.86 10.41 10.66 11.53C10.46 12.65 10.26 13.7 10.06 14.68C9.86 15.64 9.68 16.44 9.52 17.08C9.26 18.12 8.95 19.07 8.59 19.93C8.23 20.79 7.82 21.44 7.36 21.88C8.42 21.96 9.49 22.06 10.57 22.18C11.65 22.3 12.84 22.38 14.14 22.42C13.34 23.16 12.58 23.62 11.86 23.8C11.14 24 10.55 24.1 10.09 24.1C8.75 24.1 7.63 24.1 6.73 24.1C5.85 24.12 5.08 24.14 4.42 24.16C3.76 24.2 3.12 24.26 2.5 24.34C1.9 24.42 1.22 24.52 0.46 24.64ZM22.4397 24.61C21.2797 24.61 20.2197 24.3 19.2597 23.68C18.2997 23.08 17.5397 22.22 16.9797 21.1C16.4197 19.98 16.1397 18.64 16.1397 17.08C16.1397 15.54 16.3797 13.99 16.8597 12.43C17.3397 10.85 17.9997 9.35 18.8397 7.93C19.6797 6.49 20.6597 5.21 21.7797 4.09C22.8997 2.95 24.0897 2.06 25.3497 1.42C26.6297 0.759999 27.9397 0.429999 29.2797 0.429999C29.4797 0.429999 29.7697 0.469999 30.1497 0.549999C30.5497 0.629999 30.9397 0.869999 31.3197 1.27C31.1997 1.25 31.0597 1.24 30.8997 1.24C30.7597 1.22 30.6097 1.21 30.4497 1.21C29.4097 1.21 28.3597 1.54 27.2997 2.2C26.2397 2.84 25.2297 3.71 24.2697 4.81C23.3097 5.91 22.4497 7.16 21.6897 8.56C20.9497 9.94 20.3597 11.38 19.9197 12.88C19.4797 14.38 19.2597 15.84 19.2597 17.26C19.2597 18.3 19.3997 19.27 19.6797 20.17C19.9597 21.07 20.4097 21.79 21.0297 22.33C21.6497 22.89 22.4697 23.17 23.4897 23.17C24.5897 23.17 25.6197 22.84 26.5797 22.18C27.5397 21.52 28.4097 20.64 29.1897 19.54C29.9697 18.42 30.6397 17.18 31.1997 15.82C31.7597 14.44 32.1897 13.03 32.4897 11.59C32.7897 10.13 32.9397 8.74 32.9397 7.42C32.9397 6.84 32.8997 6.22 32.8197 5.56C32.7397 4.88 32.5997 4.3 32.3997 3.82C32.2197 3.34 31.9497 3.1 31.5897 3.1C31.2497 3.1 30.8797 3.32 30.4797 3.76C30.0797 4.18 29.6897 4.72 29.3097 5.38C28.9297 6.04 28.5897 6.74 28.2897 7.48C28.0097 8.2 27.8097 8.85 27.6897 9.43C27.0097 9.29 26.5197 9.07 26.2197 8.77C25.9397 8.47 25.7997 8.11 25.7997 7.69C25.7997 7.15 25.9897 6.55 26.3697 5.89C26.7497 5.23 27.2397 4.6 27.8397 4C28.4597 3.38 29.0997 2.87 29.7597 2.47C30.4397 2.07 31.0697 1.87 31.6497 1.87C32.2497 1.87 32.7297 2.09 33.0897 2.53C33.4697 2.95 33.7597 3.5 33.9597 4.18C34.1597 4.86 34.2997 5.59 34.3797 6.37C34.4597 7.13 34.4997 7.84 34.4997 8.5C34.4997 10.54 34.2497 12.41 33.7497 14.11C33.2497 15.79 32.5697 17.28 31.7097 18.58C30.8697 19.88 29.9197 20.98 28.8597 21.88C27.8197 22.78 26.7397 23.46 25.6197 23.92C24.5197 24.38 23.4597 24.61 22.4397 24.61Z" fill="white"/>
</svg>
